<?xml version="1.0" encoding="utf-8" standalone="no"?>
<!DOCTYPE svg PUBLIC "-//W3C//DTD SVG 1.1//EN"
  "http://www.w3.org/Graphics/SVG/1.1/DTD/svg11.dtd">
<svg xmlns:xlink="http://www.w3.org/1999/xlink" width="1000.199844pt" height="712.674062pt" viewBox="0 0 1000.199844 712.674062" xmlns="http://www.w3.org/2000/svg" version="1.1">
 <metadata>
  <rdf:RDF xmlns:dc="http://purl.org/dc/elements/1.1/" xmlns:cc="http://creativecommons.org/ns#" xmlns:rdf="http://www.w3.org/1999/02/22-rdf-syntax-ns#">
   <cc:Work>
    <dc:type rdf:resource="http://purl.org/dc/dcmitype/StillImage"/>
    <dc:date>2026-07-08T08:28:49.245551</dc:date>
    <dc:format>image/svg+xml</dc:format>
    <dc:creator>
     <cc:Agent>
      <dc:title>Matplotlib v3.11.0, https://matplotlib.org/</dc:title>
     </cc:Agent>
    </dc:creator>
   </cc:Work>
  </rdf:RDF>
 </metadata>
 <defs>
  <style type="text/css">*{stroke-linejoin: round; stroke-linecap: butt}</style>
 </defs>
 <g id="figure_1">
  <g id="patch_1">
   <path d="M 0 712.674062 
L 1000.199844 712.674062 
L 1000.199844 0 
L 0 0 
z
" style="fill: #ffffff"/>
  </g>
  <g id="axes_1">
   <g id="patch_2">
    <path d="M 54.650859 318.873203 
L 490.468281 318.873203 
L 490.468281 22.318125 
L 54.650859 22.318125 
z
" style="fill: #ffffff"/>
   </g>
   <g id="matplotlib.axis_1">
    <g id="xtick_1">
     <g id="line2d_1">
      <path d="M 114.080508 318.873203 
L 114.080508 22.318125 
" clip-path="url(#p2e50efee83)" style="fill: none; stroke: #b0b0b0; stroke-opacity: 0.3; stroke-width: 0.8; stroke-linecap: square"/>
     </g>
     <g id="line2d_2">
      <defs>
       <path id="m732898a300" d="M 0 0 
L 0 3.5 
" style="stroke: #000000; stroke-width: 0.8"/>
      </defs>
      <g>
       <use xlink:href="#m732898a300" x="114.080508" y="318.873203" style="stroke: #000000; stroke-width: 0.8"/>
      </g>
     </g>
     <g id="text_1">
      <!-- 4.8 -->
      <g transform="translate(106.128945 333.470859) scale(0.1 -0.1)">
       <defs>
        <path id="DejaVuSans-17" d="M 2419 4116 
L 825 1625 
L 2419 1625 
L 2419 4116 
z
M 2253 4666 
L 3047 4666 
L 3047 1625 
L 3713 1625 
L 3713 1100 
L 3047 1100 
L 3047 0 
L 2419 0 
L 2419 1100 
L 313 1100 
L 313 1709 
L 2253 4666 
z
" transform="scale(0.015625)"/>
        <path id="DejaVuSans-11" d="M 684 794 
L 1344 794 
L 1344 0 
L 684 0 
L 684 794 
z
" transform="scale(0.015625)"/>
        <path id="DejaVuSans-1b" d="M 2034 2216 
Q 1584 2216 1326 1975 
Q 1069 1734 1069 1313 
Q 1069 891 1326 650 
Q 1584 409 2034 409 
Q 2484 409 2743 651 
Q 3003 894 3003 1313 
Q 3003 1734 2745 1975 
Q 2488 2216 2034 2216 
z
M 1403 2484 
Q 997 2584 770 2862 
Q 544 3141 544 3541 
Q 544 4100 942 4425 
Q 1341 4750 2034 4750 
Q 2731 4750 3128 4425 
Q 3525 4100 3525 3541 
Q 3525 3141 3298 2862 
Q 3072 2584 2669 2484 
Q 3125 2378 3379 2068 
Q 3634 1759 3634 1313 
Q 3634 634 3220 271 
Q 2806 -91 2034 -91 
Q 1263 -91 848 271 
Q 434 634 434 1313 
Q 434 1759 690 2068 
Q 947 2378 1403 2484 
z
M 1172 3481 
Q 1172 3119 1398 2916 
Q 1625 2713 2034 2713 
Q 2441 2713 2670 2916 
Q 2900 3119 2900 3481 
Q 2900 3844 2670 4047 
Q 2441 4250 2034 4250 
Q 1625 4250 1398 4047 
Q 1172 3844 1172 3481 
z
" transform="scale(0.015625)"/>
       </defs>
       <use xlink:href="#DejaVuSans-17"/>
       <use xlink:href="#DejaVuSans-11" transform="translate(63.625 0)"/>
       <use xlink:href="#DejaVuSans-1b" transform="translate(95.40625 0)"/>
      </g>
     </g>
    </g>
    <g id="xtick_2">
     <g id="line2d_3">
      <path d="M 193.320039 318.873203 
L 193.320039 22.318125 
" clip-path="url(#p2e50efee83)" style="fill: none; stroke: #b0b0b0; stroke-opacity: 0.3; stroke-width: 0.8; stroke-linecap: square"/>
     </g>
     <g id="line2d_4">
      <g>
       <use xlink:href="#m732898a300" x="193.320039" y="318.873203" style="stroke: #000000; stroke-width: 0.8"/>
      </g>
     </g>
     <g id="text_2">
      <!-- 4.9 -->
      <g transform="translate(185.368477 333.470859) scale(0.1 -0.1)">
       <defs>
        <path id="DejaVuSans-1c" d="M 703 97 
L 703 672 
Q 941 559 1184 500 
Q 1428 441 1663 441 
Q 2288 441 2617 861 
Q 2947 1281 2994 2138 
Q 2813 1869 2534 1725 
Q 2256 1581 1919 1581 
Q 1219 1581 811 2004 
Q 403 2428 403 3163 
Q 403 3881 828 4315 
Q 1253 4750 1959 4750 
Q 2769 4750 3195 4129 
Q 3622 3509 3622 2328 
Q 3622 1225 3098 567 
Q 2575 -91 1691 -91 
Q 1453 -91 1209 -44 
Q 966 3 703 97 
z
M 1959 2075 
Q 2384 2075 2632 2365 
Q 2881 2656 2881 3163 
Q 2881 3666 2632 3958 
Q 2384 4250 1959 4250 
Q 1534 4250 1286 3958 
Q 1038 3666 1038 3163 
Q 1038 2656 1286 2365 
Q 1534 2075 1959 2075 
z
" transform="scale(0.015625)"/>
       </defs>
       <use xlink:href="#DejaVuSans-17"/>
       <use xlink:href="#DejaVuSans-11" transform="translate(63.625 0)"/>
       <use xlink:href="#DejaVuSans-1c" transform="translate(95.40625 0)"/>
      </g>
     </g>
    </g>
    <g id="xtick_3">
     <g id="line2d_5">
      <path d="M 272.55957 318.873203 
L 272.55957 22.318125 
" clip-path="url(#p2e50efee83)" style="fill: none; stroke: #b0b0b0; stroke-opacity: 0.3; stroke-width: 0.8; stroke-linecap: square"/>
     </g>
     <g id="line2d_6">
      <g>
       <use xlink:href="#m732898a300" x="272.55957" y="318.873203" style="stroke: #000000; stroke-width: 0.8"/>
      </g>
     </g>
     <g id="text_3">
      <!-- 5.0 -->
      <g transform="translate(264.608008 333.470859) scale(0.1 -0.1)">
       <defs>
        <path id="DejaVuSans-18" d="M 691 4666 
L 3169 4666 
L 3169 4134 
L 1269 4134 
L 1269 2991 
Q 1406 3038 1543 3061 
Q 1681 3084 1819 3084 
Q 2600 3084 3056 2656 
Q 3513 2228 3513 1497 
Q 3513 744 3044 326 
Q 2575 -91 1722 -91 
Q 1428 -91 1123 -41 
Q 819 9 494 109 
L 494 744 
Q 775 591 1075 516 
Q 1375 441 1709 441 
Q 2250 441 2565 725 
Q 2881 1009 2881 1497 
Q 2881 1984 2565 2268 
Q 2250 2553 1709 2553 
Q 1456 2553 1204 2497 
Q 953 2441 691 2322 
L 691 4666 
z
" transform="scale(0.015625)"/>
        <path id="DejaVuSans-13" d="M 2034 4250 
Q 1547 4250 1301 3770 
Q 1056 3291 1056 2328 
Q 1056 1369 1301 889 
Q 1547 409 2034 409 
Q 2525 409 2770 889 
Q 3016 1369 3016 2328 
Q 3016 3291 2770 3770 
Q 2525 4250 2034 4250 
z
M 2034 4750 
Q 2819 4750 3233 4129 
Q 3647 3509 3647 2328 
Q 3647 1150 3233 529 
Q 2819 -91 2034 -91 
Q 1250 -91 836 529 
Q 422 1150 422 2328 
Q 422 3509 836 4129 
Q 1250 4750 2034 4750 
z
" transform="scale(0.015625)"/>
       </defs>
       <use xlink:href="#DejaVuSans-18"/>
       <use xlink:href="#DejaVuSans-11" transform="translate(63.625 0)"/>
       <use xlink:href="#DejaVuSans-13" transform="translate(95.40625 0)"/>
      </g>
     </g>
    </g>
    <g id="xtick_4">
     <g id="line2d_7">
      <path d="M 351.799102 318.873203 
L 351.799102 22.318125 
" clip-path="url(#p2e50efee83)" style="fill: none; stroke: #b0b0b0; stroke-opacity: 0.3; stroke-width: 0.8; stroke-linecap: square"/>
     </g>
     <g id="line2d_8">
      <g>
       <use xlink:href="#m732898a300" x="351.799102" y="318.873203" style="stroke: #000000; stroke-width: 0.8"/>
      </g>
     </g>
     <g id="text_4">
      <!-- 5.1 -->
      <g transform="translate(343.847539 333.470859) scale(0.1 -0.1)">
       <defs>
        <path id="DejaVuSans-14" d="M 794 531 
L 1825 531 
L 1825 4091 
L 703 3866 
L 703 4441 
L 1819 4666 
L 2450 4666 
L 2450 531 
L 3481 531 
L 3481 0 
L 794 0 
L 794 531 
z
" transform="scale(0.015625)"/>
       </defs>
       <use xlink:href="#DejaVuSans-18"/>
       <use xlink:href="#DejaVuSans-11" transform="translate(63.625 0)"/>
       <use xlink:href="#DejaVuSans-14" transform="translate(95.40625 0)"/>
      </g>
     </g>
    </g>
    <g id="xtick_5">
     <g id="line2d_9">
      <path d="M 431.038633 318.873203 
L 431.038633 22.318125 
" clip-path="url(#p2e50efee83)" style="fill: none; stroke: #b0b0b0; stroke-opacity: 0.3; stroke-width: 0.8; stroke-linecap: square"/>
     </g>
     <g id="line2d_10">
      <g>
       <use xlink:href="#m732898a300" x="431.038633" y="318.873203" style="stroke: #000000; stroke-width: 0.8"/>
      </g>
     </g>
     <g id="text_5">
      <!-- 5.2 -->
      <g transform="translate(423.08707 333.470859) scale(0.1 -0.1)">
       <defs>
        <path id="DejaVuSans-15" d="M 1228 531 
L 3431 531 
L 3431 0 
L 469 0 
L 469 531 
Q 828 903 1448 1529 
Q 2069 2156 2228 2338 
Q 2531 2678 2651 2914 
Q 2772 3150 2772 3378 
Q 2772 3750 2511 3984 
Q 2250 4219 1831 4219 
Q 1534 4219 1204 4116 
Q 875 4013 500 3803 
L 500 4441 
Q 881 4594 1212 4672 
Q 1544 4750 1819 4750 
Q 2544 4750 2975 4387 
Q 3406 4025 3406 3419 
Q 3406 3131 3298 2873 
Q 3191 2616 2906 2266 
Q 2828 2175 2409 1742 
Q 1991 1309 1228 531 
z
" transform="scale(0.015625)"/>
       </defs>
       <use xlink:href="#DejaVuSans-18"/>
       <use xlink:href="#DejaVuSans-11" transform="translate(63.625 0)"/>
       <use xlink:href="#DejaVuSans-15" transform="translate(95.40625 0)"/>
      </g>
     </g>
    </g>
    <g id="text_6">
     <!-- Circuit Size -->
     <g transform="translate(241.818867 348.231484) scale(0.11 -0.11)">
      <defs>
       <path id="DejaVuSans-26" d="M 4122 4306 
L 4122 3641 
Q 3803 3938 3442 4084 
Q 3081 4231 2675 4231 
Q 1875 4231 1450 3742 
Q 1025 3253 1025 2328 
Q 1025 1406 1450 917 
Q 1875 428 2675 428 
Q 3081 428 3442 575 
Q 3803 722 4122 1019 
L 4122 359 
Q 3791 134 3420 21 
Q 3050 -91 2638 -91 
Q 1578 -91 968 557 
Q 359 1206 359 2328 
Q 359 3453 968 4101 
Q 1578 4750 2638 4750 
Q 3056 4750 3426 4639 
Q 3797 4528 4122 4306 
z
" transform="scale(0.015625)"/>
       <path id="DejaVuSans-4c" d="M 603 3500 
L 1178 3500 
L 1178 0 
L 603 0 
L 603 3500 
z
M 603 4863 
L 1178 4863 
L 1178 4134 
L 603 4134 
L 603 4863 
z
" transform="scale(0.015625)"/>
       <path id="DejaVuSans-55" d="M 2631 2963 
Q 2534 3019 2420 3045 
Q 2306 3072 2169 3072 
Q 1681 3072 1420 2755 
Q 1159 2438 1159 1844 
L 1159 0 
L 581 0 
L 581 3500 
L 1159 3500 
L 1159 2956 
Q 1341 3275 1631 3429 
Q 1922 3584 2338 3584 
Q 2397 3584 2469 3576 
Q 2541 3569 2628 3553 
L 2631 2963 
z
" transform="scale(0.015625)"/>
       <path id="DejaVuSans-46" d="M 3122 3366 
L 3122 2828 
Q 2878 2963 2633 3030 
Q 2388 3097 2138 3097 
Q 1578 3097 1268 2742 
Q 959 2388 959 1747 
Q 959 1106 1268 751 
Q 1578 397 2138 397 
Q 2388 397 2633 464 
Q 2878 531 3122 666 
L 3122 134 
Q 2881 22 2623 -34 
Q 2366 -91 2075 -91 
Q 1284 -91 818 406 
Q 353 903 353 1747 
Q 353 2603 823 3093 
Q 1294 3584 2113 3584 
Q 2378 3584 2631 3529 
Q 2884 3475 3122 3366 
z
" transform="scale(0.015625)"/>
       <path id="DejaVuSans-58" d="M 544 1381 
L 544 3500 
L 1119 3500 
L 1119 1403 
Q 1119 906 1312 657 
Q 1506 409 1894 409 
Q 2359 409 2629 706 
Q 2900 1003 2900 1516 
L 2900 3500 
L 3475 3500 
L 3475 0 
L 2900 0 
L 2900 538 
Q 2691 219 2414 64 
Q 2138 -91 1772 -91 
Q 1169 -91 856 284 
Q 544 659 544 1381 
z
M 1991 3584 
L 1991 3584 
z
" transform="scale(0.015625)"/>
       <path id="DejaVuSans-57" d="M 1172 4494 
L 1172 3500 
L 2356 3500 
L 2356 3053 
L 1172 3053 
L 1172 1153 
Q 1172 725 1289 603 
Q 1406 481 1766 481 
L 2356 481 
L 2356 0 
L 1766 0 
Q 1100 0 847 248 
Q 594 497 594 1153 
L 594 3053 
L 172 3053 
L 172 3500 
L 594 3500 
L 594 4494 
L 1172 4494 
z
" transform="scale(0.015625)"/>
       <path id="DejaVuSans-3" transform="scale(0.015625)"/>
       <path id="DejaVuSans-36" d="M 3425 4513 
L 3425 3897 
Q 3066 4069 2747 4153 
Q 2428 4238 2131 4238 
Q 1616 4238 1336 4038 
Q 1056 3838 1056 3469 
Q 1056 3159 1242 3001 
Q 1428 2844 1947 2747 
L 2328 2669 
Q 3034 2534 3370 2195 
Q 3706 1856 3706 1288 
Q 3706 609 3251 259 
Q 2797 -91 1919 -91 
Q 1588 -91 1214 -16 
Q 841 59 441 206 
L 441 856 
Q 825 641 1194 531 
Q 1563 422 1919 422 
Q 2459 422 2753 634 
Q 3047 847 3047 1241 
Q 3047 1584 2836 1778 
Q 2625 1972 2144 2069 
L 1759 2144 
Q 1053 2284 737 2584 
Q 422 2884 422 3419 
Q 422 4038 858 4394 
Q 1294 4750 2059 4750 
Q 2388 4750 2728 4690 
Q 3069 4631 3425 4513 
z
" transform="scale(0.015625)"/>
       <path id="DejaVuSans-5d" d="M 353 3500 
L 3084 3500 
L 3084 2975 
L 922 459 
L 3084 459 
L 3084 0 
L 275 0 
L 275 525 
L 2438 3041 
L 353 3041 
L 353 3500 
z
" transform="scale(0.015625)"/>
       <path id="DejaVuSans-48" d="M 3597 1894 
L 3597 1613 
L 953 1613 
Q 991 1019 1311 708 
Q 1631 397 2203 397 
Q 2534 397 2845 478 
Q 3156 559 3463 722 
L 3463 178 
Q 3153 47 2828 -22 
Q 2503 -91 2169 -91 
Q 1331 -91 842 396 
Q 353 884 353 1716 
Q 353 2575 817 3079 
Q 1281 3584 2069 3584 
Q 2775 3584 3186 3129 
Q 3597 2675 3597 1894 
z
M 3022 2063 
Q 3016 2534 2758 2815 
Q 2500 3097 2075 3097 
Q 1594 3097 1305 2825 
Q 1016 2553 972 2059 
L 3022 2063 
z
" transform="scale(0.015625)"/>
      </defs>
      <use xlink:href="#DejaVuSans-26"/>
      <use xlink:href="#DejaVuSans-4c" transform="translate(69.828125 0)"/>
      <use xlink:href="#DejaVuSans-55" transform="translate(97.609375 0)"/>
      <use xlink:href="#DejaVuSans-46" transform="translate(136.515625 0)"/>
      <use xlink:href="#DejaVuSans-58" transform="translate(191.5 0)"/>
      <use xlink:href="#DejaVuSans-4c" transform="translate(254.875 0)"/>
      <use xlink:href="#DejaVuSans-57" transform="translate(282.65625 0)"/>
      <use xlink:href="#DejaVuSans-3" transform="translate(321.859375 0)"/>
      <use xlink:href="#DejaVuSans-36" transform="translate(353.640625 0)"/>
      <use xlink:href="#DejaVuSans-4c" transform="translate(417.125 0)"/>
      <use xlink:href="#DejaVuSans-5d" transform="translate(444.90625 0)"/>
      <use xlink:href="#DejaVuSans-48" transform="translate(497.390625 0)"/>
     </g>
    </g>
   </g>
   <g id="matplotlib.axis_2">
    <g id="ytick_1">
     <g id="line2d_11">
      <path d="M 54.650859 291.117672 
L 490.468281 291.117672 
" clip-path="url(#p2e50efee83)" style="fill: none; stroke: #b0b0b0; stroke-opacity: 0.3; stroke-width: 0.8; stroke-linecap: square"/>
     </g>
     <g id="line2d_12">
      <defs>
       <path id="mfd735fa13b" d="M 0 0 
L -3.5 0 
" style="stroke: #000000; stroke-width: 0.8"/>
      </defs>
      <g>
       <use xlink:href="#mfd735fa13b" x="54.650859" y="291.117672" style="stroke: #000000; stroke-width: 0.8"/>
      </g>
     </g>
     <g id="text_7">
      <!-- 1060 -->
      <g transform="translate(22.200859 294.9165) scale(0.1 -0.1)">
       <defs>
        <path id="DejaVuSans-19" d="M 2113 2584 
Q 1688 2584 1439 2293 
Q 1191 2003 1191 1497 
Q 1191 994 1439 701 
Q 1688 409 2113 409 
Q 2538 409 2786 701 
Q 3034 994 3034 1497 
Q 3034 2003 2786 2293 
Q 2538 2584 2113 2584 
z
M 3366 4563 
L 3366 3988 
Q 3128 4100 2886 4159 
Q 2644 4219 2406 4219 
Q 1781 4219 1451 3797 
Q 1122 3375 1075 2522 
Q 1259 2794 1537 2939 
Q 1816 3084 2150 3084 
Q 2853 3084 3261 2657 
Q 3669 2231 3669 1497 
Q 3669 778 3244 343 
Q 2819 -91 2113 -91 
Q 1303 -91 875 529 
Q 447 1150 447 2328 
Q 447 3434 972 4092 
Q 1497 4750 2381 4750 
Q 2619 4750 2861 4703 
Q 3103 4656 3366 4563 
z
" transform="scale(0.015625)"/>
       </defs>
       <use xlink:href="#DejaVuSans-14"/>
       <use xlink:href="#DejaVuSans-13" transform="translate(63.625 0)"/>
       <use xlink:href="#DejaVuSans-19" transform="translate(127.25 0)"/>
       <use xlink:href="#DejaVuSans-13" transform="translate(190.875 0)"/>
      </g>
     </g>
    </g>
    <g id="ytick_2">
     <g id="line2d_13">
      <path d="M 54.650859 242.524592 
L 490.468281 242.524592 
" clip-path="url(#p2e50efee83)" style="fill: none; stroke: #b0b0b0; stroke-opacity: 0.3; stroke-width: 0.8; stroke-linecap: square"/>
     </g>
     <g id="line2d_14">
      <g>
       <use xlink:href="#mfd735fa13b" x="54.650859" y="242.524592" style="stroke: #000000; stroke-width: 0.8"/>
      </g>
     </g>
     <g id="text_8">
      <!-- 1080 -->
      <g transform="translate(22.200859 246.32342) scale(0.1 -0.1)">
       <use xlink:href="#DejaVuSans-14"/>
       <use xlink:href="#DejaVuSans-13" transform="translate(63.625 0)"/>
       <use xlink:href="#DejaVuSans-1b" transform="translate(127.25 0)"/>
       <use xlink:href="#DejaVuSans-13" transform="translate(190.875 0)"/>
      </g>
     </g>
    </g>
    <g id="ytick_3">
     <g id="line2d_15">
      <path d="M 54.650859 193.931512 
L 490.468281 193.931512 
" clip-path="url(#p2e50efee83)" style="fill: none; stroke: #b0b0b0; stroke-opacity: 0.3; stroke-width: 0.8; stroke-linecap: square"/>
     </g>
     <g id="line2d_16">
      <g>
       <use xlink:href="#mfd735fa13b" x="54.650859" y="193.931512" style="stroke: #000000; stroke-width: 0.8"/>
      </g>
     </g>
     <g id="text_9">
      <!-- 1100 -->
      <g transform="translate(22.200859 197.73034) scale(0.1 -0.1)">
       <use xlink:href="#DejaVuSans-14"/>
       <use xlink:href="#DejaVuSans-14" transform="translate(63.625 0)"/>
       <use xlink:href="#DejaVuSans-13" transform="translate(127.25 0)"/>
       <use xlink:href="#DejaVuSans-13" transform="translate(190.875 0)"/>
      </g>
     </g>
    </g>
    <g id="ytick_4">
     <g id="line2d_17">
      <path d="M 54.650859 145.338432 
L 490.468281 145.338432 
" clip-path="url(#p2e50efee83)" style="fill: none; stroke: #b0b0b0; stroke-opacity: 0.3; stroke-width: 0.8; stroke-linecap: square"/>
     </g>
     <g id="line2d_18">
      <g>
       <use xlink:href="#mfd735fa13b" x="54.650859" y="145.338432" style="stroke: #000000; stroke-width: 0.8"/>
      </g>
     </g>
     <g id="text_10">
      <!-- 1120 -->
      <g transform="translate(22.200859 149.13726) scale(0.1 -0.1)">
       <use xlink:href="#DejaVuSans-14"/>
       <use xlink:href="#DejaVuSans-14" transform="translate(63.625 0)"/>
       <use xlink:href="#DejaVuSans-15" transform="translate(127.25 0)"/>
       <use xlink:href="#DejaVuSans-13" transform="translate(190.875 0)"/>
      </g>
     </g>
    </g>
    <g id="ytick_5">
     <g id="line2d_19">
      <path d="M 54.650859 96.745352 
L 490.468281 96.745352 
" clip-path="url(#p2e50efee83)" style="fill: none; stroke: #b0b0b0; stroke-opacity: 0.3; stroke-width: 0.8; stroke-linecap: square"/>
     </g>
     <g id="line2d_20">
      <g>
       <use xlink:href="#mfd735fa13b" x="54.650859" y="96.745352" style="stroke: #000000; stroke-width: 0.8"/>
      </g>
     </g>
     <g id="text_11">
      <!-- 1140 -->
      <g transform="translate(22.200859 100.54418) scale(0.1 -0.1)">
       <use xlink:href="#DejaVuSans-14"/>
       <use xlink:href="#DejaVuSans-14" transform="translate(63.625 0)"/>
       <use xlink:href="#DejaVuSans-17" transform="translate(127.25 0)"/>
       <use xlink:href="#DejaVuSans-13" transform="translate(190.875 0)"/>
      </g>
     </g>
    </g>
    <g id="ytick_6">
     <g id="line2d_21">
      <path d="M 54.650859 48.152271 
L 490.468281 48.152271 
" clip-path="url(#p2e50efee83)" style="fill: none; stroke: #b0b0b0; stroke-opacity: 0.3; stroke-width: 0.8; stroke-linecap: square"/>
     </g>
     <g id="line2d_22">
      <g>
       <use xlink:href="#mfd735fa13b" x="54.650859" y="48.152271" style="stroke: #000000; stroke-width: 0.8"/>
      </g>
     </g>
     <g id="text_12">
      <!-- 1160 -->
      <g transform="translate(22.200859 51.9511) scale(0.1 -0.1)">
       <use xlink:href="#DejaVuSans-14"/>
       <use xlink:href="#DejaVuSans-14" transform="translate(63.625 0)"/>
       <use xlink:href="#DejaVuSans-19" transform="translate(127.25 0)"/>
       <use xlink:href="#DejaVuSans-13" transform="translate(190.875 0)"/>
      </g>
     </g>
    </g>
    <g id="text_13">
     <!-- Runtime (ms) -->
     <g transform="translate(15.558281 207.829805) rotate(-90) scale(0.11 -0.11)">
      <defs>
       <path id="DejaVuSans-35" d="M 2841 2188 
Q 3044 2119 3236 1894 
Q 3428 1669 3622 1275 
L 4263 0 
L 3584 0 
L 2988 1197 
Q 2756 1666 2539 1819 
Q 2322 1972 1947 1972 
L 1259 1972 
L 1259 0 
L 628 0 
L 628 4666 
L 2053 4666 
Q 2853 4666 3247 4331 
Q 3641 3997 3641 3322 
Q 3641 2881 3436 2590 
Q 3231 2300 2841 2188 
z
M 1259 4147 
L 1259 2491 
L 2053 2491 
Q 2509 2491 2742 2702 
Q 2975 2913 2975 3322 
Q 2975 3731 2742 3939 
Q 2509 4147 2053 4147 
L 1259 4147 
z
" transform="scale(0.015625)"/>
       <path id="DejaVuSans-51" d="M 3513 2113 
L 3513 0 
L 2938 0 
L 2938 2094 
Q 2938 2591 2744 2837 
Q 2550 3084 2163 3084 
Q 1697 3084 1428 2787 
Q 1159 2491 1159 1978 
L 1159 0 
L 581 0 
L 581 3500 
L 1159 3500 
L 1159 2956 
Q 1366 3272 1645 3428 
Q 1925 3584 2291 3584 
Q 2894 3584 3203 3211 
Q 3513 2838 3513 2113 
z
" transform="scale(0.015625)"/>
       <path id="DejaVuSans-50" d="M 3328 2828 
Q 3544 3216 3844 3400 
Q 4144 3584 4550 3584 
Q 5097 3584 5394 3201 
Q 5691 2819 5691 2113 
L 5691 0 
L 5113 0 
L 5113 2094 
Q 5113 2597 4934 2840 
Q 4756 3084 4391 3084 
Q 3944 3084 3684 2787 
Q 3425 2491 3425 1978 
L 3425 0 
L 2847 0 
L 2847 2094 
Q 2847 2600 2669 2842 
Q 2491 3084 2119 3084 
Q 1678 3084 1418 2786 
Q 1159 2488 1159 1978 
L 1159 0 
L 581 0 
L 581 3500 
L 1159 3500 
L 1159 2956 
Q 1356 3278 1631 3431 
Q 1906 3584 2284 3584 
Q 2666 3584 2933 3390 
Q 3200 3197 3328 2828 
z
" transform="scale(0.015625)"/>
       <path id="DejaVuSans-b" d="M 1984 4856 
Q 1566 4138 1362 3434 
Q 1159 2731 1159 2009 
Q 1159 1288 1364 580 
Q 1569 -128 1984 -844 
L 1484 -844 
Q 1016 -109 783 600 
Q 550 1309 550 2009 
Q 550 2706 781 3412 
Q 1013 4119 1484 4856 
L 1984 4856 
z
" transform="scale(0.015625)"/>
       <path id="DejaVuSans-56" d="M 2834 3397 
L 2834 2853 
Q 2591 2978 2328 3040 
Q 2066 3103 1784 3103 
Q 1356 3103 1142 2972 
Q 928 2841 928 2578 
Q 928 2378 1081 2264 
Q 1234 2150 1697 2047 
L 1894 2003 
Q 2506 1872 2764 1633 
Q 3022 1394 3022 966 
Q 3022 478 2636 193 
Q 2250 -91 1575 -91 
Q 1294 -91 989 -36 
Q 684 19 347 128 
L 347 722 
Q 666 556 975 473 
Q 1284 391 1588 391 
Q 1994 391 2212 530 
Q 2431 669 2431 922 
Q 2431 1156 2273 1281 
Q 2116 1406 1581 1522 
L 1381 1569 
Q 847 1681 609 1914 
Q 372 2147 372 2553 
Q 372 3047 722 3315 
Q 1072 3584 1716 3584 
Q 2034 3584 2315 3537 
Q 2597 3491 2834 3397 
z
" transform="scale(0.015625)"/>
       <path id="DejaVuSans-c" d="M 513 4856 
L 1013 4856 
Q 1481 4119 1714 3412 
Q 1947 2706 1947 2009 
Q 1947 1309 1714 600 
Q 1481 -109 1013 -844 
L 513 -844 
Q 928 -128 1133 580 
Q 1338 1288 1338 2009 
Q 1338 2731 1133 3434 
Q 928 4138 513 4856 
z
" transform="scale(0.015625)"/>
      </defs>
      <use xlink:href="#DejaVuSans-35"/>
      <use xlink:href="#DejaVuSans-58" transform="translate(65 0)"/>
      <use xlink:href="#DejaVuSans-51" transform="translate(128.375 0)"/>
      <use xlink:href="#DejaVuSans-57" transform="translate(191.75 0)"/>
      <use xlink:href="#DejaVuSans-4c" transform="translate(230.953125 0)"/>
      <use xlink:href="#DejaVuSans-50" transform="translate(258.734375 0)"/>
      <use xlink:href="#DejaVuSans-48" transform="translate(356.140625 0)"/>
      <use xlink:href="#DejaVuSans-3" transform="translate(417.671875 0)"/>
      <use xlink:href="#DejaVuSans-b" transform="translate(449.453125 0)"/>
      <use xlink:href="#DejaVuSans-50" transform="translate(488.46875 0)"/>
      <use xlink:href="#DejaVuSans-56" transform="translate(585.875 0)"/>
      <use xlink:href="#DejaVuSans-c" transform="translate(637.96875 0)"/>
     </g>
    </g>
   </g>
   <g id="line2d_23">
    <path d="M 272.55957 170.595664 
" clip-path="url(#p2e50efee83)" style="fill: none; stroke: #7f8c8d; stroke-width: 2; stroke-linecap: square"/>
    <defs>
     <path id="m665b823525" d="M 0 4 
C 1.060812 4 2.078319 3.578535 2.828427 2.828427 
C 3.578535 2.078319 4 1.060812 4 0 
C 4 -1.060812 3.578535 -2.078319 2.828427 -2.828427 
C 2.078319 -3.578535 1.060812 -4 0 -4 
C -1.060812 -4 -2.078319 -3.578535 -2.828427 -2.828427 
C -3.578535 -2.078319 -4 -1.060812 -4 0 
C -4 1.060812 -3.578535 2.078319 -2.828427 2.828427 
C -2.078319 3.578535 -1.060812 4 0 4 
z
" style="stroke: #7f8c8d"/>
    </defs>
    <g clip-path="url(#p2e50efee83)">
     <use xlink:href="#m665b823525" x="272.55957" y="170.595664" style="fill: #7f8c8d; stroke: #7f8c8d"/>
    </g>
   </g>
   <g id="patch_3">
    <path d="M 54.650859 318.873203 
L 54.650859 22.318125 
" style="fill: none; stroke: #000000; stroke-width: 0.8; stroke-linejoin: miter; stroke-linecap: square"/>
   </g>
   <g id="patch_4">
    <path d="M 490.468281 318.873203 
L 490.468281 22.318125 
" style="fill: none; stroke: #000000; stroke-width: 0.8; stroke-linejoin: miter; stroke-linecap: square"/>
   </g>
   <g id="patch_5">
    <path d="M 54.650859 318.873203 
L 490.468281 318.873203 
" style="fill: none; stroke: #000000; stroke-width: 0.8; stroke-linejoin: miter; stroke-linecap: square"/>
   </g>
   <g id="patch_6">
    <path d="M 54.650859 22.318125 
L 490.468281 22.318125 
" style="fill: none; stroke: #000000; stroke-width: 0.8; stroke-linejoin: miter; stroke-linecap: square"/>
   </g>
   <g id="text_14">
    <!-- Iscas85 Scaling -->
    <g transform="translate(220.534883 16.318125) scale(0.12 -0.12)">
     <defs>
      <path id="DejaVuSans-Bold-2c" d="M 588 4666 
L 1791 4666 
L 1791 0 
L 588 0 
L 588 4666 
z
" transform="scale(0.015625)"/>
      <path id="DejaVuSans-Bold-56" d="M 3272 3391 
L 3272 2541 
Q 2913 2691 2578 2766 
Q 2244 2841 1947 2841 
Q 1628 2841 1473 2761 
Q 1319 2681 1319 2516 
Q 1319 2381 1436 2309 
Q 1553 2238 1856 2203 
L 2053 2175 
Q 2913 2066 3209 1816 
Q 3506 1566 3506 1031 
Q 3506 472 3093 190 
Q 2681 -91 1863 -91 
Q 1516 -91 1145 -36 
Q 775 19 384 128 
L 384 978 
Q 719 816 1070 734 
Q 1422 653 1784 653 
Q 2113 653 2278 743 
Q 2444 834 2444 1013 
Q 2444 1163 2330 1236 
Q 2216 1309 1875 1350 
L 1678 1375 
Q 931 1469 631 1722 
Q 331 1975 331 2491 
Q 331 3047 712 3315 
Q 1094 3584 1881 3584 
Q 2191 3584 2531 3537 
Q 2872 3491 3272 3391 
z
" transform="scale(0.015625)"/>
      <path id="DejaVuSans-Bold-46" d="M 3366 3391 
L 3366 2478 
Q 3138 2634 2908 2709 
Q 2678 2784 2431 2784 
Q 1963 2784 1702 2511 
Q 1441 2238 1441 1747 
Q 1441 1256 1702 982 
Q 1963 709 2431 709 
Q 2694 709 2930 787 
Q 3166 866 3366 1019 
L 3366 103 
Q 3103 6 2833 -42 
Q 2563 -91 2291 -91 
Q 1344 -91 809 395 
Q 275 881 275 1747 
Q 275 2613 809 3098 
Q 1344 3584 2291 3584 
Q 2566 3584 2833 3536 
Q 3100 3488 3366 3391 
z
" transform="scale(0.015625)"/>
      <path id="DejaVuSans-Bold-44" d="M 2106 1575 
Q 1756 1575 1579 1456 
Q 1403 1338 1403 1106 
Q 1403 894 1545 773 
Q 1688 653 1941 653 
Q 2256 653 2472 879 
Q 2688 1106 2688 1447 
L 2688 1575 
L 2106 1575 
z
M 3816 1997 
L 3816 0 
L 2688 0 
L 2688 519 
Q 2463 200 2181 54 
Q 1900 -91 1497 -91 
Q 953 -91 614 226 
Q 275 544 275 1050 
Q 275 1666 698 1953 
Q 1122 2241 2028 2241 
L 2688 2241 
L 2688 2328 
Q 2688 2594 2478 2717 
Q 2269 2841 1825 2841 
Q 1466 2841 1156 2769 
Q 847 2697 581 2553 
L 581 3406 
Q 941 3494 1303 3539 
Q 1666 3584 2028 3584 
Q 2975 3584 3395 3211 
Q 3816 2838 3816 1997 
z
" transform="scale(0.015625)"/>
      <path id="DejaVuSans-Bold-1b" d="M 2228 2088 
Q 1891 2088 1709 1903 
Q 1528 1719 1528 1375 
Q 1528 1031 1709 848 
Q 1891 666 2228 666 
Q 2563 666 2741 848 
Q 2919 1031 2919 1375 
Q 2919 1722 2741 1905 
Q 2563 2088 2228 2088 
z
M 1350 2484 
Q 925 2613 709 2878 
Q 494 3144 494 3541 
Q 494 4131 934 4440 
Q 1375 4750 2228 4750 
Q 3075 4750 3515 4442 
Q 3956 4134 3956 3541 
Q 3956 3144 3739 2878 
Q 3522 2613 3097 2484 
Q 3572 2353 3814 2058 
Q 4056 1763 4056 1313 
Q 4056 619 3595 264 
Q 3134 -91 2228 -91 
Q 1319 -91 855 264 
Q 391 619 391 1313 
Q 391 1763 633 2058 
Q 875 2353 1350 2484 
z
M 1631 3419 
Q 1631 3141 1786 2991 
Q 1941 2841 2228 2841 
Q 2509 2841 2662 2991 
Q 2816 3141 2816 3419 
Q 2816 3697 2662 3845 
Q 2509 3994 2228 3994 
Q 1941 3994 1786 3844 
Q 1631 3694 1631 3419 
z
" transform="scale(0.015625)"/>
      <path id="DejaVuSans-Bold-18" d="M 678 4666 
L 3669 4666 
L 3669 3781 
L 1638 3781 
L 1638 3059 
Q 1775 3097 1914 3117 
Q 2053 3138 2203 3138 
Q 3056 3138 3531 2711 
Q 4006 2284 4006 1522 
Q 4006 766 3489 337 
Q 2972 -91 2053 -91 
Q 1656 -91 1267 -14 
Q 878 63 494 219 
L 494 1166 
Q 875 947 1217 837 
Q 1559 728 1863 728 
Q 2300 728 2551 942 
Q 2803 1156 2803 1522 
Q 2803 1891 2551 2103 
Q 2300 2316 1863 2316 
Q 1603 2316 1309 2248 
Q 1016 2181 678 2041 
L 678 4666 
z
" transform="scale(0.015625)"/>
      <path id="DejaVuSans-Bold-3" transform="scale(0.015625)"/>
      <path id="DejaVuSans-Bold-36" d="M 3834 4519 
L 3834 3531 
Q 3450 3703 3084 3790 
Q 2719 3878 2394 3878 
Q 1963 3878 1756 3759 
Q 1550 3641 1550 3391 
Q 1550 3203 1689 3098 
Q 1828 2994 2194 2919 
L 2706 2816 
Q 3484 2659 3812 2340 
Q 4141 2022 4141 1434 
Q 4141 663 3683 286 
Q 3225 -91 2284 -91 
Q 1841 -91 1394 -6 
Q 947 78 500 244 
L 500 1259 
Q 947 1022 1364 901 
Q 1781 781 2169 781 
Q 2563 781 2772 912 
Q 2981 1044 2981 1288 
Q 2981 1506 2839 1625 
Q 2697 1744 2272 1838 
L 1806 1941 
Q 1106 2091 782 2419 
Q 459 2747 459 3303 
Q 459 4000 909 4375 
Q 1359 4750 2203 4750 
Q 2588 4750 2994 4692 
Q 3400 4634 3834 4519 
z
" transform="scale(0.015625)"/>
      <path id="DejaVuSans-Bold-4f" d="M 538 4863 
L 1656 4863 
L 1656 0 
L 538 0 
L 538 4863 
z
" transform="scale(0.015625)"/>
      <path id="DejaVuSans-Bold-4c" d="M 538 3500 
L 1656 3500 
L 1656 0 
L 538 0 
L 538 3500 
z
M 538 4863 
L 1656 4863 
L 1656 3950 
L 538 3950 
L 538 4863 
z
" transform="scale(0.015625)"/>
      <path id="DejaVuSans-Bold-51" d="M 4056 2131 
L 4056 0 
L 2931 0 
L 2931 347 
L 2931 1631 
Q 2931 2084 2911 2256 
Q 2891 2428 2841 2509 
Q 2775 2619 2662 2680 
Q 2550 2741 2406 2741 
Q 2056 2741 1856 2470 
Q 1656 2200 1656 1722 
L 1656 0 
L 538 0 
L 538 3500 
L 1656 3500 
L 1656 2988 
Q 1909 3294 2193 3439 
Q 2478 3584 2822 3584 
Q 3428 3584 3742 3212 
Q 4056 2841 4056 2131 
z
" transform="scale(0.015625)"/>
      <path id="DejaVuSans-Bold-4a" d="M 2919 594 
Q 2688 288 2409 144 
Q 2131 0 1766 0 
Q 1125 0 706 504 
Q 288 1009 288 1791 
Q 288 2575 706 3076 
Q 1125 3578 1766 3578 
Q 2131 3578 2409 3434 
Q 2688 3291 2919 2981 
L 2919 3500 
L 4044 3500 
L 4044 353 
Q 4044 -491 3511 -936 
Q 2978 -1381 1966 -1381 
Q 1638 -1381 1331 -1331 
Q 1025 -1281 716 -1178 
L 716 -306 
Q 1009 -475 1290 -558 
Q 1572 -641 1856 -641 
Q 2406 -641 2662 -400 
Q 2919 -159 2919 353 
L 2919 594 
z
M 2181 2772 
Q 1834 2772 1640 2515 
Q 1447 2259 1447 1791 
Q 1447 1309 1634 1061 
Q 1822 813 2181 813 
Q 2531 813 2725 1069 
Q 2919 1325 2919 1791 
Q 2919 2259 2725 2515 
Q 2531 2772 2181 2772 
z
" transform="scale(0.015625)"/>
     </defs>
     <use xlink:href="#DejaVuSans-Bold-2c"/>
     <use xlink:href="#DejaVuSans-Bold-56" transform="translate(37.203125 0)"/>
     <use xlink:href="#DejaVuSans-Bold-46" transform="translate(96.71875 0)"/>
     <use xlink:href="#DejaVuSans-Bold-44" transform="translate(156 0)"/>
     <use xlink:href="#DejaVuSans-Bold-56" transform="translate(223.484375 0)"/>
     <use xlink:href="#DejaVuSans-Bold-1b" transform="translate(283 0)"/>
     <use xlink:href="#DejaVuSans-Bold-18" transform="translate(352.578125 0)"/>
     <use xlink:href="#DejaVuSans-Bold-3" transform="translate(422.15625 0)"/>
     <use xlink:href="#DejaVuSans-Bold-36" transform="translate(456.96875 0)"/>
     <use xlink:href="#DejaVuSans-Bold-46" transform="translate(528.984375 0)"/>
     <use xlink:href="#DejaVuSans-Bold-44" transform="translate(588.265625 0)"/>
     <use xlink:href="#DejaVuSans-Bold-4f" transform="translate(655.75 0)"/>
     <use xlink:href="#DejaVuSans-Bold-4c" transform="translate(690.03125 0)"/>
     <use xlink:href="#DejaVuSans-Bold-51" transform="translate(724.3125 0)"/>
     <use xlink:href="#DejaVuSans-Bold-4a" transform="translate(795.5 0)"/>
    </g>
   </g>
   <g id="legend_1">
    <g id="patch_7">
     <path d="M 479.468281 35.318125 
L 483.468281 35.318125 
Q 485.468281 35.318125 485.468281 33.318125 
L 485.468281 29.318125 
Q 485.468281 27.318125 483.468281 27.318125 
L 479.468281 27.318125 
Q 477.468281 27.318125 477.468281 29.318125 
L 477.468281 33.318125 
Q 477.468281 35.318125 479.468281 35.318125 
z
" style="fill: #ffffff; opacity: 0.8; stroke: #cccccc; stroke-linejoin: miter"/>
    </g>
   </g>
  </g>
  <g id="axes_2">
   <g id="patch_8">
    <path d="M 549.230859 318.873203 
L 985.048281 318.873203 
L 985.048281 22.318125 
L 549.230859 22.318125 
z
" style="fill: #ffffff"/>
   </g>
   <g id="matplotlib.axis_3">
    <g id="xtick_6">
     <g id="line2d_24">
      <path d="M 606.184272 318.873203 
L 606.184272 22.318125 
" clip-path="url(#pce2713ccca)" style="fill: none; stroke: #b0b0b0; stroke-opacity: 0.3; stroke-width: 0.8; stroke-linecap: square"/>
     </g>
     <g id="line2d_25">
      <g>
       <use xlink:href="#m732898a300" x="606.184272" y="318.873203" style="stroke: #000000; stroke-width: 0.8"/>
      </g>
     </g>
     <g id="text_15">
      <!-- 10 -->
      <g transform="translate(599.821772 333.470859) scale(0.1 -0.1)">
       <use xlink:href="#DejaVuSans-14"/>
       <use xlink:href="#DejaVuSans-13" transform="translate(63.625 0)"/>
      </g>
     </g>
    </g>
    <g id="xtick_7">
     <g id="line2d_26">
      <path d="M 668.090156 318.873203 
L 668.090156 22.318125 
" clip-path="url(#pce2713ccca)" style="fill: none; stroke: #b0b0b0; stroke-opacity: 0.3; stroke-width: 0.8; stroke-linecap: square"/>
     </g>
     <g id="line2d_27">
      <g>
       <use xlink:href="#m732898a300" x="668.090156" y="318.873203" style="stroke: #000000; stroke-width: 0.8"/>
      </g>
     </g>
     <g id="text_16">
      <!-- 15 -->
      <g transform="translate(661.727656 333.470859) scale(0.1 -0.1)">
       <use xlink:href="#DejaVuSans-14"/>
       <use xlink:href="#DejaVuSans-18" transform="translate(63.625 0)"/>
      </g>
     </g>
    </g>
    <g id="xtick_8">
     <g id="line2d_28">
      <path d="M 729.99604 318.873203 
L 729.99604 22.318125 
" clip-path="url(#pce2713ccca)" style="fill: none; stroke: #b0b0b0; stroke-opacity: 0.3; stroke-width: 0.8; stroke-linecap: square"/>
     </g>
     <g id="line2d_29">
      <g>
       <use xlink:href="#m732898a300" x="729.99604" y="318.873203" style="stroke: #000000; stroke-width: 0.8"/>
      </g>
     </g>
     <g id="text_17">
      <!-- 20 -->
      <g transform="translate(723.63354 333.470859) scale(0.1 -0.1)">
       <use xlink:href="#DejaVuSans-15"/>
       <use xlink:href="#DejaVuSans-13" transform="translate(63.625 0)"/>
      </g>
     </g>
    </g>
    <g id="xtick_9">
     <g id="line2d_30">
      <path d="M 791.901924 318.873203 
L 791.901924 22.318125 
" clip-path="url(#pce2713ccca)" style="fill: none; stroke: #b0b0b0; stroke-opacity: 0.3; stroke-width: 0.8; stroke-linecap: square"/>
     </g>
     <g id="line2d_31">
      <g>
       <use xlink:href="#m732898a300" x="791.901924" y="318.873203" style="stroke: #000000; stroke-width: 0.8"/>
      </g>
     </g>
     <g id="text_18">
      <!-- 25 -->
      <g transform="translate(785.539424 333.470859) scale(0.1 -0.1)">
       <use xlink:href="#DejaVuSans-15"/>
       <use xlink:href="#DejaVuSans-18" transform="translate(63.625 0)"/>
      </g>
     </g>
    </g>
    <g id="xtick_10">
     <g id="line2d_32">
      <path d="M 853.807808 318.873203 
L 853.807808 22.318125 
" clip-path="url(#pce2713ccca)" style="fill: none; stroke: #b0b0b0; stroke-opacity: 0.3; stroke-width: 0.8; stroke-linecap: square"/>
     </g>
     <g id="line2d_33">
      <g>
       <use xlink:href="#m732898a300" x="853.807808" y="318.873203" style="stroke: #000000; stroke-width: 0.8"/>
      </g>
     </g>
     <g id="text_19">
      <!-- 30 -->
      <g transform="translate(847.445308 333.470859) scale(0.1 -0.1)">
       <defs>
        <path id="DejaVuSans-16" d="M 2597 2516 
Q 3050 2419 3304 2112 
Q 3559 1806 3559 1356 
Q 3559 666 3084 287 
Q 2609 -91 1734 -91 
Q 1441 -91 1130 -33 
Q 819 25 488 141 
L 488 750 
Q 750 597 1062 519 
Q 1375 441 1716 441 
Q 2309 441 2620 675 
Q 2931 909 2931 1356 
Q 2931 1769 2642 2001 
Q 2353 2234 1838 2234 
L 1294 2234 
L 1294 2753 
L 1863 2753 
Q 2328 2753 2575 2939 
Q 2822 3125 2822 3475 
Q 2822 3834 2567 4026 
Q 2313 4219 1838 4219 
Q 1578 4219 1281 4162 
Q 984 4106 628 3988 
L 628 4550 
Q 988 4650 1302 4700 
Q 1616 4750 1894 4750 
Q 2613 4750 3031 4423 
Q 3450 4097 3450 3541 
Q 3450 3153 3228 2886 
Q 3006 2619 2597 2516 
z
" transform="scale(0.015625)"/>
       </defs>
       <use xlink:href="#DejaVuSans-16"/>
       <use xlink:href="#DejaVuSans-13" transform="translate(63.625 0)"/>
      </g>
     </g>
    </g>
    <g id="xtick_11">
     <g id="line2d_34">
      <path d="M 915.713691 318.873203 
L 915.713691 22.318125 
" clip-path="url(#pce2713ccca)" style="fill: none; stroke: #b0b0b0; stroke-opacity: 0.3; stroke-width: 0.8; stroke-linecap: square"/>
     </g>
     <g id="line2d_35">
      <g>
       <use xlink:href="#m732898a300" x="915.713691" y="318.873203" style="stroke: #000000; stroke-width: 0.8"/>
      </g>
     </g>
     <g id="text_20">
      <!-- 35 -->
      <g transform="translate(909.351191 333.470859) scale(0.1 -0.1)">
       <use xlink:href="#DejaVuSans-16"/>
       <use xlink:href="#DejaVuSans-18" transform="translate(63.625 0)"/>
      </g>
     </g>
    </g>
    <g id="xtick_12">
     <g id="line2d_36">
      <path d="M 977.619575 318.873203 
L 977.619575 22.318125 
" clip-path="url(#pce2713ccca)" style="fill: none; stroke: #b0b0b0; stroke-opacity: 0.3; stroke-width: 0.8; stroke-linecap: square"/>
     </g>
     <g id="line2d_37">
      <g>
       <use xlink:href="#m732898a300" x="977.619575" y="318.873203" style="stroke: #000000; stroke-width: 0.8"/>
      </g>
     </g>
     <g id="text_21">
      <!-- 40 -->
      <g transform="translate(971.257075 333.470859) scale(0.1 -0.1)">
       <use xlink:href="#DejaVuSans-17"/>
       <use xlink:href="#DejaVuSans-13" transform="translate(63.625 0)"/>
      </g>
     </g>
    </g>
    <g id="text_22">
     <!-- Circuit Size -->
     <g transform="translate(736.398867 348.231484) scale(0.11 -0.11)">
      <use xlink:href="#DejaVuSans-26"/>
      <use xlink:href="#DejaVuSans-4c" transform="translate(69.828125 0)"/>
      <use xlink:href="#DejaVuSans-55" transform="translate(97.609375 0)"/>
      <use xlink:href="#DejaVuSans-46" transform="translate(136.515625 0)"/>
      <use xlink:href="#DejaVuSans-58" transform="translate(191.5 0)"/>
      <use xlink:href="#DejaVuSans-4c" transform="translate(254.875 0)"/>
      <use xlink:href="#DejaVuSans-57" transform="translate(282.65625 0)"/>
      <use xlink:href="#DejaVuSans-3" transform="translate(321.859375 0)"/>
      <use xlink:href="#DejaVuSans-36" transform="translate(353.640625 0)"/>
      <use xlink:href="#DejaVuSans-4c" transform="translate(417.125 0)"/>
      <use xlink:href="#DejaVuSans-5d" transform="translate(444.90625 0)"/>
      <use xlink:href="#DejaVuSans-48" transform="translate(497.390625 0)"/>
     </g>
    </g>
   </g>
   <g id="matplotlib.axis_4">
    <g id="ytick_7">
     <g id="line2d_38">
      <path d="M 549.230859 284.857246 
L 985.048281 284.857246 
" clip-path="url(#pce2713ccca)" style="fill: none; stroke: #b0b0b0; stroke-opacity: 0.3; stroke-width: 0.8; stroke-linecap: square"/>
     </g>
     <g id="line2d_39">
      <g>
       <use xlink:href="#mfd735fa13b" x="549.230859" y="284.857246" style="stroke: #000000; stroke-width: 0.8"/>
      </g>
     </g>
     <g id="text_23">
      <!-- 1100 -->
      <g transform="translate(516.780859 288.656074) scale(0.1 -0.1)">
       <use xlink:href="#DejaVuSans-14"/>
       <use xlink:href="#DejaVuSans-14" transform="translate(63.625 0)"/>
       <use xlink:href="#DejaVuSans-13" transform="translate(127.25 0)"/>
       <use xlink:href="#DejaVuSans-13" transform="translate(190.875 0)"/>
      </g>
     </g>
    </g>
    <g id="ytick_8">
     <g id="line2d_40">
      <path d="M 549.230859 228.788542 
L 985.048281 228.788542 
" clip-path="url(#pce2713ccca)" style="fill: none; stroke: #b0b0b0; stroke-opacity: 0.3; stroke-width: 0.8; stroke-linecap: square"/>
     </g>
     <g id="line2d_41">
      <g>
       <use xlink:href="#mfd735fa13b" x="549.230859" y="228.788542" style="stroke: #000000; stroke-width: 0.8"/>
      </g>
     </g>
     <g id="text_24">
      <!-- 1110 -->
      <g transform="translate(516.780859 232.58737) scale(0.1 -0.1)">
       <use xlink:href="#DejaVuSans-14"/>
       <use xlink:href="#DejaVuSans-14" transform="translate(63.625 0)"/>
       <use xlink:href="#DejaVuSans-14" transform="translate(127.25 0)"/>
       <use xlink:href="#DejaVuSans-13" transform="translate(190.875 0)"/>
      </g>
     </g>
    </g>
    <g id="ytick_9">
     <g id="line2d_42">
      <path d="M 549.230859 172.719838 
L 985.048281 172.719838 
" clip-path="url(#pce2713ccca)" style="fill: none; stroke: #b0b0b0; stroke-opacity: 0.3; stroke-width: 0.8; stroke-linecap: square"/>
     </g>
     <g id="line2d_43">
      <g>
       <use xlink:href="#mfd735fa13b" x="549.230859" y="172.719838" style="stroke: #000000; stroke-width: 0.8"/>
      </g>
     </g>
     <g id="text_25">
      <!-- 1120 -->
      <g transform="translate(516.780859 176.518666) scale(0.1 -0.1)">
       <use xlink:href="#DejaVuSans-14"/>
       <use xlink:href="#DejaVuSans-14" transform="translate(63.625 0)"/>
       <use xlink:href="#DejaVuSans-15" transform="translate(127.25 0)"/>
       <use xlink:href="#DejaVuSans-13" transform="translate(190.875 0)"/>
      </g>
     </g>
    </g>
    <g id="ytick_10">
     <g id="line2d_44">
      <path d="M 549.230859 116.651133 
L 985.048281 116.651133 
" clip-path="url(#pce2713ccca)" style="fill: none; stroke: #b0b0b0; stroke-opacity: 0.3; stroke-width: 0.8; stroke-linecap: square"/>
     </g>
     <g id="line2d_45">
      <g>
       <use xlink:href="#mfd735fa13b" x="549.230859" y="116.651133" style="stroke: #000000; stroke-width: 0.8"/>
      </g>
     </g>
     <g id="text_26">
      <!-- 1130 -->
      <g transform="translate(516.780859 120.449961) scale(0.1 -0.1)">
       <use xlink:href="#DejaVuSans-14"/>
       <use xlink:href="#DejaVuSans-14" transform="translate(63.625 0)"/>
       <use xlink:href="#DejaVuSans-16" transform="translate(127.25 0)"/>
       <use xlink:href="#DejaVuSans-13" transform="translate(190.875 0)"/>
      </g>
     </g>
    </g>
    <g id="ytick_11">
     <g id="line2d_46">
      <path d="M 549.230859 60.582429 
L 985.048281 60.582429 
" clip-path="url(#pce2713ccca)" style="fill: none; stroke: #b0b0b0; stroke-opacity: 0.3; stroke-width: 0.8; stroke-linecap: square"/>
     </g>
     <g id="line2d_47">
      <g>
       <use xlink:href="#mfd735fa13b" x="549.230859" y="60.582429" style="stroke: #000000; stroke-width: 0.8"/>
      </g>
     </g>
     <g id="text_27">
      <!-- 1140 -->
      <g transform="translate(516.780859 64.381257) scale(0.1 -0.1)">
       <use xlink:href="#DejaVuSans-14"/>
       <use xlink:href="#DejaVuSans-14" transform="translate(63.625 0)"/>
       <use xlink:href="#DejaVuSans-17" transform="translate(127.25 0)"/>
       <use xlink:href="#DejaVuSans-13" transform="translate(190.875 0)"/>
      </g>
     </g>
    </g>
    <g id="text_28">
     <!-- Runtime (ms) -->
     <g transform="translate(510.138281 207.829805) rotate(-90) scale(0.11 -0.11)">
      <use xlink:href="#DejaVuSans-35"/>
      <use xlink:href="#DejaVuSans-58" transform="translate(65 0)"/>
      <use xlink:href="#DejaVuSans-51" transform="translate(128.375 0)"/>
      <use xlink:href="#DejaVuSans-57" transform="translate(191.75 0)"/>
      <use xlink:href="#DejaVuSans-4c" transform="translate(230.953125 0)"/>
      <use xlink:href="#DejaVuSans-50" transform="translate(258.734375 0)"/>
      <use xlink:href="#DejaVuSans-48" transform="translate(356.140625 0)"/>
      <use xlink:href="#DejaVuSans-3" transform="translate(417.671875 0)"/>
      <use xlink:href="#DejaVuSans-b" transform="translate(449.453125 0)"/>
      <use xlink:href="#DejaVuSans-50" transform="translate(488.46875 0)"/>
      <use xlink:href="#DejaVuSans-56" transform="translate(585.875 0)"/>
      <use xlink:href="#DejaVuSans-c" transform="translate(637.96875 0)"/>
     </g>
    </g>
   </g>
   <g id="line2d_48">
    <path d="M 569.040742 284.249545 
L 569.040742 248.823483 
L 569.040742 305.393427 
L 569.040742 244.302486 
L 569.040742 140.532104 
L 618.565449 226.644931 
L 618.565449 291.811721 
L 618.565449 194.850906 
L 618.565449 171.788742 
L 618.565449 100.474092 
L 668.090156 218.477193 
L 668.090156 131.515508 
L 668.090156 230.250233 
L 668.090156 117.373691 
L 668.090156 53.708108 
L 717.614863 213.357318 
L 717.614863 42.877499 
L 717.614863 35.797901 
L 717.614863 163.630361 
L 717.614863 244.779717 
L 767.13957 192.617144 
L 767.13957 266.414198 
L 767.13957 200.775525 
L 767.13957 213.972237 
L 767.13957 298.327197 
L 816.664277 189.855352 
L 816.664277 285.083697 
L 816.664277 181.889467 
L 816.664277 180.99115 
L 816.664277 206.295098 
L 866.188984 64.601545 
L 866.188984 226.837428 
L 866.188984 241.53 
L 866.188984 239.471355 
L 866.188984 190.944829 
L 915.713691 218.933036 
L 915.713691 280.308711 
L 915.713691 134.103519 
L 915.713691 233.794042 
L 915.713691 173.645532 
L 965.238398 128.313915 
L 965.238398 224.158517 
L 965.238398 192.913909 
L 965.238398 214.795695 
L 965.238398 178.638413 
" clip-path="url(#pce2713ccca)" style="fill: none; stroke: #7f8c8d; stroke-width: 2; stroke-linecap: square"/>
    <g clip-path="url(#pce2713ccca)">
     <use xlink:href="#m665b823525" x="569.040742" y="284.249545" style="fill: #7f8c8d; stroke: #7f8c8d"/>
     <use xlink:href="#m665b823525" x="569.040742" y="248.823483" style="fill: #7f8c8d; stroke: #7f8c8d"/>
     <use xlink:href="#m665b823525" x="569.040742" y="305.393427" style="fill: #7f8c8d; stroke: #7f8c8d"/>
     <use xlink:href="#m665b823525" x="569.040742" y="244.302486" style="fill: #7f8c8d; stroke: #7f8c8d"/>
     <use xlink:href="#m665b823525" x="569.040742" y="140.532104" style="fill: #7f8c8d; stroke: #7f8c8d"/>
     <use xlink:href="#m665b823525" x="618.565449" y="226.644931" style="fill: #7f8c8d; stroke: #7f8c8d"/>
     <use xlink:href="#m665b823525" x="618.565449" y="291.811721" style="fill: #7f8c8d; stroke: #7f8c8d"/>
     <use xlink:href="#m665b823525" x="618.565449" y="194.850906" style="fill: #7f8c8d; stroke: #7f8c8d"/>
     <use xlink:href="#m665b823525" x="618.565449" y="171.788742" style="fill: #7f8c8d; stroke: #7f8c8d"/>
     <use xlink:href="#m665b823525" x="618.565449" y="100.474092" style="fill: #7f8c8d; stroke: #7f8c8d"/>
     <use xlink:href="#m665b823525" x="668.090156" y="218.477193" style="fill: #7f8c8d; stroke: #7f8c8d"/>
     <use xlink:href="#m665b823525" x="668.090156" y="131.515508" style="fill: #7f8c8d; stroke: #7f8c8d"/>
     <use xlink:href="#m665b823525" x="668.090156" y="230.250233" style="fill: #7f8c8d; stroke: #7f8c8d"/>
     <use xlink:href="#m665b823525" x="668.090156" y="117.373691" style="fill: #7f8c8d; stroke: #7f8c8d"/>
     <use xlink:href="#m665b823525" x="668.090156" y="53.708108" style="fill: #7f8c8d; stroke: #7f8c8d"/>
     <use xlink:href="#m665b823525" x="717.614863" y="213.357318" style="fill: #7f8c8d; stroke: #7f8c8d"/>
     <use xlink:href="#m665b823525" x="717.614863" y="42.877499" style="fill: #7f8c8d; stroke: #7f8c8d"/>
     <use xlink:href="#m665b823525" x="717.614863" y="35.797901" style="fill: #7f8c8d; stroke: #7f8c8d"/>
     <use xlink:href="#m665b823525" x="717.614863" y="163.630361" style="fill: #7f8c8d; stroke: #7f8c8d"/>
     <use xlink:href="#m665b823525" x="717.614863" y="244.779717" style="fill: #7f8c8d; stroke: #7f8c8d"/>
     <use xlink:href="#m665b823525" x="767.13957" y="192.617144" style="fill: #7f8c8d; stroke: #7f8c8d"/>
     <use xlink:href="#m665b823525" x="767.13957" y="266.414198" style="fill: #7f8c8d; stroke: #7f8c8d"/>
     <use xlink:href="#m665b823525" x="767.13957" y="200.775525" style="fill: #7f8c8d; stroke: #7f8c8d"/>
     <use xlink:href="#m665b823525" x="767.13957" y="213.972237" style="fill: #7f8c8d; stroke: #7f8c8d"/>
     <use xlink:href="#m665b823525" x="767.13957" y="298.327197" style="fill: #7f8c8d; stroke: #7f8c8d"/>
     <use xlink:href="#m665b823525" x="816.664277" y="189.855352" style="fill: #7f8c8d; stroke: #7f8c8d"/>
     <use xlink:href="#m665b823525" x="816.664277" y="285.083697" style="fill: #7f8c8d; stroke: #7f8c8d"/>
     <use xlink:href="#m665b823525" x="816.664277" y="181.889467" style="fill: #7f8c8d; stroke: #7f8c8d"/>
     <use xlink:href="#m665b823525" x="816.664277" y="180.99115" style="fill: #7f8c8d; stroke: #7f8c8d"/>
     <use xlink:href="#m665b823525" x="816.664277" y="206.295098" style="fill: #7f8c8d; stroke: #7f8c8d"/>
     <use xlink:href="#m665b823525" x="866.188984" y="64.601545" style="fill: #7f8c8d; stroke: #7f8c8d"/>
     <use xlink:href="#m665b823525" x="866.188984" y="226.837428" style="fill: #7f8c8d; stroke: #7f8c8d"/>
     <use xlink:href="#m665b823525" x="866.188984" y="241.53" style="fill: #7f8c8d; stroke: #7f8c8d"/>
     <use xlink:href="#m665b823525" x="866.188984" y="239.471355" style="fill: #7f8c8d; stroke: #7f8c8d"/>
     <use xlink:href="#m665b823525" x="866.188984" y="190.944829" style="fill: #7f8c8d; stroke: #7f8c8d"/>
     <use xlink:href="#m665b823525" x="915.713691" y="218.933036" style="fill: #7f8c8d; stroke: #7f8c8d"/>
     <use xlink:href="#m665b823525" x="915.713691" y="280.308711" style="fill: #7f8c8d; stroke: #7f8c8d"/>
     <use xlink:href="#m665b823525" x="915.713691" y="134.103519" style="fill: #7f8c8d; stroke: #7f8c8d"/>
     <use xlink:href="#m665b823525" x="915.713691" y="233.794042" style="fill: #7f8c8d; stroke: #7f8c8d"/>
     <use xlink:href="#m665b823525" x="915.713691" y="173.645532" style="fill: #7f8c8d; stroke: #7f8c8d"/>
     <use xlink:href="#m665b823525" x="965.238398" y="128.313915" style="fill: #7f8c8d; stroke: #7f8c8d"/>
     <use xlink:href="#m665b823525" x="965.238398" y="224.158517" style="fill: #7f8c8d; stroke: #7f8c8d"/>
     <use xlink:href="#m665b823525" x="965.238398" y="192.913909" style="fill: #7f8c8d; stroke: #7f8c8d"/>
     <use xlink:href="#m665b823525" x="965.238398" y="214.795695" style="fill: #7f8c8d; stroke: #7f8c8d"/>
     <use xlink:href="#m665b823525" x="965.238398" y="178.638413" style="fill: #7f8c8d; stroke: #7f8c8d"/>
    </g>
   </g>
   <g id="line2d_49">
    <path d="M 569.040742 207.415846 
L 570.557558 207.235366 
L 572.10092 207.05488 
L 573.671293 206.874388 
L 575.269149 206.693892 
L 576.894971 206.51339 
L 578.549246 206.332883 
L 580.232474 206.152371 
L 581.945161 205.971854 
L 583.687822 205.791332 
L 585.460982 205.610804 
L 587.265174 205.430271 
L 589.100943 205.249733 
L 590.96884 205.069189 
L 592.869428 204.888641 
L 594.803279 204.708087 
L 596.770975 204.527528 
L 598.773109 204.346963 
L 600.810282 204.166394 
L 602.883109 203.985819 
L 604.992214 203.805239 
L 607.13823 203.624654 
L 609.321805 203.444064 
L 611.543596 203.263468 
L 613.804271 203.082867 
L 616.104511 202.902261 
L 618.445008 202.72165 
L 620.826468 202.541034 
L 623.249606 202.360412 
L 625.715153 202.179785 
L 628.22385 201.999153 
L 630.776453 201.818516 
L 633.37373 201.637873 
L 636.016463 201.457225 
L 638.705447 201.276572 
L 641.441493 201.095914 
L 644.225423 200.915251 
L 647.058076 200.734582 
L 649.940304 200.553908 
L 652.872975 200.373229 
L 655.856972 200.192545 
L 658.893193 200.011855 
L 661.982553 199.83116 
L 665.12598 199.65046 
L 668.324422 199.469755 
L 671.578841 199.289045 
L 674.890217 199.108329 
L 678.259547 198.927608 
L 681.687844 198.746882 
L 685.176142 198.566151 
L 688.72549 198.385414 
L 692.336956 198.204673 
L 696.011628 198.023926 
L 699.750612 197.843173 
L 703.555033 197.662416 
L 707.426037 197.481653 
L 711.36479 197.300885 
L 715.372475 197.120112 
L 719.450301 196.939334 
L 723.599495 196.75855 
L 727.821305 196.577761 
L 732.117003 196.396967 
L 736.487881 196.216168 
L 740.935257 196.035364 
L 745.460467 195.854554 
L 750.064875 195.673739 
L 754.749866 195.492919 
L 759.516852 195.312094 
L 764.367266 195.131263 
L 769.302569 194.950427 
L 774.324247 194.769586 
L 779.433812 194.58874 
L 784.632801 194.407888 
L 789.92278 194.227032 
L 795.30534 194.04617 
L 800.782103 193.865303 
L 806.354717 193.68443 
L 812.02486 193.503552 
L 817.794238 193.32267 
L 823.664588 193.141782 
L 829.637678 192.960888 
L 835.715305 192.77999 
L 841.899299 192.599086 
L 848.191521 192.418177 
L 854.593866 192.237263 
L 861.108262 192.056343 
L 867.736668 191.875419 
L 874.481081 191.694489 
L 881.34353 191.513553 
L 888.326082 191.332613 
L 895.430838 191.151668 
L 902.659938 190.970717 
L 910.015557 190.789761 
L 917.499909 190.608799 
L 925.115248 190.427833 
L 932.863866 190.246861 
L 940.748096 190.065884 
L 948.770311 189.884902 
L 956.932926 189.703914 
L 965.238398 189.522922 
" clip-path="url(#pce2713ccca)" style="fill: none; stroke-dasharray: 7.4,3.2; stroke-dashoffset: 0; stroke: #7f8c8d; stroke-opacity: 0.5; stroke-width: 2"/>
   </g>
   <g id="patch_9">
    <path d="M 549.230859 318.873203 
L 549.230859 22.318125 
" style="fill: none; stroke: #000000; stroke-width: 0.8; stroke-linejoin: miter; stroke-linecap: square"/>
   </g>
   <g id="patch_10">
    <path d="M 985.048281 318.873203 
L 985.048281 22.318125 
" style="fill: none; stroke: #000000; stroke-width: 0.8; stroke-linejoin: miter; stroke-linecap: square"/>
   </g>
   <g id="patch_11">
    <path d="M 549.230859 318.873203 
L 985.048281 318.873203 
" style="fill: none; stroke: #000000; stroke-width: 0.8; stroke-linejoin: miter; stroke-linecap: square"/>
   </g>
   <g id="patch_12">
    <path d="M 549.230859 22.318125 
L 985.048281 22.318125 
" style="fill: none; stroke: #000000; stroke-width: 0.8; stroke-linejoin: miter; stroke-linecap: square"/>
   </g>
   <g id="text_29">
    <!-- Target_and Scaling -->
    <g transform="translate(703.26957 16.318125) scale(0.12 -0.12)">
     <defs>
      <path id="DejaVuSans-Bold-37" d="M 31 4666 
L 4331 4666 
L 4331 3756 
L 2784 3756 
L 2784 0 
L 1581 0 
L 1581 3756 
L 31 3756 
L 31 4666 
z
" transform="scale(0.015625)"/>
      <path id="DejaVuSans-Bold-55" d="M 3138 2547 
Q 2991 2616 2845 2648 
Q 2700 2681 2553 2681 
Q 2122 2681 1889 2404 
Q 1656 2128 1656 1613 
L 1656 0 
L 538 0 
L 538 3500 
L 1656 3500 
L 1656 2925 
Q 1872 3269 2151 3426 
Q 2431 3584 2822 3584 
Q 2878 3584 2943 3579 
Q 3009 3575 3134 3559 
L 3138 2547 
z
" transform="scale(0.015625)"/>
      <path id="DejaVuSans-Bold-48" d="M 4031 1759 
L 4031 1441 
L 1416 1441 
Q 1456 1047 1700 850 
Q 1944 653 2381 653 
Q 2734 653 3104 758 
Q 3475 863 3866 1075 
L 3866 213 
Q 3469 63 3072 -14 
Q 2675 -91 2278 -91 
Q 1328 -91 801 392 
Q 275 875 275 1747 
Q 275 2603 792 3093 
Q 1309 3584 2216 3584 
Q 3041 3584 3536 3087 
Q 4031 2591 4031 1759 
z
M 2881 2131 
Q 2881 2450 2695 2645 
Q 2509 2841 2209 2841 
Q 1884 2841 1681 2658 
Q 1478 2475 1428 2131 
L 2881 2131 
z
" transform="scale(0.015625)"/>
      <path id="DejaVuSans-Bold-57" d="M 1759 4494 
L 1759 3500 
L 2913 3500 
L 2913 2700 
L 1759 2700 
L 1759 1216 
Q 1759 972 1856 886 
Q 1953 800 2241 800 
L 2816 800 
L 2816 0 
L 1856 0 
Q 1194 0 917 276 
Q 641 553 641 1216 
L 641 2700 
L 84 2700 
L 84 3500 
L 641 3500 
L 641 4494 
L 1759 4494 
z
" transform="scale(0.015625)"/>
      <path id="DejaVuSans-Bold-42" d="M 3200 -916 
L 3200 -1509 
L 0 -1509 
L 0 -916 
L 3200 -916 
z
" transform="scale(0.015625)"/>
      <path id="DejaVuSans-Bold-47" d="M 2919 2988 
L 2919 4863 
L 4044 4863 
L 4044 0 
L 2919 0 
L 2919 506 
Q 2688 197 2409 53 
Q 2131 -91 1766 -91 
Q 1119 -91 703 423 
Q 288 938 288 1747 
Q 288 2556 703 3070 
Q 1119 3584 1766 3584 
Q 2128 3584 2408 3439 
Q 2688 3294 2919 2988 
z
M 2181 722 
Q 2541 722 2730 984 
Q 2919 1247 2919 1747 
Q 2919 2247 2730 2509 
Q 2541 2772 2181 2772 
Q 1825 2772 1636 2509 
Q 1447 2247 1447 1747 
Q 1447 1247 1636 984 
Q 1825 722 2181 722 
z
" transform="scale(0.015625)"/>
     </defs>
     <use xlink:href="#DejaVuSans-Bold-37"/>
     <use xlink:href="#DejaVuSans-Bold-44" transform="translate(55.328125 0)"/>
     <use xlink:href="#DejaVuSans-Bold-55" transform="translate(122.8125 0)"/>
     <use xlink:href="#DejaVuSans-Bold-4a" transform="translate(172.125 0)"/>
     <use xlink:href="#DejaVuSans-Bold-48" transform="translate(243.703125 0)"/>
     <use xlink:href="#DejaVuSans-Bold-57" transform="translate(311.53125 0)"/>
     <use xlink:href="#DejaVuSans-Bold-42" transform="translate(359.328125 0)"/>
     <use xlink:href="#DejaVuSans-Bold-44" transform="translate(409.328125 0)"/>
     <use xlink:href="#DejaVuSans-Bold-51" transform="translate(476.8125 0)"/>
     <use xlink:href="#DejaVuSans-Bold-47" transform="translate(548 0)"/>
     <use xlink:href="#DejaVuSans-Bold-3" transform="translate(619.578125 0)"/>
     <use xlink:href="#DejaVuSans-Bold-36" transform="translate(654.390625 0)"/>
     <use xlink:href="#DejaVuSans-Bold-46" transform="translate(726.40625 0)"/>
     <use xlink:href="#DejaVuSans-Bold-44" transform="translate(785.6875 0)"/>
     <use xlink:href="#DejaVuSans-Bold-4f" transform="translate(853.171875 0)"/>
     <use xlink:href="#DejaVuSans-Bold-4c" transform="translate(887.453125 0)"/>
     <use xlink:href="#DejaVuSans-Bold-51" transform="translate(921.734375 0)"/>
     <use xlink:href="#DejaVuSans-Bold-4a" transform="translate(992.921875 0)"/>
    </g>
   </g>
   <g id="legend_2">
    <g id="patch_13">
     <path d="M 905.099844 45.318906 
L 978.048281 45.318906 
Q 980.048281 45.318906 980.048281 43.318906 
L 980.048281 29.318125 
Q 980.048281 27.318125 978.048281 27.318125 
L 905.099844 27.318125 
Q 903.099844 27.318125 903.099844 29.318125 
L 903.099844 43.318906 
Q 903.099844 45.318906 905.099844 45.318906 
z
" style="fill: #ffffff; opacity: 0.8; stroke: #cccccc; stroke-linejoin: miter"/>
    </g>
    <g id="line2d_50">
     <path d="M 907.099844 35.416562 
L 917.099844 35.416562 
L 927.099844 35.416562 
" style="fill: none; stroke-dasharray: 7.4,3.2; stroke-dashoffset: 0; stroke: #7f8c8d; stroke-opacity: 0.5; stroke-width: 2"/>
    </g>
    <g id="text_30">
     <!-- Fit (exp) -->
     <g transform="translate(935.099844 38.916562) scale(0.1 -0.1)">
      <defs>
       <path id="DejaVuSans-29" d="M 628 4666 
L 3309 4666 
L 3309 4134 
L 1259 4134 
L 1259 2759 
L 3109 2759 
L 3109 2228 
L 1259 2228 
L 1259 0 
L 628 0 
L 628 4666 
z
" transform="scale(0.015625)"/>
       <path id="DejaVuSans-5b" d="M 3513 3500 
L 2247 1797 
L 3578 0 
L 2900 0 
L 1881 1375 
L 863 0 
L 184 0 
L 1544 1831 
L 300 3500 
L 978 3500 
L 1906 2253 
L 2834 3500 
L 3513 3500 
z
" transform="scale(0.015625)"/>
       <path id="DejaVuSans-53" d="M 1159 525 
L 1159 -1331 
L 581 -1331 
L 581 3500 
L 1159 3500 
L 1159 2969 
Q 1341 3281 1617 3432 
Q 1894 3584 2278 3584 
Q 2916 3584 3314 3078 
Q 3713 2572 3713 1747 
Q 3713 922 3314 415 
Q 2916 -91 2278 -91 
Q 1894 -91 1617 61 
Q 1341 213 1159 525 
z
M 3116 1747 
Q 3116 2381 2855 2742 
Q 2594 3103 2138 3103 
Q 1681 3103 1420 2742 
Q 1159 2381 1159 1747 
Q 1159 1113 1420 752 
Q 1681 391 2138 391 
Q 2594 391 2855 752 
Q 3116 1113 3116 1747 
z
" transform="scale(0.015625)"/>
      </defs>
      <use xlink:href="#DejaVuSans-29"/>
      <use xlink:href="#DejaVuSans-4c" transform="translate(50.234375 0)"/>
      <use xlink:href="#DejaVuSans-57" transform="translate(78.015625 0)"/>
      <use xlink:href="#DejaVuSans-3" transform="translate(117.21875 0)"/>
      <use xlink:href="#DejaVuSans-b" transform="translate(149 0)"/>
      <use xlink:href="#DejaVuSans-48" transform="translate(188.015625 0)"/>
      <use xlink:href="#DejaVuSans-5b" transform="translate(247.796875 0)"/>
      <use xlink:href="#DejaVuSans-53" transform="translate(306.984375 0)"/>
      <use xlink:href="#DejaVuSans-c" transform="translate(370.46875 0)"/>
     </g>
    </g>
   </g>
  </g>
  <g id="axes_3">
   <g id="patch_14">
    <path d="M 54.650859 673.473203 
L 490.468281 673.473203 
L 490.468281 376.918125 
L 54.650859 376.918125 
z
" style="fill: #ffffff"/>
   </g>
   <g id="matplotlib.axis_5">
    <g id="xtick_13">
     <g id="line2d_51">
      <path d="M 118.482704 673.473203 
L 118.482704 376.918125 
" clip-path="url(#p3f809cab38)" style="fill: none; stroke: #b0b0b0; stroke-opacity: 0.3; stroke-width: 0.8; stroke-linecap: square"/>
     </g>
     <g id="line2d_52">
      <g>
       <use xlink:href="#m732898a300" x="118.482704" y="673.473203" style="stroke: #000000; stroke-width: 0.8"/>
      </g>
     </g>
     <g id="text_31">
      <!-- 30 -->
      <g transform="translate(112.120204 688.070859) scale(0.1 -0.1)">
       <use xlink:href="#DejaVuSans-16"/>
       <use xlink:href="#DejaVuSans-13" transform="translate(63.625 0)"/>
      </g>
     </g>
    </g>
    <g id="xtick_14">
     <g id="line2d_53">
      <path d="M 191.85264 673.473203 
L 191.85264 376.918125 
" clip-path="url(#p3f809cab38)" style="fill: none; stroke: #b0b0b0; stroke-opacity: 0.3; stroke-width: 0.8; stroke-linecap: square"/>
     </g>
     <g id="line2d_54">
      <g>
       <use xlink:href="#m732898a300" x="191.85264" y="673.473203" style="stroke: #000000; stroke-width: 0.8"/>
      </g>
     </g>
     <g id="text_32">
      <!-- 35 -->
      <g transform="translate(185.49014 688.070859) scale(0.1 -0.1)">
       <use xlink:href="#DejaVuSans-16"/>
       <use xlink:href="#DejaVuSans-18" transform="translate(63.625 0)"/>
      </g>
     </g>
    </g>
    <g id="xtick_15">
     <g id="line2d_55">
      <path d="M 265.222577 673.473203 
L 265.222577 376.918125 
" clip-path="url(#p3f809cab38)" style="fill: none; stroke: #b0b0b0; stroke-opacity: 0.3; stroke-width: 0.8; stroke-linecap: square"/>
     </g>
     <g id="line2d_56">
      <g>
       <use xlink:href="#m732898a300" x="265.222577" y="673.473203" style="stroke: #000000; stroke-width: 0.8"/>
      </g>
     </g>
     <g id="text_33">
      <!-- 40 -->
      <g transform="translate(258.860077 688.070859) scale(0.1 -0.1)">
       <use xlink:href="#DejaVuSans-17"/>
       <use xlink:href="#DejaVuSans-13" transform="translate(63.625 0)"/>
      </g>
     </g>
    </g>
    <g id="xtick_16">
     <g id="line2d_57">
      <path d="M 338.592513 673.473203 
L 338.592513 376.918125 
" clip-path="url(#p3f809cab38)" style="fill: none; stroke: #b0b0b0; stroke-opacity: 0.3; stroke-width: 0.8; stroke-linecap: square"/>
     </g>
     <g id="line2d_58">
      <g>
       <use xlink:href="#m732898a300" x="338.592513" y="673.473203" style="stroke: #000000; stroke-width: 0.8"/>
      </g>
     </g>
     <g id="text_34">
      <!-- 45 -->
      <g transform="translate(332.230013 688.070859) scale(0.1 -0.1)">
       <use xlink:href="#DejaVuSans-17"/>
       <use xlink:href="#DejaVuSans-18" transform="translate(63.625 0)"/>
      </g>
     </g>
    </g>
    <g id="xtick_17">
     <g id="line2d_59">
      <path d="M 411.962449 673.473203 
L 411.962449 376.918125 
" clip-path="url(#p3f809cab38)" style="fill: none; stroke: #b0b0b0; stroke-opacity: 0.3; stroke-width: 0.8; stroke-linecap: square"/>
     </g>
     <g id="line2d_60">
      <g>
       <use xlink:href="#m732898a300" x="411.962449" y="673.473203" style="stroke: #000000; stroke-width: 0.8"/>
      </g>
     </g>
     <g id="text_35">
      <!-- 50 -->
      <g transform="translate(405.599949 688.070859) scale(0.1 -0.1)">
       <use xlink:href="#DejaVuSans-18"/>
       <use xlink:href="#DejaVuSans-13" transform="translate(63.625 0)"/>
      </g>
     </g>
    </g>
    <g id="xtick_18">
     <g id="line2d_61">
      <path d="M 485.332386 673.473203 
L 485.332386 376.918125 
" clip-path="url(#p3f809cab38)" style="fill: none; stroke: #b0b0b0; stroke-opacity: 0.3; stroke-width: 0.8; stroke-linecap: square"/>
     </g>
     <g id="line2d_62">
      <g>
       <use xlink:href="#m732898a300" x="485.332386" y="673.473203" style="stroke: #000000; stroke-width: 0.8"/>
      </g>
     </g>
     <g id="text_36">
      <!-- 55 -->
      <g transform="translate(478.969886 688.070859) scale(0.1 -0.1)">
       <use xlink:href="#DejaVuSans-18"/>
       <use xlink:href="#DejaVuSans-18" transform="translate(63.625 0)"/>
      </g>
     </g>
    </g>
    <g id="text_37">
     <!-- Circuit Size -->
     <g transform="translate(241.818867 702.831484) scale(0.11 -0.11)">
      <use xlink:href="#DejaVuSans-26"/>
      <use xlink:href="#DejaVuSans-4c" transform="translate(69.828125 0)"/>
      <use xlink:href="#DejaVuSans-55" transform="translate(97.609375 0)"/>
      <use xlink:href="#DejaVuSans-46" transform="translate(136.515625 0)"/>
      <use xlink:href="#DejaVuSans-58" transform="translate(191.5 0)"/>
      <use xlink:href="#DejaVuSans-4c" transform="translate(254.875 0)"/>
      <use xlink:href="#DejaVuSans-57" transform="translate(282.65625 0)"/>
      <use xlink:href="#DejaVuSans-3" transform="translate(321.859375 0)"/>
      <use xlink:href="#DejaVuSans-36" transform="translate(353.640625 0)"/>
      <use xlink:href="#DejaVuSans-4c" transform="translate(417.125 0)"/>
      <use xlink:href="#DejaVuSans-5d" transform="translate(444.90625 0)"/>
      <use xlink:href="#DejaVuSans-48" transform="translate(497.390625 0)"/>
     </g>
    </g>
   </g>
   <g id="matplotlib.axis_6">
    <g id="ytick_12">
     <g id="line2d_63">
      <path d="M 54.650859 651.04535 
L 490.468281 651.04535 
" clip-path="url(#p3f809cab38)" style="fill: none; stroke: #b0b0b0; stroke-opacity: 0.3; stroke-width: 0.8; stroke-linecap: square"/>
     </g>
     <g id="line2d_64">
      <g>
       <use xlink:href="#mfd735fa13b" x="54.650859" y="651.04535" style="stroke: #000000; stroke-width: 0.8"/>
      </g>
     </g>
     <g id="text_38">
      <!-- 1080 -->
      <g transform="translate(22.200859 654.844178) scale(0.1 -0.1)">
       <use xlink:href="#DejaVuSans-14"/>
       <use xlink:href="#DejaVuSans-13" transform="translate(63.625 0)"/>
       <use xlink:href="#DejaVuSans-1b" transform="translate(127.25 0)"/>
       <use xlink:href="#DejaVuSans-13" transform="translate(190.875 0)"/>
      </g>
     </g>
    </g>
    <g id="ytick_13">
     <g id="line2d_65">
      <path d="M 54.650859 613.820828 
L 490.468281 613.820828 
" clip-path="url(#p3f809cab38)" style="fill: none; stroke: #b0b0b0; stroke-opacity: 0.3; stroke-width: 0.8; stroke-linecap: square"/>
     </g>
     <g id="line2d_66">
      <g>
       <use xlink:href="#mfd735fa13b" x="54.650859" y="613.820828" style="stroke: #000000; stroke-width: 0.8"/>
      </g>
     </g>
     <g id="text_39">
      <!-- 1090 -->
      <g transform="translate(22.200859 617.619656) scale(0.1 -0.1)">
       <use xlink:href="#DejaVuSans-14"/>
       <use xlink:href="#DejaVuSans-13" transform="translate(63.625 0)"/>
       <use xlink:href="#DejaVuSans-1c" transform="translate(127.25 0)"/>
       <use xlink:href="#DejaVuSans-13" transform="translate(190.875 0)"/>
      </g>
     </g>
    </g>
    <g id="ytick_14">
     <g id="line2d_67">
      <path d="M 54.650859 576.596305 
L 490.468281 576.596305 
" clip-path="url(#p3f809cab38)" style="fill: none; stroke: #b0b0b0; stroke-opacity: 0.3; stroke-width: 0.8; stroke-linecap: square"/>
     </g>
     <g id="line2d_68">
      <g>
       <use xlink:href="#mfd735fa13b" x="54.650859" y="576.596305" style="stroke: #000000; stroke-width: 0.8"/>
      </g>
     </g>
     <g id="text_40">
      <!-- 1100 -->
      <g transform="translate(22.200859 580.395134) scale(0.1 -0.1)">
       <use xlink:href="#DejaVuSans-14"/>
       <use xlink:href="#DejaVuSans-14" transform="translate(63.625 0)"/>
       <use xlink:href="#DejaVuSans-13" transform="translate(127.25 0)"/>
       <use xlink:href="#DejaVuSans-13" transform="translate(190.875 0)"/>
      </g>
     </g>
    </g>
    <g id="ytick_15">
     <g id="line2d_69">
      <path d="M 54.650859 539.371783 
L 490.468281 539.371783 
" clip-path="url(#p3f809cab38)" style="fill: none; stroke: #b0b0b0; stroke-opacity: 0.3; stroke-width: 0.8; stroke-linecap: square"/>
     </g>
     <g id="line2d_70">
      <g>
       <use xlink:href="#mfd735fa13b" x="54.650859" y="539.371783" style="stroke: #000000; stroke-width: 0.8"/>
      </g>
     </g>
     <g id="text_41">
      <!-- 1110 -->
      <g transform="translate(22.200859 543.170611) scale(0.1 -0.1)">
       <use xlink:href="#DejaVuSans-14"/>
       <use xlink:href="#DejaVuSans-14" transform="translate(63.625 0)"/>
       <use xlink:href="#DejaVuSans-14" transform="translate(127.25 0)"/>
       <use xlink:href="#DejaVuSans-13" transform="translate(190.875 0)"/>
      </g>
     </g>
    </g>
    <g id="ytick_16">
     <g id="line2d_71">
      <path d="M 54.650859 502.147261 
L 490.468281 502.147261 
" clip-path="url(#p3f809cab38)" style="fill: none; stroke: #b0b0b0; stroke-opacity: 0.3; stroke-width: 0.8; stroke-linecap: square"/>
     </g>
     <g id="line2d_72">
      <g>
       <use xlink:href="#mfd735fa13b" x="54.650859" y="502.147261" style="stroke: #000000; stroke-width: 0.8"/>
      </g>
     </g>
     <g id="text_42">
      <!-- 1120 -->
      <g transform="translate(22.200859 505.946089) scale(0.1 -0.1)">
       <use xlink:href="#DejaVuSans-14"/>
       <use xlink:href="#DejaVuSans-14" transform="translate(63.625 0)"/>
       <use xlink:href="#DejaVuSans-15" transform="translate(127.25 0)"/>
       <use xlink:href="#DejaVuSans-13" transform="translate(190.875 0)"/>
      </g>
     </g>
    </g>
    <g id="ytick_17">
     <g id="line2d_73">
      <path d="M 54.650859 464.922739 
L 490.468281 464.922739 
" clip-path="url(#p3f809cab38)" style="fill: none; stroke: #b0b0b0; stroke-opacity: 0.3; stroke-width: 0.8; stroke-linecap: square"/>
     </g>
     <g id="line2d_74">
      <g>
       <use xlink:href="#mfd735fa13b" x="54.650859" y="464.922739" style="stroke: #000000; stroke-width: 0.8"/>
      </g>
     </g>
     <g id="text_43">
      <!-- 1130 -->
      <g transform="translate(22.200859 468.721567) scale(0.1 -0.1)">
       <use xlink:href="#DejaVuSans-14"/>
       <use xlink:href="#DejaVuSans-14" transform="translate(63.625 0)"/>
       <use xlink:href="#DejaVuSans-16" transform="translate(127.25 0)"/>
       <use xlink:href="#DejaVuSans-13" transform="translate(190.875 0)"/>
      </g>
     </g>
    </g>
    <g id="ytick_18">
     <g id="line2d_75">
      <path d="M 54.650859 427.698216 
L 490.468281 427.698216 
" clip-path="url(#p3f809cab38)" style="fill: none; stroke: #b0b0b0; stroke-opacity: 0.3; stroke-width: 0.8; stroke-linecap: square"/>
     </g>
     <g id="line2d_76">
      <g>
       <use xlink:href="#mfd735fa13b" x="54.650859" y="427.698216" style="stroke: #000000; stroke-width: 0.8"/>
      </g>
     </g>
     <g id="text_44">
      <!-- 1140 -->
      <g transform="translate(22.200859 431.497044) scale(0.1 -0.1)">
       <use xlink:href="#DejaVuSans-14"/>
       <use xlink:href="#DejaVuSans-14" transform="translate(63.625 0)"/>
       <use xlink:href="#DejaVuSans-17" transform="translate(127.25 0)"/>
       <use xlink:href="#DejaVuSans-13" transform="translate(190.875 0)"/>
      </g>
     </g>
    </g>
    <g id="ytick_19">
     <g id="line2d_77">
      <path d="M 54.650859 390.473694 
L 490.468281 390.473694 
" clip-path="url(#p3f809cab38)" style="fill: none; stroke: #b0b0b0; stroke-opacity: 0.3; stroke-width: 0.8; stroke-linecap: square"/>
     </g>
     <g id="line2d_78">
      <g>
       <use xlink:href="#mfd735fa13b" x="54.650859" y="390.473694" style="stroke: #000000; stroke-width: 0.8"/>
      </g>
     </g>
     <g id="text_45">
      <!-- 1150 -->
      <g transform="translate(22.200859 394.272522) scale(0.1 -0.1)">
       <use xlink:href="#DejaVuSans-14"/>
       <use xlink:href="#DejaVuSans-14" transform="translate(63.625 0)"/>
       <use xlink:href="#DejaVuSans-18" transform="translate(127.25 0)"/>
       <use xlink:href="#DejaVuSans-13" transform="translate(190.875 0)"/>
      </g>
     </g>
    </g>
    <g id="text_46">
     <!-- Runtime (ms) -->
     <g transform="translate(15.558281 562.429805) rotate(-90) scale(0.11 -0.11)">
      <use xlink:href="#DejaVuSans-35"/>
      <use xlink:href="#DejaVuSans-58" transform="translate(65 0)"/>
      <use xlink:href="#DejaVuSans-51" transform="translate(128.375 0)"/>
      <use xlink:href="#DejaVuSans-57" transform="translate(191.75 0)"/>
      <use xlink:href="#DejaVuSans-4c" transform="translate(230.953125 0)"/>
      <use xlink:href="#DejaVuSans-50" transform="translate(258.734375 0)"/>
      <use xlink:href="#DejaVuSans-48" transform="translate(356.140625 0)"/>
      <use xlink:href="#DejaVuSans-3" transform="translate(417.671875 0)"/>
      <use xlink:href="#DejaVuSans-b" transform="translate(449.453125 0)"/>
      <use xlink:href="#DejaVuSans-50" transform="translate(488.46875 0)"/>
      <use xlink:href="#DejaVuSans-56" transform="translate(585.875 0)"/>
      <use xlink:href="#DejaVuSans-c" transform="translate(637.96875 0)"/>
     </g>
    </g>
   </g>
   <g id="line2d_79">
    <path d="M 74.460742 479.658392 
L 74.460742 549.433781 
L 74.460742 514.893987 
L 74.460742 419.092609 
L 74.460742 457.958086 
L 118.482704 576.820311 
L 118.482704 393.201519 
L 118.482704 473.543505 
L 118.482704 523.325254 
L 118.482704 486.673206 
L 162.504666 487.816308 
L 162.504666 558.046098 
L 162.504666 526.51671 
L 162.504666 596.214887 
L 162.504666 589.970425 
L 191.85264 469.229359 
L 191.85264 552.378512 
L 191.85264 574.044205 
L 191.85264 550.374533 
L 191.85264 464.422649 
L 235.874602 552.410462 
L 235.874602 538.340897 
L 235.874602 511.15583 
L 235.874602 554.775654 
L 235.874602 529.691304 
L 265.222577 547.641915 
L 265.222577 526.31081 
L 265.222577 491.986679 
L 265.222577 483.4569 
L 265.222577 527.809801 
L 294.570551 536.720318 
L 294.570551 544.298696 
L 294.570551 540.378601 
L 294.570551 522.176827 
L 294.570551 390.397901 
L 323.918526 585.864841 
L 323.918526 483.957451 
L 323.918526 460.975592 
L 323.918526 457.798336 
L 323.918526 481.663258 
L 367.940488 524.945832 
L 367.940488 409.534214 
L 367.940488 440.303013 
L 367.940488 557.549097 
L 367.940488 525.494308 
L 397.288462 468.89477 
L 397.288462 591.686853 
L 397.288462 543.173344 
L 397.288462 526.234485 
L 397.288462 531.914496 
L 441.310424 455.10033 
L 441.310424 557.50206 
L 441.310424 570.915762 
L 441.310424 659.993427 
L 441.310424 527.923401 
L 470.658398 575.458883 
L 470.658398 528.168351 
L 470.658398 542.40388 
L 470.658398 587.522695 
L 470.658398 541.228827 
" clip-path="url(#p3f809cab38)" style="fill: none; stroke: #7f8c8d; stroke-width: 2; stroke-linecap: square"/>
    <g clip-path="url(#p3f809cab38)">
     <use xlink:href="#m665b823525" x="74.460742" y="479.658392" style="fill: #7f8c8d; stroke: #7f8c8d"/>
     <use xlink:href="#m665b823525" x="74.460742" y="549.433781" style="fill: #7f8c8d; stroke: #7f8c8d"/>
     <use xlink:href="#m665b823525" x="74.460742" y="514.893987" style="fill: #7f8c8d; stroke: #7f8c8d"/>
     <use xlink:href="#m665b823525" x="74.460742" y="419.092609" style="fill: #7f8c8d; stroke: #7f8c8d"/>
     <use xlink:href="#m665b823525" x="74.460742" y="457.958086" style="fill: #7f8c8d; stroke: #7f8c8d"/>
     <use xlink:href="#m665b823525" x="118.482704" y="576.820311" style="fill: #7f8c8d; stroke: #7f8c8d"/>
     <use xlink:href="#m665b823525" x="118.482704" y="393.201519" style="fill: #7f8c8d; stroke: #7f8c8d"/>
     <use xlink:href="#m665b823525" x="118.482704" y="473.543505" style="fill: #7f8c8d; stroke: #7f8c8d"/>
     <use xlink:href="#m665b823525" x="118.482704" y="523.325254" style="fill: #7f8c8d; stroke: #7f8c8d"/>
     <use xlink:href="#m665b823525" x="118.482704" y="486.673206" style="fill: #7f8c8d; stroke: #7f8c8d"/>
     <use xlink:href="#m665b823525" x="162.504666" y="487.816308" style="fill: #7f8c8d; stroke: #7f8c8d"/>
     <use xlink:href="#m665b823525" x="162.504666" y="558.046098" style="fill: #7f8c8d; stroke: #7f8c8d"/>
     <use xlink:href="#m665b823525" x="162.504666" y="526.51671" style="fill: #7f8c8d; stroke: #7f8c8d"/>
     <use xlink:href="#m665b823525" x="162.504666" y="596.214887" style="fill: #7f8c8d; stroke: #7f8c8d"/>
     <use xlink:href="#m665b823525" x="162.504666" y="589.970425" style="fill: #7f8c8d; stroke: #7f8c8d"/>
     <use xlink:href="#m665b823525" x="191.85264" y="469.229359" style="fill: #7f8c8d; stroke: #7f8c8d"/>
     <use xlink:href="#m665b823525" x="191.85264" y="552.378512" style="fill: #7f8c8d; stroke: #7f8c8d"/>
     <use xlink:href="#m665b823525" x="191.85264" y="574.044205" style="fill: #7f8c8d; stroke: #7f8c8d"/>
     <use xlink:href="#m665b823525" x="191.85264" y="550.374533" style="fill: #7f8c8d; stroke: #7f8c8d"/>
     <use xlink:href="#m665b823525" x="191.85264" y="464.422649" style="fill: #7f8c8d; stroke: #7f8c8d"/>
     <use xlink:href="#m665b823525" x="235.874602" y="552.410462" style="fill: #7f8c8d; stroke: #7f8c8d"/>
     <use xlink:href="#m665b823525" x="235.874602" y="538.340897" style="fill: #7f8c8d; stroke: #7f8c8d"/>
     <use xlink:href="#m665b823525" x="235.874602" y="511.15583" style="fill: #7f8c8d; stroke: #7f8c8d"/>
     <use xlink:href="#m665b823525" x="235.874602" y="554.775654" style="fill: #7f8c8d; stroke: #7f8c8d"/>
     <use xlink:href="#m665b823525" x="235.874602" y="529.691304" style="fill: #7f8c8d; stroke: #7f8c8d"/>
     <use xlink:href="#m665b823525" x="265.222577" y="547.641915" style="fill: #7f8c8d; stroke: #7f8c8d"/>
     <use xlink:href="#m665b823525" x="265.222577" y="526.31081" style="fill: #7f8c8d; stroke: #7f8c8d"/>
     <use xlink:href="#m665b823525" x="265.222577" y="491.986679" style="fill: #7f8c8d; stroke: #7f8c8d"/>
     <use xlink:href="#m665b823525" x="265.222577" y="483.4569" style="fill: #7f8c8d; stroke: #7f8c8d"/>
     <use xlink:href="#m665b823525" x="265.222577" y="527.809801" style="fill: #7f8c8d; stroke: #7f8c8d"/>
     <use xlink:href="#m665b823525" x="294.570551" y="536.720318" style="fill: #7f8c8d; stroke: #7f8c8d"/>
     <use xlink:href="#m665b823525" x="294.570551" y="544.298696" style="fill: #7f8c8d; stroke: #7f8c8d"/>
     <use xlink:href="#m665b823525" x="294.570551" y="540.378601" style="fill: #7f8c8d; stroke: #7f8c8d"/>
     <use xlink:href="#m665b823525" x="294.570551" y="522.176827" style="fill: #7f8c8d; stroke: #7f8c8d"/>
     <use xlink:href="#m665b823525" x="294.570551" y="390.397901" style="fill: #7f8c8d; stroke: #7f8c8d"/>
     <use xlink:href="#m665b823525" x="323.918526" y="585.864841" style="fill: #7f8c8d; stroke: #7f8c8d"/>
     <use xlink:href="#m665b823525" x="323.918526" y="483.957451" style="fill: #7f8c8d; stroke: #7f8c8d"/>
     <use xlink:href="#m665b823525" x="323.918526" y="460.975592" style="fill: #7f8c8d; stroke: #7f8c8d"/>
     <use xlink:href="#m665b823525" x="323.918526" y="457.798336" style="fill: #7f8c8d; stroke: #7f8c8d"/>
     <use xlink:href="#m665b823525" x="323.918526" y="481.663258" style="fill: #7f8c8d; stroke: #7f8c8d"/>
     <use xlink:href="#m665b823525" x="367.940488" y="524.945832" style="fill: #7f8c8d; stroke: #7f8c8d"/>
     <use xlink:href="#m665b823525" x="367.940488" y="409.534214" style="fill: #7f8c8d; stroke: #7f8c8d"/>
     <use xlink:href="#m665b823525" x="367.940488" y="440.303013" style="fill: #7f8c8d; stroke: #7f8c8d"/>
     <use xlink:href="#m665b823525" x="367.940488" y="557.549097" style="fill: #7f8c8d; stroke: #7f8c8d"/>
     <use xlink:href="#m665b823525" x="367.940488" y="525.494308" style="fill: #7f8c8d; stroke: #7f8c8d"/>
     <use xlink:href="#m665b823525" x="397.288462" y="468.89477" style="fill: #7f8c8d; stroke: #7f8c8d"/>
     <use xlink:href="#m665b823525" x="397.288462" y="591.686853" style="fill: #7f8c8d; stroke: #7f8c8d"/>
     <use xlink:href="#m665b823525" x="397.288462" y="543.173344" style="fill: #7f8c8d; stroke: #7f8c8d"/>
     <use xlink:href="#m665b823525" x="397.288462" y="526.234485" style="fill: #7f8c8d; stroke: #7f8c8d"/>
     <use xlink:href="#m665b823525" x="397.288462" y="531.914496" style="fill: #7f8c8d; stroke: #7f8c8d"/>
     <use xlink:href="#m665b823525" x="441.310424" y="455.10033" style="fill: #7f8c8d; stroke: #7f8c8d"/>
     <use xlink:href="#m665b823525" x="441.310424" y="557.50206" style="fill: #7f8c8d; stroke: #7f8c8d"/>
     <use xlink:href="#m665b823525" x="441.310424" y="570.915762" style="fill: #7f8c8d; stroke: #7f8c8d"/>
     <use xlink:href="#m665b823525" x="441.310424" y="659.993427" style="fill: #7f8c8d; stroke: #7f8c8d"/>
     <use xlink:href="#m665b823525" x="441.310424" y="527.923401" style="fill: #7f8c8d; stroke: #7f8c8d"/>
     <use xlink:href="#m665b823525" x="470.658398" y="575.458883" style="fill: #7f8c8d; stroke: #7f8c8d"/>
     <use xlink:href="#m665b823525" x="470.658398" y="528.168351" style="fill: #7f8c8d; stroke: #7f8c8d"/>
     <use xlink:href="#m665b823525" x="470.658398" y="542.40388" style="fill: #7f8c8d; stroke: #7f8c8d"/>
     <use xlink:href="#m665b823525" x="470.658398" y="587.522695" style="fill: #7f8c8d; stroke: #7f8c8d"/>
     <use xlink:href="#m665b823525" x="470.658398" y="541.228827" style="fill: #7f8c8d; stroke: #7f8c8d"/>
    </g>
   </g>
   <g id="line2d_80">
    <path d="M 74.460742 498.031845 
L 77.244448 498.422332 
L 80.047713 498.812782 
L 82.870674 499.203196 
L 85.713469 499.593574 
L 88.576237 499.983915 
L 91.45912 500.37422 
L 94.362258 500.764488 
L 97.285793 501.154719 
L 100.229869 501.544914 
L 103.194631 501.935073 
L 106.180223 502.325194 
L 109.186792 502.71528 
L 112.214486 503.105329 
L 115.263452 503.495341 
L 118.33384 503.885317 
L 121.425801 504.275257 
L 124.539486 504.66516 
L 127.675049 505.055026 
L 130.832642 505.444856 
L 134.01242 505.83465 
L 137.214539 506.224407 
L 140.439157 506.614128 
L 143.686432 507.003812 
L 146.956521 507.393459 
L 150.249587 507.783071 
L 153.56579 508.172645 
L 156.905292 508.562184 
L 160.268259 508.951685 
L 163.654853 509.341151 
L 167.065242 509.73058 
L 170.499593 510.119972 
L 173.958073 510.509329 
L 177.440853 510.898648 
L 180.948103 511.287931 
L 184.479995 511.677178 
L 188.036703 512.066389 
L 191.6184 512.455563 
L 195.225262 512.8447 
L 198.857467 513.233801 
L 202.515191 513.622866 
L 206.198615 514.011894 
L 209.907919 514.400886 
L 213.643284 514.789842 
L 217.404895 515.178761 
L 221.192934 515.567644 
L 225.007589 515.95649 
L 228.849046 516.3453 
L 232.717492 516.734074 
L 236.613119 517.122811 
L 240.536117 517.511512 
L 244.486678 517.900176 
L 248.464996 518.288804 
L 252.471265 518.677396 
L 256.505683 519.065952 
L 260.568447 519.454471 
L 264.659756 519.842953 
L 268.779811 520.2314 
L 272.928814 520.61981 
L 277.106967 521.008183 
L 281.314477 521.396521 
L 285.551549 521.784822 
L 289.818391 522.173086 
L 294.115212 522.561314 
L 298.442222 522.949506 
L 302.799635 523.337662 
L 307.187662 523.725781 
L 311.606521 524.113864 
L 316.056426 524.501911 
L 320.537597 524.889922 
L 325.050252 525.277896 
L 329.594614 525.665833 
L 334.170905 526.053735 
L 338.779349 526.4416 
L 343.420172 526.829429 
L 348.093602 527.217222 
L 352.799868 527.604978 
L 357.5392 527.992698 
L 362.311831 528.380382 
L 367.117994 528.768029 
L 371.957926 529.155641 
L 376.831864 529.543216 
L 381.740046 529.930754 
L 386.682714 530.318257 
L 391.660108 530.705723 
L 396.672475 531.093153 
L 401.720058 531.480546 
L 406.803106 531.867904 
L 411.921868 532.255225 
L 417.076594 532.64251 
L 422.267538 533.029759 
L 427.494954 533.416971 
L 432.759098 533.804147 
L 438.060228 534.191287 
L 443.398604 534.578391 
L 448.774488 534.965459 
L 454.188143 535.35249 
L 459.639834 535.739485 
L 465.12983 536.126444 
L 470.658398 536.513367 
" clip-path="url(#p3f809cab38)" style="fill: none; stroke-dasharray: 7.4,3.2; stroke-dashoffset: 0; stroke: #7f8c8d; stroke-opacity: 0.5; stroke-width: 2"/>
   </g>
   <g id="patch_15">
    <path d="M 54.650859 673.473203 
L 54.650859 376.918125 
" style="fill: none; stroke: #000000; stroke-width: 0.8; stroke-linejoin: miter; stroke-linecap: square"/>
   </g>
   <g id="patch_16">
    <path d="M 490.468281 673.473203 
L 490.468281 376.918125 
" style="fill: none; stroke: #000000; stroke-width: 0.8; stroke-linejoin: miter; stroke-linecap: square"/>
   </g>
   <g id="patch_17">
    <path d="M 54.650859 673.473203 
L 490.468281 673.473203 
" style="fill: none; stroke: #000000; stroke-width: 0.8; stroke-linejoin: miter; stroke-linecap: square"/>
   </g>
   <g id="patch_18">
    <path d="M 54.650859 376.918125 
L 490.468281 376.918125 
" style="fill: none; stroke: #000000; stroke-width: 0.8; stroke-linejoin: miter; stroke-linecap: square"/>
   </g>
   <g id="text_47">
    <!-- Target_and_random Scaling -->
    <g transform="translate(179.741445 370.918125) scale(0.12 -0.12)">
     <defs>
      <path id="DejaVuSans-Bold-52" d="M 2203 2784 
Q 1831 2784 1636 2517 
Q 1441 2250 1441 1747 
Q 1441 1244 1636 976 
Q 1831 709 2203 709 
Q 2569 709 2762 976 
Q 2956 1244 2956 1747 
Q 2956 2250 2762 2517 
Q 2569 2784 2203 2784 
z
M 2203 3584 
Q 3106 3584 3614 3096 
Q 4122 2609 4122 1747 
Q 4122 884 3614 396 
Q 3106 -91 2203 -91 
Q 1297 -91 786 396 
Q 275 884 275 1747 
Q 275 2609 786 3096 
Q 1297 3584 2203 3584 
z
" transform="scale(0.015625)"/>
      <path id="DejaVuSans-Bold-50" d="M 3781 2919 
Q 3994 3244 4286 3414 
Q 4578 3584 4928 3584 
Q 5531 3584 5847 3212 
Q 6163 2841 6163 2131 
L 6163 0 
L 5038 0 
L 5038 1825 
Q 5041 1866 5042 1909 
Q 5044 1953 5044 2034 
Q 5044 2406 4934 2573 
Q 4825 2741 4581 2741 
Q 4263 2741 4089 2478 
Q 3916 2216 3909 1719 
L 3909 0 
L 2784 0 
L 2784 1825 
Q 2784 2406 2684 2573 
Q 2584 2741 2328 2741 
Q 2006 2741 1831 2477 
Q 1656 2213 1656 1722 
L 1656 0 
L 531 0 
L 531 3500 
L 1656 3500 
L 1656 2988 
Q 1863 3284 2130 3434 
Q 2397 3584 2719 3584 
Q 3081 3584 3359 3409 
Q 3638 3234 3781 2919 
z
" transform="scale(0.015625)"/>
     </defs>
     <use xlink:href="#DejaVuSans-Bold-37"/>
     <use xlink:href="#DejaVuSans-Bold-44" transform="translate(55.328125 0)"/>
     <use xlink:href="#DejaVuSans-Bold-55" transform="translate(122.8125 0)"/>
     <use xlink:href="#DejaVuSans-Bold-4a" transform="translate(172.125 0)"/>
     <use xlink:href="#DejaVuSans-Bold-48" transform="translate(243.703125 0)"/>
     <use xlink:href="#DejaVuSans-Bold-57" transform="translate(311.53125 0)"/>
     <use xlink:href="#DejaVuSans-Bold-42" transform="translate(359.328125 0)"/>
     <use xlink:href="#DejaVuSans-Bold-44" transform="translate(409.328125 0)"/>
     <use xlink:href="#DejaVuSans-Bold-51" transform="translate(476.8125 0)"/>
     <use xlink:href="#DejaVuSans-Bold-47" transform="translate(548 0)"/>
     <use xlink:href="#DejaVuSans-Bold-42" transform="translate(619.578125 0)"/>
     <use xlink:href="#DejaVuSans-Bold-55" transform="translate(669.578125 0)"/>
     <use xlink:href="#DejaVuSans-Bold-44" transform="translate(718.890625 0)"/>
     <use xlink:href="#DejaVuSans-Bold-51" transform="translate(786.375 0)"/>
     <use xlink:href="#DejaVuSans-Bold-47" transform="translate(857.5625 0)"/>
     <use xlink:href="#DejaVuSans-Bold-52" transform="translate(929.140625 0)"/>
     <use xlink:href="#DejaVuSans-Bold-50" transform="translate(997.84375 0)"/>
     <use xlink:href="#DejaVuSans-Bold-3" transform="translate(1102.046875 0)"/>
     <use xlink:href="#DejaVuSans-Bold-36" transform="translate(1136.859375 0)"/>
     <use xlink:href="#DejaVuSans-Bold-46" transform="translate(1208.875 0)"/>
     <use xlink:href="#DejaVuSans-Bold-44" transform="translate(1268.15625 0)"/>
     <use xlink:href="#DejaVuSans-Bold-4f" transform="translate(1335.640625 0)"/>
     <use xlink:href="#DejaVuSans-Bold-4c" transform="translate(1369.921875 0)"/>
     <use xlink:href="#DejaVuSans-Bold-51" transform="translate(1404.203125 0)"/>
     <use xlink:href="#DejaVuSans-Bold-4a" transform="translate(1475.390625 0)"/>
    </g>
   </g>
   <g id="legend_3">
    <g id="patch_19">
     <path d="M 410.519844 399.918906 
L 483.468281 399.918906 
Q 485.468281 399.918906 485.468281 397.918906 
L 485.468281 383.918125 
Q 485.468281 381.918125 483.468281 381.918125 
L 410.519844 381.918125 
Q 408.519844 381.918125 408.519844 383.918125 
L 408.519844 397.918906 
Q 408.519844 399.918906 410.519844 399.918906 
z
" style="fill: #ffffff; opacity: 0.8; stroke: #cccccc; stroke-linejoin: miter"/>
    </g>
    <g id="line2d_81">
     <path d="M 412.519844 390.016562 
L 422.519844 390.016562 
L 432.519844 390.016562 
" style="fill: none; stroke-dasharray: 7.4,3.2; stroke-dashoffset: 0; stroke: #7f8c8d; stroke-opacity: 0.5; stroke-width: 2"/>
    </g>
    <g id="text_48">
     <!-- Fit (exp) -->
     <g transform="translate(440.519844 393.516562) scale(0.1 -0.1)">
      <use xlink:href="#DejaVuSans-29"/>
      <use xlink:href="#DejaVuSans-4c" transform="translate(50.234375 0)"/>
      <use xlink:href="#DejaVuSans-57" transform="translate(78.015625 0)"/>
      <use xlink:href="#DejaVuSans-3" transform="translate(117.21875 0)"/>
      <use xlink:href="#DejaVuSans-b" transform="translate(149 0)"/>
      <use xlink:href="#DejaVuSans-48" transform="translate(188.015625 0)"/>
      <use xlink:href="#DejaVuSans-5b" transform="translate(247.796875 0)"/>
      <use xlink:href="#DejaVuSans-53" transform="translate(306.984375 0)"/>
      <use xlink:href="#DejaVuSans-c" transform="translate(370.46875 0)"/>
     </g>
    </g>
   </g>
  </g>
  <g id="axes_4">
   <g id="patch_20">
    <path d="M 549.230859 673.473203 
L 985.048281 673.473203 
L 985.048281 376.918125 
L 549.230859 376.918125 
z
" style="fill: #ffffff"/>
   </g>
   <g id="matplotlib.axis_7">
    <g id="xtick_19">
     <g id="line2d_82">
      <g>
       <use xlink:href="#m732898a300" x="549.230859" y="673.473203" style="stroke: #000000; stroke-width: 0.8"/>
      </g>
     </g>
     <g id="text_49">
      <!-- 0.0 -->
      <g transform="translate(541.279297 688.070859) scale(0.1 -0.1)">
       <use xlink:href="#DejaVuSans-13"/>
       <use xlink:href="#DejaVuSans-11" transform="translate(63.625 0)"/>
       <use xlink:href="#DejaVuSans-13" transform="translate(95.40625 0)"/>
      </g>
     </g>
    </g>
    <g id="xtick_20">
     <g id="line2d_83">
      <g>
       <use xlink:href="#m732898a300" x="636.394344" y="673.473203" style="stroke: #000000; stroke-width: 0.8"/>
      </g>
     </g>
     <g id="text_50">
      <!-- 0.2 -->
      <g transform="translate(628.442781 688.070859) scale(0.1 -0.1)">
       <use xlink:href="#DejaVuSans-13"/>
       <use xlink:href="#DejaVuSans-11" transform="translate(63.625 0)"/>
       <use xlink:href="#DejaVuSans-15" transform="translate(95.40625 0)"/>
      </g>
     </g>
    </g>
    <g id="xtick_21">
     <g id="line2d_84">
      <g>
       <use xlink:href="#m732898a300" x="723.557828" y="673.473203" style="stroke: #000000; stroke-width: 0.8"/>
      </g>
     </g>
     <g id="text_51">
      <!-- 0.4 -->
      <g transform="translate(715.606266 688.070859) scale(0.1 -0.1)">
       <use xlink:href="#DejaVuSans-13"/>
       <use xlink:href="#DejaVuSans-11" transform="translate(63.625 0)"/>
       <use xlink:href="#DejaVuSans-17" transform="translate(95.40625 0)"/>
      </g>
     </g>
    </g>
    <g id="xtick_22">
     <g id="line2d_85">
      <g>
       <use xlink:href="#m732898a300" x="810.721313" y="673.473203" style="stroke: #000000; stroke-width: 0.8"/>
      </g>
     </g>
     <g id="text_52">
      <!-- 0.6 -->
      <g transform="translate(802.76975 688.070859) scale(0.1 -0.1)">
       <use xlink:href="#DejaVuSans-13"/>
       <use xlink:href="#DejaVuSans-11" transform="translate(63.625 0)"/>
       <use xlink:href="#DejaVuSans-19" transform="translate(95.40625 0)"/>
      </g>
     </g>
    </g>
    <g id="xtick_23">
     <g id="line2d_86">
      <g>
       <use xlink:href="#m732898a300" x="897.884797" y="673.473203" style="stroke: #000000; stroke-width: 0.8"/>
      </g>
     </g>
     <g id="text_53">
      <!-- 0.8 -->
      <g transform="translate(889.933234 688.070859) scale(0.1 -0.1)">
       <use xlink:href="#DejaVuSans-13"/>
       <use xlink:href="#DejaVuSans-11" transform="translate(63.625 0)"/>
       <use xlink:href="#DejaVuSans-1b" transform="translate(95.40625 0)"/>
      </g>
     </g>
    </g>
    <g id="xtick_24">
     <g id="line2d_87">
      <g>
       <use xlink:href="#m732898a300" x="985.048281" y="673.473203" style="stroke: #000000; stroke-width: 0.8"/>
      </g>
     </g>
     <g id="text_54">
      <!-- 1.0 -->
      <g transform="translate(977.096719 688.070859) scale(0.1 -0.1)">
       <use xlink:href="#DejaVuSans-14"/>
       <use xlink:href="#DejaVuSans-11" transform="translate(63.625 0)"/>
       <use xlink:href="#DejaVuSans-13" transform="translate(95.40625 0)"/>
      </g>
     </g>
    </g>
   </g>
   <g id="matplotlib.axis_8">
    <g id="ytick_20">
     <g id="line2d_88">
      <g>
       <use xlink:href="#mfd735fa13b" x="549.230859" y="673.473203" style="stroke: #000000; stroke-width: 0.8"/>
      </g>
     </g>
     <g id="text_55">
      <!-- 0.0 -->
      <g transform="translate(526.327734 677.272031) scale(0.1 -0.1)">
       <use xlink:href="#DejaVuSans-13"/>
       <use xlink:href="#DejaVuSans-11" transform="translate(63.625 0)"/>
       <use xlink:href="#DejaVuSans-13" transform="translate(95.40625 0)"/>
      </g>
     </g>
    </g>
    <g id="ytick_21">
     <g id="line2d_89">
      <g>
       <use xlink:href="#mfd735fa13b" x="549.230859" y="614.162187" style="stroke: #000000; stroke-width: 0.8"/>
      </g>
     </g>
     <g id="text_56">
      <!-- 0.2 -->
      <g transform="translate(526.327734 617.961016) scale(0.1 -0.1)">
       <use xlink:href="#DejaVuSans-13"/>
       <use xlink:href="#DejaVuSans-11" transform="translate(63.625 0)"/>
       <use xlink:href="#DejaVuSans-15" transform="translate(95.40625 0)"/>
      </g>
     </g>
    </g>
    <g id="ytick_22">
     <g id="line2d_90">
      <g>
       <use xlink:href="#mfd735fa13b" x="549.230859" y="554.851172" style="stroke: #000000; stroke-width: 0.8"/>
      </g>
     </g>
     <g id="text_57">
      <!-- 0.4 -->
      <g transform="translate(526.327734 558.65) scale(0.1 -0.1)">
       <use xlink:href="#DejaVuSans-13"/>
       <use xlink:href="#DejaVuSans-11" transform="translate(63.625 0)"/>
       <use xlink:href="#DejaVuSans-17" transform="translate(95.40625 0)"/>
      </g>
     </g>
    </g>
    <g id="ytick_23">
     <g id="line2d_91">
      <g>
       <use xlink:href="#mfd735fa13b" x="549.230859" y="495.540156" style="stroke: #000000; stroke-width: 0.8"/>
      </g>
     </g>
     <g id="text_58">
      <!-- 0.6 -->
      <g transform="translate(526.327734 499.338984) scale(0.1 -0.1)">
       <use xlink:href="#DejaVuSans-13"/>
       <use xlink:href="#DejaVuSans-11" transform="translate(63.625 0)"/>
       <use xlink:href="#DejaVuSans-19" transform="translate(95.40625 0)"/>
      </g>
     </g>
    </g>
    <g id="ytick_24">
     <g id="line2d_92">
      <g>
       <use xlink:href="#mfd735fa13b" x="549.230859" y="436.229141" style="stroke: #000000; stroke-width: 0.8"/>
      </g>
     </g>
     <g id="text_59">
      <!-- 0.8 -->
      <g transform="translate(526.327734 440.027969) scale(0.1 -0.1)">
       <use xlink:href="#DejaVuSans-13"/>
       <use xlink:href="#DejaVuSans-11" transform="translate(63.625 0)"/>
       <use xlink:href="#DejaVuSans-1b" transform="translate(95.40625 0)"/>
      </g>
     </g>
    </g>
    <g id="ytick_25">
     <g id="line2d_93">
      <g>
       <use xlink:href="#mfd735fa13b" x="549.230859" y="376.918125" style="stroke: #000000; stroke-width: 0.8"/>
      </g>
     </g>
     <g id="text_60">
      <!-- 1.0 -->
      <g transform="translate(526.327734 380.716953) scale(0.1 -0.1)">
       <use xlink:href="#DejaVuSans-14"/>
       <use xlink:href="#DejaVuSans-11" transform="translate(63.625 0)"/>
       <use xlink:href="#DejaVuSans-13" transform="translate(95.40625 0)"/>
      </g>
     </g>
    </g>
   </g>
   <g id="patch_21">
    <path d="M 549.230859 673.473203 
L 549.230859 376.918125 
" style="fill: none; stroke: #000000; stroke-width: 0.8; stroke-linejoin: miter; stroke-linecap: square"/>
   </g>
   <g id="patch_22">
    <path d="M 985.048281 673.473203 
L 985.048281 376.918125 
" style="fill: none; stroke: #000000; stroke-width: 0.8; stroke-linejoin: miter; stroke-linecap: square"/>
   </g>
   <g id="patch_23">
    <path d="M 549.230859 673.473203 
L 985.048281 673.473203 
" style="fill: none; stroke: #000000; stroke-width: 0.8; stroke-linejoin: miter; stroke-linecap: square"/>
   </g>
   <g id="patch_24">
    <path d="M 549.230859 376.918125 
L 985.048281 376.918125 
" style="fill: none; stroke: #000000; stroke-width: 0.8; stroke-linejoin: miter; stroke-linecap: square"/>
   </g>
  </g>
 </g>
 <defs>
  <clipPath id="p2e50efee83">
   <rect x="54.650859" y="22.318125" width="435.817422" height="296.555078"/>
  </clipPath>
  <clipPath id="pce2713ccca">
   <rect x="549.230859" y="22.318125" width="435.817422" height="296.555078"/>
  </clipPath>
  <clipPath id="p3f809cab38">
   <rect x="54.650859" y="376.918125" width="435.817422" height="296.555078"/>
  </clipPath>
 </defs>
</svg>
