<?xml version="1.0" encoding="utf-8" standalone="no"?>
<!DOCTYPE svg PUBLIC "-//W3C//DTD SVG 1.1//EN"
  "http://www.w3.org/Graphics/SVG/1.1/DTD/svg11.dtd">
<svg xmlns:xlink="http://www.w3.org/1999/xlink" width="1000.199844pt" height="712.715781pt" viewBox="0 0 1000.199844 712.715781" xmlns="http://www.w3.org/2000/svg" version="1.1">
 <metadata>
  <rdf:RDF xmlns:dc="http://purl.org/dc/elements/1.1/" xmlns:cc="http://creativecommons.org/ns#" xmlns:rdf="http://www.w3.org/1999/02/22-rdf-syntax-ns#">
   <cc:Work>
    <dc:type rdf:resource="http://purl.org/dc/dcmitype/StillImage"/>
    <dc:date>2026-07-10T08:29:17.281431</dc:date>
    <dc:format>image/svg+xml</dc:format>
    <dc:creator>
     <cc:Agent>
      <dc:title>Matplotlib v3.11.0, https://matplotlib.org/</dc:title>
     </cc:Agent>
    </dc:creator>
   </cc:Work>
  </rdf:RDF>
 </metadata>
 <defs>
  <style type="text/css">*{stroke-linejoin: round; stroke-linecap: butt}</style>
 </defs>
 <g id="figure_1">
  <g id="patch_1">
   <path d="M 0 712.715781 
L 1000.199844 712.715781 
L 1000.199844 0 
L 0 0 
z
" style="fill: #ffffff"/>
  </g>
  <g id="axes_1">
   <g id="patch_2">
    <path d="M 54.650859 332.034492 
L 490.254624 332.034492 
L 490.254624 22.318125 
L 54.650859 22.318125 
z
" style="fill: #ffffff"/>
   </g>
   <g id="matplotlib.axis_1">
    <g id="xtick_1">
     <g id="line2d_1">
      <path d="M 111.576351 332.034492 
L 111.576351 22.318125 
" clip-path="url(#p50206f349e)" style="fill: none; stroke: #b0b0b0; stroke-opacity: 0.3; stroke-width: 0.8; stroke-linecap: square"/>
     </g>
     <g id="line2d_2">
      <defs>
       <path id="m67508d9fed" d="M 0 0 
L 0 3.5 
" style="stroke: #000000; stroke-width: 0.8"/>
      </defs>
      <g>
       <use xlink:href="#m67508d9fed" x="111.576351" y="332.034492" style="stroke: #000000; stroke-width: 0.8"/>
      </g>
     </g>
     <g id="text_1">
      <!-- 10 -->
      <g transform="translate(105.213851 346.632148) scale(0.1 -0.1)">
       <defs>
        <path id="DejaVuSerif-14" d="M 909 0 
L 909 331 
L 1722 331 
L 1722 4213 
L 781 3603 
L 781 4013 
L 1919 4750 
L 2350 4750 
L 2350 331 
L 3163 331 
L 3163 0 
L 909 0 
z
" transform="scale(0.015625)"/>
        <path id="DejaVuSerif-13" d="M 2034 219 
Q 2513 219 2750 744 
Q 2988 1269 2988 2328 
Q 2988 3391 2750 3916 
Q 2513 4441 2034 4441 
Q 1556 4441 1318 3916 
Q 1081 3391 1081 2328 
Q 1081 1269 1318 744 
Q 1556 219 2034 219 
z
M 2034 -91 
Q 1275 -91 848 546 
Q 422 1184 422 2328 
Q 422 3475 848 4112 
Q 1275 4750 2034 4750 
Q 2797 4750 3222 4112 
Q 3647 3475 3647 2328 
Q 3647 1184 3222 546 
Q 2797 -91 2034 -91 
z
" transform="scale(0.015625)"/>
       </defs>
       <use xlink:href="#DejaVuSerif-14"/>
       <use xlink:href="#DejaVuSerif-13" transform="translate(63.625 0)"/>
      </g>
     </g>
    </g>
    <g id="xtick_2">
     <g id="line2d_3">
      <path d="M 173.451886 332.034492 
L 173.451886 22.318125 
" clip-path="url(#p50206f349e)" style="fill: none; stroke: #b0b0b0; stroke-opacity: 0.3; stroke-width: 0.8; stroke-linecap: square"/>
     </g>
     <g id="line2d_4">
      <g>
       <use xlink:href="#m67508d9fed" x="173.451886" y="332.034492" style="stroke: #000000; stroke-width: 0.8"/>
      </g>
     </g>
     <g id="text_2">
      <!-- 15 -->
      <g transform="translate(167.089386 346.632148) scale(0.1 -0.1)">
       <defs>
        <path id="DejaVuSerif-18" d="M 3219 4666 
L 3219 4153 
L 1081 4153 
L 1081 2816 
Q 1244 2928 1461 2984 
Q 1678 3041 1947 3041 
Q 2703 3041 3140 2622 
Q 3578 2203 3578 1478 
Q 3578 738 3136 323 
Q 2694 -91 1894 -91 
Q 1572 -91 1234 -12 
Q 897 66 544 225 
L 544 1131 
L 897 1131 
Q 925 688 1179 453 
Q 1434 219 1894 219 
Q 2388 219 2653 544 
Q 2919 869 2919 1478 
Q 2919 2084 2655 2407 
Q 2391 2731 1894 2731 
Q 1613 2731 1398 2631 
Q 1184 2531 1019 2322 
L 750 2322 
L 750 4666 
L 3219 4666 
z
" transform="scale(0.015625)"/>
       </defs>
       <use xlink:href="#DejaVuSerif-14"/>
       <use xlink:href="#DejaVuSerif-18" transform="translate(63.625 0)"/>
      </g>
     </g>
    </g>
    <g id="xtick_3">
     <g id="line2d_5">
      <path d="M 235.327421 332.034492 
L 235.327421 22.318125 
" clip-path="url(#p50206f349e)" style="fill: none; stroke: #b0b0b0; stroke-opacity: 0.3; stroke-width: 0.8; stroke-linecap: square"/>
     </g>
     <g id="line2d_6">
      <g>
       <use xlink:href="#m67508d9fed" x="235.327421" y="332.034492" style="stroke: #000000; stroke-width: 0.8"/>
      </g>
     </g>
     <g id="text_3">
      <!-- 20 -->
      <g transform="translate(228.964921 346.632148) scale(0.1 -0.1)">
       <defs>
        <path id="DejaVuSerif-15" d="M 819 3553 
L 469 3553 
L 469 4384 
Q 803 4563 1142 4656 
Q 1481 4750 1806 4750 
Q 2534 4750 2956 4397 
Q 3378 4044 3378 3438 
Q 3378 2753 2422 1800 
Q 2347 1728 2309 1691 
L 1131 513 
L 3078 513 
L 3078 1088 
L 3444 1088 
L 3444 0 
L 434 0 
L 434 341 
L 1850 1753 
Q 2319 2222 2519 2614 
Q 2719 3006 2719 3438 
Q 2719 3909 2473 4175 
Q 2228 4441 1797 4441 
Q 1350 4441 1106 4219 
Q 863 3997 819 3553 
z
" transform="scale(0.015625)"/>
       </defs>
       <use xlink:href="#DejaVuSerif-15"/>
       <use xlink:href="#DejaVuSerif-13" transform="translate(63.625 0)"/>
      </g>
     </g>
    </g>
    <g id="xtick_4">
     <g id="line2d_7">
      <path d="M 297.202956 332.034492 
L 297.202956 22.318125 
" clip-path="url(#p50206f349e)" style="fill: none; stroke: #b0b0b0; stroke-opacity: 0.3; stroke-width: 0.8; stroke-linecap: square"/>
     </g>
     <g id="line2d_8">
      <g>
       <use xlink:href="#m67508d9fed" x="297.202956" y="332.034492" style="stroke: #000000; stroke-width: 0.8"/>
      </g>
     </g>
     <g id="text_4">
      <!-- 25 -->
      <g transform="translate(290.840456 346.632148) scale(0.1 -0.1)">
       <use xlink:href="#DejaVuSerif-15"/>
       <use xlink:href="#DejaVuSerif-18" transform="translate(63.625 0)"/>
      </g>
     </g>
    </g>
    <g id="xtick_5">
     <g id="line2d_9">
      <path d="M 359.07849 332.034492 
L 359.07849 22.318125 
" clip-path="url(#p50206f349e)" style="fill: none; stroke: #b0b0b0; stroke-opacity: 0.3; stroke-width: 0.8; stroke-linecap: square"/>
     </g>
     <g id="line2d_10">
      <g>
       <use xlink:href="#m67508d9fed" x="359.07849" y="332.034492" style="stroke: #000000; stroke-width: 0.8"/>
      </g>
     </g>
     <g id="text_5">
      <!-- 30 -->
      <g transform="translate(352.71599 346.632148) scale(0.1 -0.1)">
       <defs>
        <path id="DejaVuSerif-16" d="M 622 4469 
Q 988 4606 1323 4678 
Q 1659 4750 1953 4750 
Q 2638 4750 3022 4454 
Q 3406 4159 3406 3634 
Q 3406 3213 3140 2930 
Q 2875 2647 2388 2547 
Q 2963 2466 3280 2130 
Q 3597 1794 3597 1259 
Q 3597 606 3158 257 
Q 2719 -91 1894 -91 
Q 1528 -91 1179 -12 
Q 831 66 488 225 
L 488 1131 
L 838 1131 
Q 869 681 1141 450 
Q 1413 219 1906 219 
Q 2384 219 2661 495 
Q 2938 772 2938 1253 
Q 2938 1803 2653 2086 
Q 2369 2369 1819 2369 
L 1522 2369 
L 1522 2688 
L 1678 2688 
Q 2225 2688 2498 2914 
Q 2772 3141 2772 3597 
Q 2772 4006 2547 4223 
Q 2322 4441 1900 4441 
Q 1478 4441 1245 4241 
Q 1013 4041 972 3647 
L 622 3647 
L 622 4469 
z
" transform="scale(0.015625)"/>
       </defs>
       <use xlink:href="#DejaVuSerif-16"/>
       <use xlink:href="#DejaVuSerif-13" transform="translate(63.625 0)"/>
      </g>
     </g>
    </g>
    <g id="xtick_6">
     <g id="line2d_11">
      <path d="M 420.954025 332.034492 
L 420.954025 22.318125 
" clip-path="url(#p50206f349e)" style="fill: none; stroke: #b0b0b0; stroke-opacity: 0.3; stroke-width: 0.8; stroke-linecap: square"/>
     </g>
     <g id="line2d_12">
      <g>
       <use xlink:href="#m67508d9fed" x="420.954025" y="332.034492" style="stroke: #000000; stroke-width: 0.8"/>
      </g>
     </g>
     <g id="text_6">
      <!-- 35 -->
      <g transform="translate(414.591525 346.632148) scale(0.1 -0.1)">
       <use xlink:href="#DejaVuSerif-16"/>
       <use xlink:href="#DejaVuSerif-18" transform="translate(63.625 0)"/>
      </g>
     </g>
    </g>
    <g id="xtick_7">
     <g id="line2d_13">
      <path d="M 482.82956 332.034492 
L 482.82956 22.318125 
" clip-path="url(#p50206f349e)" style="fill: none; stroke: #b0b0b0; stroke-opacity: 0.3; stroke-width: 0.8; stroke-linecap: square"/>
     </g>
     <g id="line2d_14">
      <g>
       <use xlink:href="#m67508d9fed" x="482.82956" y="332.034492" style="stroke: #000000; stroke-width: 0.8"/>
      </g>
     </g>
     <g id="text_7">
      <!-- 40 -->
      <g transform="translate(476.46706 346.632148) scale(0.1 -0.1)">
       <defs>
        <path id="DejaVuSerif-17" d="M 2234 1581 
L 2234 4063 
L 641 1581 
L 2234 1581 
z
M 3609 0 
L 1484 0 
L 1484 331 
L 2234 331 
L 2234 1247 
L 197 1247 
L 197 1588 
L 2241 4750 
L 2859 4750 
L 2859 1581 
L 3750 1581 
L 3750 1247 
L 2859 1247 
L 2859 331 
L 3609 331 
L 3609 0 
z
" transform="scale(0.015625)"/>
       </defs>
       <use xlink:href="#DejaVuSerif-17"/>
       <use xlink:href="#DejaVuSerif-13" transform="translate(63.625 0)"/>
      </g>
     </g>
    </g>
    <g id="text_8">
     <!-- Circuit Size -->
     <g transform="translate(239.836882 361.391914) scale(0.11 -0.11)">
      <defs>
       <path id="DejaVuSerif-26" d="M 4513 1234 
Q 4306 581 3820 245 
Q 3334 -91 2591 -91 
Q 2134 -91 1743 65 
Q 1353 222 1050 525 
Q 700 875 529 1320 
Q 359 1766 359 2328 
Q 359 3416 987 4083 
Q 1616 4750 2644 4750 
Q 3025 4750 3456 4650 
Q 3888 4550 4384 4347 
L 4384 3272 
L 4031 3272 
Q 3916 3859 3567 4137 
Q 3219 4416 2591 4416 
Q 1844 4416 1459 3886 
Q 1075 3356 1075 2328 
Q 1075 1303 1459 773 
Q 1844 244 2591 244 
Q 3113 244 3450 492 
Q 3788 741 3938 1234 
L 4513 1234 
z
" transform="scale(0.015625)"/>
       <path id="DejaVuSerif-4c" d="M 622 4353 
Q 622 4497 726 4603 
Q 831 4709 978 4709 
Q 1122 4709 1226 4603 
Q 1331 4497 1331 4353 
Q 1331 4206 1228 4103 
Q 1125 4000 978 4000 
Q 831 4000 726 4103 
Q 622 4206 622 4353 
z
M 1356 331 
L 1900 331 
L 1900 0 
L 231 0 
L 231 331 
L 781 331 
L 781 2988 
L 231 2988 
L 231 3322 
L 1356 3322 
L 1356 331 
z
" transform="scale(0.015625)"/>
       <path id="DejaVuSerif-55" d="M 3059 3328 
L 3059 2497 
L 2728 2497 
Q 2713 2744 2591 2866 
Q 2469 2988 2234 2988 
Q 1809 2988 1582 2694 
Q 1356 2400 1356 1850 
L 1356 331 
L 2022 331 
L 2022 0 
L 263 0 
L 263 331 
L 781 331 
L 781 2994 
L 231 2994 
L 231 3322 
L 1356 3322 
L 1356 2731 
Q 1525 3078 1790 3245 
Q 2056 3413 2438 3413 
Q 2578 3413 2733 3391 
Q 2888 3369 3059 3328 
z
" transform="scale(0.015625)"/>
       <path id="DejaVuSerif-46" d="M 3291 997 
Q 3169 466 2822 187 
Q 2475 -91 1925 -91 
Q 1200 -91 759 389 
Q 319 869 319 1663 
Q 319 2459 759 2936 
Q 1200 3413 1925 3413 
Q 2241 3413 2553 3339 
Q 2866 3266 3181 3116 
L 3181 2266 
L 2847 2266 
Q 2781 2703 2561 2903 
Q 2341 3103 1931 3103 
Q 1466 3103 1228 2742 
Q 991 2381 991 1663 
Q 991 944 1227 581 
Q 1463 219 1931 219 
Q 2303 219 2525 412 
Q 2747 606 2828 997 
L 3291 997 
z
" transform="scale(0.015625)"/>
       <path id="DejaVuSerif-58" d="M 2266 3322 
L 3341 3322 
L 3341 331 
L 3884 331 
L 3884 0 
L 2766 0 
L 2766 588 
Q 2606 256 2353 82 
Q 2100 -91 1766 -91 
Q 1213 -91 952 223 
Q 691 538 691 1209 
L 691 2988 
L 172 2988 
L 172 3322 
L 1269 3322 
L 1269 1388 
Q 1269 781 1417 556 
Q 1566 331 1947 331 
Q 2347 331 2556 625 
Q 2766 919 2766 1478 
L 2766 2988 
L 2266 2988 
L 2266 3322 
z
" transform="scale(0.015625)"/>
       <path id="DejaVuSerif-57" d="M 691 2988 
L 184 2988 
L 184 3322 
L 691 3322 
L 691 4353 
L 1269 4353 
L 1269 3322 
L 2350 3322 
L 2350 2988 
L 1269 2988 
L 1269 878 
Q 1269 456 1350 337 
Q 1431 219 1650 219 
Q 1875 219 1978 351 
Q 2081 484 2088 781 
L 2522 781 
Q 2497 328 2275 118 
Q 2053 -91 1600 -91 
Q 1103 -91 897 129 
Q 691 350 691 878 
L 691 2988 
z
" transform="scale(0.015625)"/>
       <path id="DejaVuSerif-3" transform="scale(0.015625)"/>
       <path id="DejaVuSerif-36" d="M 594 225 
L 594 1288 
L 953 1284 
Q 969 753 1261 498 
Q 1553 244 2150 244 
Q 2706 244 2998 464 
Q 3291 684 3291 1106 
Q 3291 1444 3114 1625 
Q 2938 1806 2369 1978 
L 1753 2163 
Q 1084 2366 811 2669 
Q 538 2972 538 3500 
Q 538 4094 959 4422 
Q 1381 4750 2144 4750 
Q 2469 4750 2856 4679 
Q 3244 4609 3681 4475 
L 3681 3481 
L 3328 3481 
Q 3275 3975 2998 4195 
Q 2722 4416 2156 4416 
Q 1663 4416 1405 4214 
Q 1147 4013 1147 3628 
Q 1147 3294 1340 3103 
Q 1534 2913 2163 2725 
L 2741 2553 
Q 3375 2363 3645 2067 
Q 3916 1772 3916 1275 
Q 3916 597 3481 253 
Q 3047 -91 2188 -91 
Q 1803 -91 1404 -12 
Q 1006 66 594 225 
z
" transform="scale(0.015625)"/>
       <path id="DejaVuSerif-5d" d="M 256 0 
L 256 269 
L 2338 2988 
L 691 2988 
L 691 2413 
L 359 2413 
L 359 3322 
L 3078 3322 
L 3078 3053 
L 997 331 
L 2803 331 
L 2803 934 
L 3138 934 
L 3138 0 
L 256 0 
z
" transform="scale(0.015625)"/>
       <path id="DejaVuSerif-48" d="M 3469 1600 
L 991 1600 
L 991 1575 
Q 991 903 1244 561 
Q 1497 219 1991 219 
Q 2369 219 2611 417 
Q 2853 616 2950 1006 
L 3413 1006 
Q 3275 459 2904 184 
Q 2534 -91 1931 -91 
Q 1203 -91 761 389 
Q 319 869 319 1663 
Q 319 2450 753 2931 
Q 1188 3413 1894 3413 
Q 2647 3413 3050 2948 
Q 3453 2484 3469 1600 
z
M 2791 1931 
Q 2772 2513 2545 2808 
Q 2319 3103 1894 3103 
Q 1497 3103 1269 2806 
Q 1041 2509 991 1931 
L 2791 1931 
z
" transform="scale(0.015625)"/>
      </defs>
      <use xlink:href="#DejaVuSerif-26"/>
      <use xlink:href="#DejaVuSerif-4c" transform="translate(76.515625 0)"/>
      <use xlink:href="#DejaVuSerif-55" transform="translate(108.5 0)"/>
      <use xlink:href="#DejaVuSerif-46" transform="translate(156.296875 0)"/>
      <use xlink:href="#DejaVuSerif-58" transform="translate(212.296875 0)"/>
      <use xlink:href="#DejaVuSerif-4c" transform="translate(276.703125 0)"/>
      <use xlink:href="#DejaVuSerif-57" transform="translate(308.6875 0)"/>
      <use xlink:href="#DejaVuSerif-3" transform="translate(348.875 0)"/>
      <use xlink:href="#DejaVuSerif-36" transform="translate(380.65625 0)"/>
      <use xlink:href="#DejaVuSerif-4c" transform="translate(449.15625 0)"/>
      <use xlink:href="#DejaVuSerif-5d" transform="translate(481.140625 0)"/>
      <use xlink:href="#DejaVuSerif-48" transform="translate(533.828125 0)"/>
     </g>
    </g>
   </g>
   <g id="matplotlib.axis_2">
    <g id="ytick_1">
     <g id="line2d_15">
      <path d="M 54.650859 307.880452 
L 490.254624 307.880452 
" clip-path="url(#p50206f349e)" style="fill: none; stroke: #b0b0b0; stroke-opacity: 0.3; stroke-width: 0.8; stroke-linecap: square"/>
     </g>
     <g id="line2d_16">
      <defs>
       <path id="mb5cf9b69ef" d="M 0 0 
L -3.5 0 
" style="stroke: #000000; stroke-width: 0.8"/>
      </defs>
      <g>
       <use xlink:href="#mb5cf9b69ef" x="54.650859" y="307.880452" style="stroke: #000000; stroke-width: 0.8"/>
      </g>
     </g>
     <g id="text_9">
      <!-- 1120 -->
      <g transform="translate(22.200859 311.67928) scale(0.1 -0.1)">
       <use xlink:href="#DejaVuSerif-14"/>
       <use xlink:href="#DejaVuSerif-14" transform="translate(63.625 0)"/>
       <use xlink:href="#DejaVuSerif-15" transform="translate(127.25 0)"/>
       <use xlink:href="#DejaVuSerif-13" transform="translate(190.875 0)"/>
      </g>
     </g>
    </g>
    <g id="ytick_2">
     <g id="line2d_17">
      <path d="M 54.650859 254.539397 
L 490.254624 254.539397 
" clip-path="url(#p50206f349e)" style="fill: none; stroke: #b0b0b0; stroke-opacity: 0.3; stroke-width: 0.8; stroke-linecap: square"/>
     </g>
     <g id="line2d_18">
      <g>
       <use xlink:href="#mb5cf9b69ef" x="54.650859" y="254.539397" style="stroke: #000000; stroke-width: 0.8"/>
      </g>
     </g>
     <g id="text_10">
      <!-- 1125 -->
      <g transform="translate(22.200859 258.338225) scale(0.1 -0.1)">
       <use xlink:href="#DejaVuSerif-14"/>
       <use xlink:href="#DejaVuSerif-14" transform="translate(63.625 0)"/>
       <use xlink:href="#DejaVuSerif-15" transform="translate(127.25 0)"/>
       <use xlink:href="#DejaVuSerif-18" transform="translate(190.875 0)"/>
      </g>
     </g>
    </g>
    <g id="ytick_3">
     <g id="line2d_19">
      <path d="M 54.650859 201.198341 
L 490.254624 201.198341 
" clip-path="url(#p50206f349e)" style="fill: none; stroke: #b0b0b0; stroke-opacity: 0.3; stroke-width: 0.8; stroke-linecap: square"/>
     </g>
     <g id="line2d_20">
      <g>
       <use xlink:href="#mb5cf9b69ef" x="54.650859" y="201.198341" style="stroke: #000000; stroke-width: 0.8"/>
      </g>
     </g>
     <g id="text_11">
      <!-- 1130 -->
      <g transform="translate(22.200859 204.997169) scale(0.1 -0.1)">
       <use xlink:href="#DejaVuSerif-14"/>
       <use xlink:href="#DejaVuSerif-14" transform="translate(63.625 0)"/>
       <use xlink:href="#DejaVuSerif-16" transform="translate(127.25 0)"/>
       <use xlink:href="#DejaVuSerif-13" transform="translate(190.875 0)"/>
      </g>
     </g>
    </g>
    <g id="ytick_4">
     <g id="line2d_21">
      <path d="M 54.650859 147.857285 
L 490.254624 147.857285 
" clip-path="url(#p50206f349e)" style="fill: none; stroke: #b0b0b0; stroke-opacity: 0.3; stroke-width: 0.8; stroke-linecap: square"/>
     </g>
     <g id="line2d_22">
      <g>
       <use xlink:href="#mb5cf9b69ef" x="54.650859" y="147.857285" style="stroke: #000000; stroke-width: 0.8"/>
      </g>
     </g>
     <g id="text_12">
      <!-- 1135 -->
      <g transform="translate(22.200859 151.656114) scale(0.1 -0.1)">
       <use xlink:href="#DejaVuSerif-14"/>
       <use xlink:href="#DejaVuSerif-14" transform="translate(63.625 0)"/>
       <use xlink:href="#DejaVuSerif-16" transform="translate(127.25 0)"/>
       <use xlink:href="#DejaVuSerif-18" transform="translate(190.875 0)"/>
      </g>
     </g>
    </g>
    <g id="ytick_5">
     <g id="line2d_23">
      <path d="M 54.650859 94.51623 
L 490.254624 94.51623 
" clip-path="url(#p50206f349e)" style="fill: none; stroke: #b0b0b0; stroke-opacity: 0.3; stroke-width: 0.8; stroke-linecap: square"/>
     </g>
     <g id="line2d_24">
      <g>
       <use xlink:href="#mb5cf9b69ef" x="54.650859" y="94.51623" style="stroke: #000000; stroke-width: 0.8"/>
      </g>
     </g>
     <g id="text_13">
      <!-- 1140 -->
      <g transform="translate(22.200859 98.315058) scale(0.1 -0.1)">
       <use xlink:href="#DejaVuSerif-14"/>
       <use xlink:href="#DejaVuSerif-14" transform="translate(63.625 0)"/>
       <use xlink:href="#DejaVuSerif-17" transform="translate(127.25 0)"/>
       <use xlink:href="#DejaVuSerif-13" transform="translate(190.875 0)"/>
      </g>
     </g>
    </g>
    <g id="ytick_6">
     <g id="line2d_25">
      <path d="M 54.650859 41.175174 
L 490.254624 41.175174 
" clip-path="url(#p50206f349e)" style="fill: none; stroke: #b0b0b0; stroke-opacity: 0.3; stroke-width: 0.8; stroke-linecap: square"/>
     </g>
     <g id="line2d_26">
      <g>
       <use xlink:href="#mb5cf9b69ef" x="54.650859" y="41.175174" style="stroke: #000000; stroke-width: 0.8"/>
      </g>
     </g>
     <g id="text_14">
      <!-- 1145 -->
      <g transform="translate(22.200859 44.974002) scale(0.1 -0.1)">
       <use xlink:href="#DejaVuSerif-14"/>
       <use xlink:href="#DejaVuSerif-14" transform="translate(63.625 0)"/>
       <use xlink:href="#DejaVuSerif-17" transform="translate(127.25 0)"/>
       <use xlink:href="#DejaVuSerif-18" transform="translate(190.875 0)"/>
      </g>
     </g>
    </g>
    <g id="text_15">
     <!-- Runtime (ms) -->
     <g transform="translate(15.558281 214.920059) rotate(-90) scale(0.11 -0.11)">
      <defs>
       <path id="DejaVuSerif-35" d="M 3066 2316 
Q 3284 2256 3442 2114 
Q 3600 1972 3725 1716 
L 4403 331 
L 4972 331 
L 4972 0 
L 3872 0 
L 3144 1484 
Q 2934 1916 2759 2042 
Q 2584 2169 2278 2169 
L 1581 2169 
L 1581 331 
L 2241 331 
L 2241 0 
L 353 0 
L 353 331 
L 947 331 
L 947 4331 
L 353 4331 
L 353 4666 
L 2719 4666 
Q 3400 4666 3770 4341 
Q 4141 4016 4141 3419 
Q 4141 2938 3870 2661 
Q 3600 2384 3066 2316 
z
M 1581 2503 
L 2503 2503 
Q 2975 2503 3200 2726 
Q 3425 2950 3425 3419 
Q 3425 3888 3200 4109 
Q 2975 4331 2503 4331 
L 1581 4331 
L 1581 2503 
z
" transform="scale(0.015625)"/>
       <path id="DejaVuSerif-51" d="M 263 0 
L 263 331 
L 781 331 
L 781 2988 
L 231 2988 
L 231 3322 
L 1356 3322 
L 1356 2731 
Q 1516 3069 1770 3241 
Q 2025 3413 2363 3413 
Q 2913 3413 3172 3097 
Q 3431 2781 3431 2113 
L 3431 331 
L 3944 331 
L 3944 0 
L 2356 0 
L 2356 331 
L 2853 331 
L 2853 1931 
Q 2853 2541 2703 2767 
Q 2553 2994 2175 2994 
Q 1775 2994 1565 2701 
Q 1356 2409 1356 1850 
L 1356 331 
L 1856 331 
L 1856 0 
L 263 0 
z
" transform="scale(0.015625)"/>
       <path id="DejaVuSerif-50" d="M 3316 2675 
Q 3481 3041 3739 3227 
Q 3997 3413 4341 3413 
Q 4863 3413 5119 3089 
Q 5375 2766 5375 2113 
L 5375 331 
L 5894 331 
L 5894 0 
L 4300 0 
L 4300 331 
L 4800 331 
L 4800 2047 
Q 4800 2556 4650 2772 
Q 4500 2988 4153 2988 
Q 3769 2988 3567 2697 
Q 3366 2406 3366 1850 
L 3366 331 
L 3866 331 
L 3866 0 
L 2291 0 
L 2291 331 
L 2791 331 
L 2791 2069 
Q 2791 2566 2641 2777 
Q 2491 2988 2144 2988 
Q 1759 2988 1557 2697 
Q 1356 2406 1356 1850 
L 1356 331 
L 1856 331 
L 1856 0 
L 263 0 
L 263 331 
L 781 331 
L 781 2994 
L 231 2994 
L 231 3322 
L 1356 3322 
L 1356 2731 
Q 1516 3063 1762 3238 
Q 2009 3413 2322 3413 
Q 2709 3413 2968 3220 
Q 3228 3028 3316 2675 
z
" transform="scale(0.015625)"/>
       <path id="DejaVuSerif-b" d="M 2041 -997 
Q 1281 -656 893 83 
Q 506 822 506 1931 
Q 506 3044 893 3783 
Q 1281 4522 2041 4863 
L 2041 4556 
Q 1559 4225 1350 3623 
Q 1141 3022 1141 1931 
Q 1141 844 1350 242 
Q 1559 -359 2041 -691 
L 2041 -997 
z
" transform="scale(0.015625)"/>
       <path id="DejaVuSerif-56" d="M 359 184 
L 359 959 
L 691 959 
Q 703 588 923 403 
Q 1144 219 1575 219 
Q 1963 219 2166 364 
Q 2369 509 2369 788 
Q 2369 1006 2220 1140 
Q 2072 1275 1594 1428 
L 1178 1569 
Q 750 1706 558 1912 
Q 366 2119 366 2438 
Q 366 2894 700 3153 
Q 1034 3413 1625 3413 
Q 1888 3413 2178 3344 
Q 2469 3275 2778 3144 
L 2778 2419 
L 2447 2419 
Q 2434 2741 2221 2922 
Q 2009 3103 1644 3103 
Q 1281 3103 1095 2975 
Q 909 2847 909 2591 
Q 909 2381 1050 2254 
Q 1191 2128 1613 1997 
L 2069 1856 
Q 2541 1709 2748 1489 
Q 2956 1269 2956 922 
Q 2956 450 2595 179 
Q 2234 -91 1600 -91 
Q 1278 -91 972 -22 
Q 666 47 359 184 
z
" transform="scale(0.015625)"/>
       <path id="DejaVuSerif-c" d="M 453 -997 
L 453 -691 
Q 934 -359 1145 242 
Q 1356 844 1356 1931 
Q 1356 3022 1145 3623 
Q 934 4225 453 4556 
L 453 4863 
Q 1216 4522 1603 3783 
Q 1991 3044 1991 1931 
Q 1991 822 1603 83 
Q 1216 -656 453 -997 
z
" transform="scale(0.015625)"/>
      </defs>
      <use xlink:href="#DejaVuSerif-35"/>
      <use xlink:href="#DejaVuSerif-58" transform="translate(75.296875 0)"/>
      <use xlink:href="#DejaVuSerif-51" transform="translate(139.703125 0)"/>
      <use xlink:href="#DejaVuSerif-57" transform="translate(204.109375 0)"/>
      <use xlink:href="#DejaVuSerif-4c" transform="translate(244.296875 0)"/>
      <use xlink:href="#DejaVuSerif-50" transform="translate(276.28125 0)"/>
      <use xlink:href="#DejaVuSerif-48" transform="translate(371.109375 0)"/>
      <use xlink:href="#DejaVuSerif-3" transform="translate(430.296875 0)"/>
      <use xlink:href="#DejaVuSerif-b" transform="translate(462.078125 0)"/>
      <use xlink:href="#DejaVuSerif-50" transform="translate(501.09375 0)"/>
      <use xlink:href="#DejaVuSerif-56" transform="translate(595.921875 0)"/>
      <use xlink:href="#DejaVuSerif-c" transform="translate(647.234375 0)"/>
     </g>
    </g>
   </g>
   <g id="line2d_27">
    <path d="M 74.451031 36.396142 
L 123.951458 227.860628 
L 173.451886 197.369153 
L 222.952314 58.366892 
L 272.452742 202.451065 
L 321.95317 247.125095 
L 371.453597 317.956475 
L 420.954025 273.096771 
L 470.454453 134.063988 
" clip-path="url(#p50206f349e)" style="fill: none; stroke: #7f8c8d; stroke-width: 2; stroke-linecap: square"/>
    <defs>
     <path id="m315f87f25b" d="M 0 4 
C 1.060812 4 2.078319 3.578535 2.828427 2.828427 
C 3.578535 2.078319 4 1.060812 4 0 
C 4 -1.060812 3.578535 -2.078319 2.828427 -2.828427 
C 2.078319 -3.578535 1.060812 -4 0 -4 
C -1.060812 -4 -2.078319 -3.578535 -2.828427 -2.828427 
C -3.578535 -2.078319 -4 -1.060812 -4 0 
C -4 1.060812 -3.578535 2.078319 -2.828427 2.828427 
C -2.078319 3.578535 -1.060812 4 0 4 
z
" style="stroke: #7f8c8d"/>
    </defs>
    <g clip-path="url(#p50206f349e)">
     <use xlink:href="#m315f87f25b" x="74.451031" y="36.396142" style="fill: #7f8c8d; stroke: #7f8c8d"/>
     <use xlink:href="#m315f87f25b" x="123.951458" y="227.860628" style="fill: #7f8c8d; stroke: #7f8c8d"/>
     <use xlink:href="#m315f87f25b" x="173.451886" y="197.369153" style="fill: #7f8c8d; stroke: #7f8c8d"/>
     <use xlink:href="#m315f87f25b" x="222.952314" y="58.366892" style="fill: #7f8c8d; stroke: #7f8c8d"/>
     <use xlink:href="#m315f87f25b" x="272.452742" y="202.451065" style="fill: #7f8c8d; stroke: #7f8c8d"/>
     <use xlink:href="#m315f87f25b" x="321.95317" y="247.125095" style="fill: #7f8c8d; stroke: #7f8c8d"/>
     <use xlink:href="#m315f87f25b" x="371.453597" y="317.956475" style="fill: #7f8c8d; stroke: #7f8c8d"/>
     <use xlink:href="#m315f87f25b" x="420.954025" y="273.096771" style="fill: #7f8c8d; stroke: #7f8c8d"/>
     <use xlink:href="#m315f87f25b" x="470.454453" y="134.063988" style="fill: #7f8c8d; stroke: #7f8c8d"/>
    </g>
   </g>
   <g id="line2d_28">
    <path d="M 74.451031 95.591511 
L 75.967102 97.115755 
L 77.509708 98.639808 
L 79.079311 100.16367 
L 80.676384 101.687341 
L 82.301409 103.210821 
L 83.954873 104.73411 
L 85.637276 106.257208 
L 87.349123 107.780116 
L 89.090929 109.302832 
L 90.86322 110.825357 
L 92.666528 112.347692 
L 94.501397 113.869836 
L 96.368378 115.391789 
L 98.268035 116.913551 
L 100.200937 118.435122 
L 102.167669 119.956503 
L 104.168821 121.477693 
L 106.204996 122.998693 
L 108.276807 124.519502 
L 110.384877 126.04012 
L 112.529842 127.560547 
L 114.712346 129.080784 
L 116.933047 130.600831 
L 119.192614 132.120687 
L 121.491727 133.640352 
L 123.831077 135.159827 
L 126.211369 136.679111 
L 128.633319 138.198205 
L 131.097657 139.717109 
L 133.605124 141.235822 
L 136.156476 142.754345 
L 138.752479 144.272678 
L 141.393917 145.79082 
L 144.081583 147.308772 
L 146.816287 148.826534 
L 149.598852 150.344105 
L 152.430116 151.861486 
L 155.310932 153.378677 
L 158.242165 154.895678 
L 161.224699 156.412489 
L 164.259432 157.92911 
L 167.347277 159.44554 
L 170.489163 160.961781 
L 173.686037 162.477831 
L 176.938861 163.993691 
L 180.248613 165.509362 
L 183.616291 167.024842 
L 187.042908 168.540133 
L 190.529496 170.055233 
L 194.077103 171.570144 
L 197.686799 173.084865 
L 201.35967 174.599395 
L 205.096821 176.113737 
L 208.899377 177.627888 
L 212.768483 179.141849 
L 216.705304 180.655621 
L 220.711025 182.169203 
L 224.786852 183.682595 
L 228.934012 185.195798 
L 233.153752 186.70881 
L 237.447344 188.221634 
L 241.81608 189.734267 
L 246.261275 191.246711 
L 250.784266 192.758966 
L 255.386417 194.271031 
L 260.069112 195.782906 
L 264.83376 197.294592 
L 269.681797 198.806088 
L 274.61468 200.317395 
L 279.633897 201.828513 
L 284.740956 203.339441 
L 289.937396 204.850179 
L 295.224782 206.360729 
L 300.604704 207.871089 
L 306.078782 209.381259 
L 311.648664 210.891241 
L 317.316027 212.401033 
L 323.082576 213.910636 
L 328.950048 215.42005 
L 334.92021 216.929274 
L 340.994857 218.438309 
L 347.17582 219.947156 
L 353.464957 221.455813 
L 359.864164 222.964281 
L 366.375366 224.47256 
L 373.000522 225.980649 
L 379.741629 227.48855 
L 386.600714 228.996262 
L 393.579842 230.503785 
L 400.681116 232.011119 
L 407.906671 233.518264 
L 415.258684 235.02522 
L 422.739367 236.531987 
L 430.350973 238.038565 
L 438.095792 239.544955 
L 445.976157 241.051155 
L 453.994439 242.557167 
L 462.153053 244.06299 
L 470.454453 245.568625 
" clip-path="url(#p50206f349e)" style="fill: none; stroke-dasharray: 7.4,3.2; stroke-dashoffset: 0; stroke: #7f8c8d; stroke-opacity: 0.5; stroke-width: 2"/>
   </g>
   <g id="patch_3">
    <path d="M 54.650859 332.034492 
L 54.650859 22.318125 
" style="fill: none; stroke: #000000; stroke-width: 0.8; stroke-linejoin: miter; stroke-linecap: square"/>
   </g>
   <g id="patch_4">
    <path d="M 490.254624 332.034492 
L 490.254624 22.318125 
" style="fill: none; stroke: #000000; stroke-width: 0.8; stroke-linejoin: miter; stroke-linecap: square"/>
   </g>
   <g id="patch_5">
    <path d="M 54.650859 332.034492 
L 490.254624 332.034492 
" style="fill: none; stroke: #000000; stroke-width: 0.8; stroke-linejoin: miter; stroke-linecap: square"/>
   </g>
   <g id="patch_6">
    <path d="M 54.650859 22.318125 
L 490.254624 22.318125 
" style="fill: none; stroke: #000000; stroke-width: 0.8; stroke-linejoin: miter; stroke-linecap: square"/>
   </g>
   <g id="text_16">
    <!-- Target_and Scaling -->
    <g transform="translate(208.203992 16.318125) scale(0.12 -0.12)">
     <defs>
      <path id="DejaVuSerif-Bold-37" d="M 1159 0 
L 1159 378 
L 1778 378 
L 1778 4238 
L 500 4238 
L 500 3500 
L 72 3500 
L 72 4666 
L 4697 4666 
L 4697 3500 
L 4275 3500 
L 4275 4238 
L 2988 4238 
L 2988 378 
L 3609 378 
L 3609 0 
L 1159 0 
z
" transform="scale(0.015625)"/>
      <path id="DejaVuSerif-Bold-44" d="M 3525 2041 
L 3525 378 
L 4000 378 
L 4000 0 
L 2419 0 
L 2419 422 
Q 2200 159 1931 34 
Q 1663 -91 1319 -91 
Q 809 -91 536 182 
Q 263 456 263 966 
Q 263 1525 655 1803 
Q 1047 2081 1838 2081 
L 2419 2081 
L 2419 2278 
Q 2419 2681 2228 2873 
Q 2038 3066 1638 3066 
Q 1306 3066 1126 2930 
Q 947 2794 872 2484 
L 519 2484 
L 519 3200 
Q 816 3306 1134 3359 
Q 1453 3413 1806 3413 
Q 2697 3413 3111 3081 
Q 3525 2750 3525 2041 
z
M 2419 1044 
L 2419 1709 
L 2003 1709 
Q 1694 1709 1528 1540 
Q 1363 1372 1363 1056 
Q 1363 741 1483 584 
Q 1603 428 1850 428 
Q 2106 428 2262 597 
Q 2419 766 2419 1044 
z
" transform="scale(0.015625)"/>
      <path id="DejaVuSerif-Bold-55" d="M 3438 3359 
L 3438 2369 
L 3084 2369 
Q 3066 2634 2941 2764 
Q 2816 2894 2578 2894 
Q 2216 2894 2006 2575 
Q 1797 2256 1797 1691 
L 1797 378 
L 2400 378 
L 2400 0 
L 219 0 
L 219 378 
L 691 378 
L 691 2944 
L 184 2944 
L 184 3322 
L 1797 3322 
L 1797 2731 
Q 1959 3078 2226 3245 
Q 2494 3413 2881 3413 
Q 2978 3413 3117 3398 
Q 3256 3384 3438 3359 
z
" transform="scale(0.015625)"/>
      <path id="DejaVuSerif-Bold-4a" d="M 3853 2944 
L 3853 44 
Q 3853 -656 3354 -1039 
Q 2856 -1422 1947 -1422 
Q 1616 -1422 1275 -1370 
Q 934 -1319 575 -1216 
L 575 -422 
L 928 -422 
Q 975 -750 1192 -909 
Q 1409 -1069 1813 -1069 
Q 2325 -1069 2536 -823 
Q 2747 -578 2747 44 
L 2747 422 
Q 2606 163 2367 36 
Q 2128 -91 1778 -91 
Q 1072 -91 667 378 
Q 263 847 263 1663 
Q 263 2481 667 2947 
Q 1072 3413 1778 3413 
Q 2128 3413 2367 3286 
Q 2606 3159 2747 2900 
L 2747 3322 
L 4325 3322 
L 4325 2944 
L 3853 2944 
z
M 2747 1825 
Q 2747 2406 2597 2665 
Q 2447 2925 2119 2925 
Q 1775 2925 1636 2651 
Q 1497 2378 1497 1663 
Q 1497 947 1637 672 
Q 1778 397 2119 397 
Q 2447 397 2597 656 
Q 2747 916 2747 1497 
L 2747 1825 
z
" transform="scale(0.015625)"/>
      <path id="DejaVuSerif-Bold-48" d="M 2566 1875 
Q 2566 2531 2444 2795 
Q 2322 3059 2028 3059 
Q 1744 3059 1620 2800 
Q 1497 2541 1497 1931 
L 1497 1875 
L 2566 1875 
z
M 3781 1503 
L 1497 1503 
L 1497 1478 
Q 1497 834 1690 548 
Q 1884 263 2316 263 
Q 2675 263 2897 453 
Q 3119 644 3181 1006 
L 3700 1006 
Q 3566 441 3166 175 
Q 2766 -91 2047 -91 
Q 1184 -91 723 364 
Q 263 819 263 1663 
Q 263 2488 734 2950 
Q 1206 3413 2047 3413 
Q 2872 3413 3312 2927 
Q 3753 2441 3781 1503 
z
" transform="scale(0.015625)"/>
      <path id="DejaVuSerif-Bold-57" d="M 634 2944 
L 153 2944 
L 153 3322 
L 634 3322 
L 634 4353 
L 1741 4353 
L 1741 3322 
L 2663 3322 
L 2663 2944 
L 1741 2944 
L 1741 909 
Q 1741 475 1809 369 
Q 1878 263 2059 263 
Q 2259 263 2356 397 
Q 2453 531 2459 813 
L 2925 813 
Q 2897 313 2651 111 
Q 2406 -91 1806 -91 
Q 1122 -91 878 123 
Q 634 338 634 909 
L 634 2944 
z
" transform="scale(0.015625)"/>
      <path id="DejaVuSerif-Bold-42" d="M 3200 -916 
L 3200 -1509 
L 0 -1509 
L 0 -916 
L 3200 -916 
z
" transform="scale(0.015625)"/>
      <path id="DejaVuSerif-Bold-51" d="M 219 0 
L 219 378 
L 691 378 
L 691 2944 
L 219 2944 
L 219 3322 
L 1797 3322 
L 1797 2853 
Q 1997 3150 2253 3281 
Q 2509 3413 2900 3413 
Q 3459 3413 3745 3083 
Q 4031 2753 4031 2113 
L 4031 378 
L 4506 378 
L 4506 0 
L 2522 0 
L 2522 378 
L 2925 378 
L 2925 2144 
Q 2925 2566 2817 2730 
Q 2709 2894 2444 2894 
Q 2109 2894 1953 2648 
Q 1797 2403 1797 1869 
L 1797 378 
L 2203 378 
L 2203 0 
L 219 0 
z
" transform="scale(0.015625)"/>
      <path id="DejaVuSerif-Bold-47" d="M 2747 1497 
L 2747 1825 
Q 2747 2406 2597 2665 
Q 2447 2925 2119 2925 
Q 1775 2925 1636 2651 
Q 1497 2378 1497 1663 
Q 1497 947 1637 672 
Q 1778 397 2119 397 
Q 2447 397 2597 656 
Q 2747 916 2747 1497 
z
M 3853 378 
L 4325 378 
L 4325 0 
L 2747 0 
L 2747 422 
Q 2606 163 2367 36 
Q 2128 -91 1778 -91 
Q 1072 -91 667 378 
Q 263 847 263 1663 
Q 263 2481 667 2947 
Q 1072 3413 1778 3413 
Q 2128 3413 2367 3286 
Q 2606 3159 2747 2900 
L 2747 4488 
L 2272 4488 
L 2272 4863 
L 3853 4863 
L 3853 378 
z
" transform="scale(0.015625)"/>
      <path id="DejaVuSerif-Bold-3" transform="scale(0.015625)"/>
      <path id="DejaVuSerif-Bold-36" d="M 494 225 
L 494 1331 
L 891 1331 
Q 981 806 1318 547 
Q 1656 288 2253 288 
Q 2738 288 2991 472 
Q 3244 656 3244 1013 
Q 3244 1294 3072 1450 
Q 2900 1606 2363 1741 
L 1663 1913 
Q 978 2088 700 2398 
Q 422 2709 422 3284 
Q 422 3978 883 4364 
Q 1344 4750 2175 4750 
Q 2584 4750 3026 4681 
Q 3469 4613 3944 4475 
L 3944 3444 
L 3547 3444 
Q 3456 3925 3150 4148 
Q 2844 4372 2278 4372 
Q 1816 4372 1580 4211 
Q 1344 4050 1344 3731 
Q 1344 3441 1506 3289 
Q 1669 3138 2303 2975 
L 3003 2803 
Q 3653 2641 3945 2297 
Q 4238 1953 4238 1350 
Q 4238 644 3750 276 
Q 3263 -91 2316 -91 
Q 1859 -91 1409 -12 
Q 959 66 494 225 
z
" transform="scale(0.015625)"/>
      <path id="DejaVuSerif-Bold-46" d="M 3609 1038 
Q 3491 469 3123 189 
Q 2756 -91 2125 -91 
Q 1238 -91 750 368 
Q 263 828 263 1663 
Q 263 2488 744 2950 
Q 1225 3413 2081 3413 
Q 2428 3413 2781 3347 
Q 3134 3281 3500 3150 
L 3500 2228 
L 3150 2228 
Q 3100 2650 2903 2854 
Q 2706 3059 2350 3059 
Q 1888 3059 1692 2746 
Q 1497 2434 1497 1663 
Q 1497 909 1687 586 
Q 1878 263 2309 263 
Q 2644 263 2845 463 
Q 3047 663 3091 1038 
L 3609 1038 
z
" transform="scale(0.015625)"/>
      <path id="DejaVuSerif-Bold-4f" d="M 1797 378 
L 2272 378 
L 2272 0 
L 219 0 
L 219 378 
L 691 378 
L 691 4488 
L 219 4488 
L 219 4863 
L 1797 4863 
L 1797 378 
z
" transform="scale(0.015625)"/>
      <path id="DejaVuSerif-Bold-4c" d="M 588 4263 
Q 588 4516 763 4689 
Q 938 4863 1191 4863 
Q 1438 4863 1611 4689 
Q 1784 4516 1784 4263 
Q 1784 4016 1611 3842 
Q 1438 3669 1191 3669 
Q 938 3669 763 3841 
Q 588 4013 588 4263 
z
M 1797 378 
L 2272 378 
L 2272 0 
L 219 0 
L 219 378 
L 691 378 
L 691 2944 
L 219 2944 
L 219 3322 
L 1797 3322 
L 1797 378 
z
" transform="scale(0.015625)"/>
     </defs>
     <use xlink:href="#DejaVuSerif-Bold-37"/>
     <use xlink:href="#DejaVuSerif-Bold-44" transform="translate(64.859375 0)"/>
     <use xlink:href="#DejaVuSerif-Bold-55" transform="translate(129.65625 0)"/>
     <use xlink:href="#DejaVuSerif-Bold-4a" transform="translate(182.34375 0)"/>
     <use xlink:href="#DejaVuSerif-Bold-48" transform="translate(252.265625 0)"/>
     <use xlink:href="#DejaVuSerif-Bold-57" transform="translate(315.890625 0)"/>
     <use xlink:href="#DejaVuSerif-Bold-42" transform="translate(362.078125 0)"/>
     <use xlink:href="#DejaVuSerif-Bold-44" transform="translate(412.078125 0)"/>
     <use xlink:href="#DejaVuSerif-Bold-51" transform="translate(476.875 0)"/>
     <use xlink:href="#DejaVuSerif-Bold-47" transform="translate(549.578125 0)"/>
     <use xlink:href="#DejaVuSerif-Bold-3" transform="translate(619.5 0)"/>
     <use xlink:href="#DejaVuSerif-Bold-36" transform="translate(654.3125 0)"/>
     <use xlink:href="#DejaVuSerif-Bold-46" transform="translate(726.53125 0)"/>
     <use xlink:href="#DejaVuSerif-Bold-44" transform="translate(787.421875 0)"/>
     <use xlink:href="#DejaVuSerif-Bold-4f" transform="translate(852.21875 0)"/>
     <use xlink:href="#DejaVuSerif-Bold-4c" transform="translate(890.203125 0)"/>
     <use xlink:href="#DejaVuSerif-Bold-51" transform="translate(928.1875 0)"/>
     <use xlink:href="#DejaVuSerif-Bold-4a" transform="translate(1000.890625 0)"/>
    </g>
   </g>
   <g id="legend_1">
    <g id="patch_7">
     <path d="M 408.157749 45.318906 
L 483.254624 45.318906 
Q 485.254624 45.318906 485.254624 43.318906 
L 485.254624 29.318125 
Q 485.254624 27.318125 483.254624 27.318125 
L 408.157749 27.318125 
Q 406.157749 27.318125 406.157749 29.318125 
L 406.157749 43.318906 
Q 406.157749 45.318906 408.157749 45.318906 
z
" style="fill: #ffffff; opacity: 0.8; stroke: #cccccc; stroke-linejoin: miter"/>
    </g>
    <g id="line2d_29">
     <path d="M 410.157749 35.416562 
L 420.157749 35.416562 
L 430.157749 35.416562 
" style="fill: none; stroke-dasharray: 7.4,3.2; stroke-dashoffset: 0; stroke: #7f8c8d; stroke-opacity: 0.5; stroke-width: 2"/>
    </g>
    <g id="text_17">
     <!-- Fit (exp) -->
     <g transform="translate(438.157749 38.916562) scale(0.1 -0.1)">
      <defs>
       <path id="DejaVuSerif-29" d="M 353 0 
L 353 331 
L 947 331 
L 947 4331 
L 353 4331 
L 353 4666 
L 4172 4666 
L 4172 3628 
L 3788 3628 
L 3788 4281 
L 1581 4281 
L 1581 2719 
L 3175 2719 
L 3175 3303 
L 3559 3303 
L 3559 1753 
L 3175 1753 
L 3175 2338 
L 1581 2338 
L 1581 331 
L 2328 331 
L 2328 0 
L 353 0 
z
" transform="scale(0.015625)"/>
       <path id="DejaVuSerif-5b" d="M 1863 2028 
L 2559 2988 
L 2113 2988 
L 2113 3322 
L 3391 3322 
L 3391 2988 
L 2950 2988 
L 2059 1759 
L 3097 331 
L 3531 331 
L 3531 0 
L 1997 0 
L 1997 331 
L 2419 331 
L 1697 1325 
L 972 331 
L 1403 331 
L 1403 0 
L 141 0 
L 141 331 
L 581 331 
L 1497 1594 
L 488 2988 
L 78 2988 
L 78 3322 
L 1563 3322 
L 1563 2988 
L 1166 2988 
L 1863 2028 
z
" transform="scale(0.015625)"/>
       <path id="DejaVuSerif-53" d="M 1313 1825 
L 1313 1497 
Q 1313 897 1542 583 
Q 1772 269 2209 269 
Q 2650 269 2876 622 
Q 3103 975 3103 1663 
Q 3103 2353 2876 2703 
Q 2650 3053 2209 3053 
Q 1772 3053 1542 2737 
Q 1313 2422 1313 1825 
z
M 738 2988 
L 184 2988 
L 184 3322 
L 1313 3322 
L 1313 2803 
Q 1481 3116 1742 3264 
Q 2003 3413 2388 3413 
Q 3000 3413 3387 2928 
Q 3775 2444 3775 1663 
Q 3775 881 3387 395 
Q 3000 -91 2388 -91 
Q 2003 -91 1742 57 
Q 1481 206 1313 519 
L 1313 -997 
L 1856 -997 
L 1856 -1331 
L 184 -1331 
L 184 -997 
L 738 -997 
L 738 2988 
z
" transform="scale(0.015625)"/>
      </defs>
      <use xlink:href="#DejaVuSerif-29"/>
      <use xlink:href="#DejaVuSerif-4c" transform="translate(69.390625 0)"/>
      <use xlink:href="#DejaVuSerif-57" transform="translate(101.375 0)"/>
      <use xlink:href="#DejaVuSerif-3" transform="translate(141.5625 0)"/>
      <use xlink:href="#DejaVuSerif-b" transform="translate(173.34375 0)"/>
      <use xlink:href="#DejaVuSerif-48" transform="translate(212.359375 0)"/>
      <use xlink:href="#DejaVuSerif-5b" transform="translate(271.546875 0)"/>
      <use xlink:href="#DejaVuSerif-53" transform="translate(327.9375 0)"/>
      <use xlink:href="#DejaVuSerif-c" transform="translate(391.953125 0)"/>
     </g>
    </g>
   </g>
  </g>
  <g id="axes_2">
   <g id="patch_8">
    <path d="M 549.444516 332.034492 
L 985.048281 332.034492 
L 985.048281 22.318125 
L 549.444516 22.318125 
z
" style="fill: #ffffff"/>
   </g>
   <g id="matplotlib.axis_3">
    <g id="xtick_8">
     <g id="line2d_30">
      <path d="M 613.245068 332.034492 
L 613.245068 22.318125 
" clip-path="url(#p364642b10a)" style="fill: none; stroke: #b0b0b0; stroke-opacity: 0.3; stroke-width: 0.8; stroke-linecap: square"/>
     </g>
     <g id="line2d_31">
      <g>
       <use xlink:href="#m67508d9fed" x="613.245068" y="332.034492" style="stroke: #000000; stroke-width: 0.8"/>
      </g>
     </g>
     <g id="text_18">
      <!-- 30 -->
      <g transform="translate(606.882568 346.632148) scale(0.1 -0.1)">
       <use xlink:href="#DejaVuSerif-16"/>
       <use xlink:href="#DejaVuSerif-13" transform="translate(63.625 0)"/>
      </g>
     </g>
    </g>
    <g id="xtick_9">
     <g id="line2d_32">
      <path d="M 686.579035 332.034492 
L 686.579035 22.318125 
" clip-path="url(#p364642b10a)" style="fill: none; stroke: #b0b0b0; stroke-opacity: 0.3; stroke-width: 0.8; stroke-linecap: square"/>
     </g>
     <g id="line2d_33">
      <g>
       <use xlink:href="#m67508d9fed" x="686.579035" y="332.034492" style="stroke: #000000; stroke-width: 0.8"/>
      </g>
     </g>
     <g id="text_19">
      <!-- 35 -->
      <g transform="translate(680.216535 346.632148) scale(0.1 -0.1)">
       <use xlink:href="#DejaVuSerif-16"/>
       <use xlink:href="#DejaVuSerif-18" transform="translate(63.625 0)"/>
      </g>
     </g>
    </g>
    <g id="xtick_10">
     <g id="line2d_34">
      <path d="M 759.913002 332.034492 
L 759.913002 22.318125 
" clip-path="url(#p364642b10a)" style="fill: none; stroke: #b0b0b0; stroke-opacity: 0.3; stroke-width: 0.8; stroke-linecap: square"/>
     </g>
     <g id="line2d_35">
      <g>
       <use xlink:href="#m67508d9fed" x="759.913002" y="332.034492" style="stroke: #000000; stroke-width: 0.8"/>
      </g>
     </g>
     <g id="text_20">
      <!-- 40 -->
      <g transform="translate(753.550502 346.632148) scale(0.1 -0.1)">
       <use xlink:href="#DejaVuSerif-17"/>
       <use xlink:href="#DejaVuSerif-13" transform="translate(63.625 0)"/>
      </g>
     </g>
    </g>
    <g id="xtick_11">
     <g id="line2d_36">
      <path d="M 833.246969 332.034492 
L 833.246969 22.318125 
" clip-path="url(#p364642b10a)" style="fill: none; stroke: #b0b0b0; stroke-opacity: 0.3; stroke-width: 0.8; stroke-linecap: square"/>
     </g>
     <g id="line2d_37">
      <g>
       <use xlink:href="#m67508d9fed" x="833.246969" y="332.034492" style="stroke: #000000; stroke-width: 0.8"/>
      </g>
     </g>
     <g id="text_21">
      <!-- 45 -->
      <g transform="translate(826.884469 346.632148) scale(0.1 -0.1)">
       <use xlink:href="#DejaVuSerif-17"/>
       <use xlink:href="#DejaVuSerif-18" transform="translate(63.625 0)"/>
      </g>
     </g>
    </g>
    <g id="xtick_12">
     <g id="line2d_38">
      <path d="M 906.580936 332.034492 
L 906.580936 22.318125 
" clip-path="url(#p364642b10a)" style="fill: none; stroke: #b0b0b0; stroke-opacity: 0.3; stroke-width: 0.8; stroke-linecap: square"/>
     </g>
     <g id="line2d_39">
      <g>
       <use xlink:href="#m67508d9fed" x="906.580936" y="332.034492" style="stroke: #000000; stroke-width: 0.8"/>
      </g>
     </g>
     <g id="text_22">
      <!-- 50 -->
      <g transform="translate(900.218436 346.632148) scale(0.1 -0.1)">
       <use xlink:href="#DejaVuSerif-18"/>
       <use xlink:href="#DejaVuSerif-13" transform="translate(63.625 0)"/>
      </g>
     </g>
    </g>
    <g id="xtick_13">
     <g id="line2d_40">
      <path d="M 979.914904 332.034492 
L 979.914904 22.318125 
" clip-path="url(#p364642b10a)" style="fill: none; stroke: #b0b0b0; stroke-opacity: 0.3; stroke-width: 0.8; stroke-linecap: square"/>
     </g>
     <g id="line2d_41">
      <g>
       <use xlink:href="#m67508d9fed" x="979.914904" y="332.034492" style="stroke: #000000; stroke-width: 0.8"/>
      </g>
     </g>
     <g id="text_23">
      <!-- 55 -->
      <g transform="translate(973.552404 346.632148) scale(0.1 -0.1)">
       <use xlink:href="#DejaVuSerif-18"/>
       <use xlink:href="#DejaVuSerif-18" transform="translate(63.625 0)"/>
      </g>
     </g>
    </g>
    <g id="text_24">
     <!-- Circuit Size -->
     <g transform="translate(734.630539 361.391914) scale(0.11 -0.11)">
      <use xlink:href="#DejaVuSerif-26"/>
      <use xlink:href="#DejaVuSerif-4c" transform="translate(76.515625 0)"/>
      <use xlink:href="#DejaVuSerif-55" transform="translate(108.5 0)"/>
      <use xlink:href="#DejaVuSerif-46" transform="translate(156.296875 0)"/>
      <use xlink:href="#DejaVuSerif-58" transform="translate(212.296875 0)"/>
      <use xlink:href="#DejaVuSerif-4c" transform="translate(276.703125 0)"/>
      <use xlink:href="#DejaVuSerif-57" transform="translate(308.6875 0)"/>
      <use xlink:href="#DejaVuSerif-3" transform="translate(348.875 0)"/>
      <use xlink:href="#DejaVuSerif-36" transform="translate(380.65625 0)"/>
      <use xlink:href="#DejaVuSerif-4c" transform="translate(449.15625 0)"/>
      <use xlink:href="#DejaVuSerif-5d" transform="translate(481.140625 0)"/>
      <use xlink:href="#DejaVuSerif-48" transform="translate(533.828125 0)"/>
     </g>
    </g>
   </g>
   <g id="matplotlib.axis_4">
    <g id="ytick_7">
     <g id="line2d_42">
      <path d="M 549.444516 282.162006 
L 985.048281 282.162006 
" clip-path="url(#p364642b10a)" style="fill: none; stroke: #b0b0b0; stroke-opacity: 0.3; stroke-width: 0.8; stroke-linecap: square"/>
     </g>
     <g id="line2d_43">
      <g>
       <use xlink:href="#mb5cf9b69ef" x="549.444516" y="282.162006" style="stroke: #000000; stroke-width: 0.8"/>
      </g>
     </g>
     <g id="text_25">
      <!-- 1120 -->
      <g transform="translate(516.994516 285.960834) scale(0.1 -0.1)">
       <use xlink:href="#DejaVuSerif-14"/>
       <use xlink:href="#DejaVuSerif-14" transform="translate(63.625 0)"/>
       <use xlink:href="#DejaVuSerif-15" transform="translate(127.25 0)"/>
       <use xlink:href="#DejaVuSerif-13" transform="translate(190.875 0)"/>
      </g>
     </g>
    </g>
    <g id="ytick_8">
     <g id="line2d_44">
      <path d="M 549.444516 229.685385 
L 985.048281 229.685385 
" clip-path="url(#p364642b10a)" style="fill: none; stroke: #b0b0b0; stroke-opacity: 0.3; stroke-width: 0.8; stroke-linecap: square"/>
     </g>
     <g id="line2d_45">
      <g>
       <use xlink:href="#mb5cf9b69ef" x="549.444516" y="229.685385" style="stroke: #000000; stroke-width: 0.8"/>
      </g>
     </g>
     <g id="text_26">
      <!-- 1130 -->
      <g transform="translate(516.994516 233.484213) scale(0.1 -0.1)">
       <use xlink:href="#DejaVuSerif-14"/>
       <use xlink:href="#DejaVuSerif-14" transform="translate(63.625 0)"/>
       <use xlink:href="#DejaVuSerif-16" transform="translate(127.25 0)"/>
       <use xlink:href="#DejaVuSerif-13" transform="translate(190.875 0)"/>
      </g>
     </g>
    </g>
    <g id="ytick_9">
     <g id="line2d_46">
      <path d="M 549.444516 177.208763 
L 985.048281 177.208763 
" clip-path="url(#p364642b10a)" style="fill: none; stroke: #b0b0b0; stroke-opacity: 0.3; stroke-width: 0.8; stroke-linecap: square"/>
     </g>
     <g id="line2d_47">
      <g>
       <use xlink:href="#mb5cf9b69ef" x="549.444516" y="177.208763" style="stroke: #000000; stroke-width: 0.8"/>
      </g>
     </g>
     <g id="text_27">
      <!-- 1140 -->
      <g transform="translate(516.994516 181.007591) scale(0.1 -0.1)">
       <use xlink:href="#DejaVuSerif-14"/>
       <use xlink:href="#DejaVuSerif-14" transform="translate(63.625 0)"/>
       <use xlink:href="#DejaVuSerif-17" transform="translate(127.25 0)"/>
       <use xlink:href="#DejaVuSerif-13" transform="translate(190.875 0)"/>
      </g>
     </g>
    </g>
    <g id="ytick_10">
     <g id="line2d_48">
      <path d="M 549.444516 124.732142 
L 985.048281 124.732142 
" clip-path="url(#p364642b10a)" style="fill: none; stroke: #b0b0b0; stroke-opacity: 0.3; stroke-width: 0.8; stroke-linecap: square"/>
     </g>
     <g id="line2d_49">
      <g>
       <use xlink:href="#mb5cf9b69ef" x="549.444516" y="124.732142" style="stroke: #000000; stroke-width: 0.8"/>
      </g>
     </g>
     <g id="text_28">
      <!-- 1150 -->
      <g transform="translate(516.994516 128.53097) scale(0.1 -0.1)">
       <use xlink:href="#DejaVuSerif-14"/>
       <use xlink:href="#DejaVuSerif-14" transform="translate(63.625 0)"/>
       <use xlink:href="#DejaVuSerif-18" transform="translate(127.25 0)"/>
       <use xlink:href="#DejaVuSerif-13" transform="translate(190.875 0)"/>
      </g>
     </g>
    </g>
    <g id="ytick_11">
     <g id="line2d_50">
      <path d="M 549.444516 72.25552 
L 985.048281 72.25552 
" clip-path="url(#p364642b10a)" style="fill: none; stroke: #b0b0b0; stroke-opacity: 0.3; stroke-width: 0.8; stroke-linecap: square"/>
     </g>
     <g id="line2d_51">
      <g>
       <use xlink:href="#mb5cf9b69ef" x="549.444516" y="72.25552" style="stroke: #000000; stroke-width: 0.8"/>
      </g>
     </g>
     <g id="text_29">
      <!-- 1160 -->
      <g transform="translate(516.994516 76.054348) scale(0.1 -0.1)">
       <defs>
        <path id="DejaVuSerif-19" d="M 2094 219 
Q 2534 219 2771 542 
Q 3009 866 3009 1472 
Q 3009 2078 2771 2401 
Q 2534 2725 2094 2725 
Q 1647 2725 1412 2412 
Q 1178 2100 1178 1509 
Q 1178 888 1415 553 
Q 1653 219 2094 219 
z
M 1075 2569 
Q 1288 2803 1556 2918 
Q 1825 3034 2163 3034 
Q 2859 3034 3264 2615 
Q 3669 2197 3669 1472 
Q 3669 763 3233 336 
Q 2797 -91 2069 -91 
Q 1278 -91 853 498 
Q 428 1088 428 2181 
Q 428 3406 931 4078 
Q 1434 4750 2350 4750 
Q 2597 4750 2869 4703 
Q 3141 4656 3425 4563 
L 3425 3794 
L 3072 3794 
Q 3034 4109 2831 4275 
Q 2628 4441 2284 4441 
Q 1678 4441 1381 3981 
Q 1084 3522 1075 2569 
z
" transform="scale(0.015625)"/>
       </defs>
       <use xlink:href="#DejaVuSerif-14"/>
       <use xlink:href="#DejaVuSerif-14" transform="translate(63.625 0)"/>
       <use xlink:href="#DejaVuSerif-19" transform="translate(127.25 0)"/>
       <use xlink:href="#DejaVuSerif-13" transform="translate(190.875 0)"/>
      </g>
     </g>
    </g>
    <g id="text_30">
     <!-- Runtime (ms) -->
     <g transform="translate(510.351938 214.920059) rotate(-90) scale(0.11 -0.11)">
      <use xlink:href="#DejaVuSerif-35"/>
      <use xlink:href="#DejaVuSerif-58" transform="translate(75.296875 0)"/>
      <use xlink:href="#DejaVuSerif-51" transform="translate(139.703125 0)"/>
      <use xlink:href="#DejaVuSerif-57" transform="translate(204.109375 0)"/>
      <use xlink:href="#DejaVuSerif-4c" transform="translate(244.296875 0)"/>
      <use xlink:href="#DejaVuSerif-50" transform="translate(276.28125 0)"/>
      <use xlink:href="#DejaVuSerif-48" transform="translate(371.109375 0)"/>
      <use xlink:href="#DejaVuSerif-3" transform="translate(430.296875 0)"/>
      <use xlink:href="#DejaVuSerif-b" transform="translate(462.078125 0)"/>
      <use xlink:href="#DejaVuSerif-50" transform="translate(501.09375 0)"/>
      <use xlink:href="#DejaVuSerif-56" transform="translate(595.921875 0)"/>
      <use xlink:href="#DejaVuSerif-c" transform="translate(647.234375 0)"/>
     </g>
    </g>
   </g>
   <g id="line2d_52">
    <path d="M 569.244688 66.726281 
L 613.245068 232.735064 
L 657.245448 223.773147 
L 686.579035 182.983476 
L 730.579415 233.431949 
L 759.913002 208.779483 
L 789.246589 259.590787 
L 818.580176 36.396142 
L 862.580556 276.428631 
L 891.914143 317.956475 
L 935.914523 231.533969 
L 965.24811 249.510351 
" clip-path="url(#p364642b10a)" style="fill: none; stroke: #7f8c8d; stroke-width: 2; stroke-linecap: square"/>
    <g clip-path="url(#p364642b10a)">
     <use xlink:href="#m315f87f25b" x="569.244688" y="66.726281" style="fill: #7f8c8d; stroke: #7f8c8d"/>
     <use xlink:href="#m315f87f25b" x="613.245068" y="232.735064" style="fill: #7f8c8d; stroke: #7f8c8d"/>
     <use xlink:href="#m315f87f25b" x="657.245448" y="223.773147" style="fill: #7f8c8d; stroke: #7f8c8d"/>
     <use xlink:href="#m315f87f25b" x="686.579035" y="182.983476" style="fill: #7f8c8d; stroke: #7f8c8d"/>
     <use xlink:href="#m315f87f25b" x="730.579415" y="233.431949" style="fill: #7f8c8d; stroke: #7f8c8d"/>
     <use xlink:href="#m315f87f25b" x="759.913002" y="208.779483" style="fill: #7f8c8d; stroke: #7f8c8d"/>
     <use xlink:href="#m315f87f25b" x="789.246589" y="259.590787" style="fill: #7f8c8d; stroke: #7f8c8d"/>
     <use xlink:href="#m315f87f25b" x="818.580176" y="36.396142" style="fill: #7f8c8d; stroke: #7f8c8d"/>
     <use xlink:href="#m315f87f25b" x="862.580556" y="276.428631" style="fill: #7f8c8d; stroke: #7f8c8d"/>
     <use xlink:href="#m315f87f25b" x="891.914143" y="317.956475" style="fill: #7f8c8d; stroke: #7f8c8d"/>
     <use xlink:href="#m315f87f25b" x="935.914523" y="231.533969" style="fill: #7f8c8d; stroke: #7f8c8d"/>
     <use xlink:href="#m315f87f25b" x="965.24811" y="249.510351" style="fill: #7f8c8d; stroke: #7f8c8d"/>
    </g>
   </g>
   <g id="line2d_53">
    <path d="M 569.244688 146.935909 
L 572.027029 148.070947 
L 574.82892 149.205769 
L 577.650496 150.340378 
L 580.491898 151.474772 
L 583.353263 152.608953 
L 586.234732 153.742919 
L 589.136446 154.876671 
L 592.058549 156.010209 
L 595.001182 157.143533 
L 597.96449 158.276643 
L 600.948618 159.40954 
L 603.953713 160.542222 
L 606.979922 161.674691 
L 610.027394 162.806945 
L 613.096277 163.938986 
L 616.186722 165.070814 
L 619.298881 166.202427 
L 622.432906 167.333828 
L 625.588951 168.465014 
L 628.76717 169.595987 
L 631.96772 170.726746 
L 635.190757 171.857292 
L 638.436439 172.987625 
L 641.704926 174.117744 
L 644.996377 175.24765 
L 648.310954 176.377342 
L 651.64882 177.506822 
L 655.010137 178.636088 
L 658.395072 179.765141 
L 661.803789 180.89398 
L 665.236455 182.022607 
L 668.69324 183.151021 
L 672.174313 184.279221 
L 675.679844 185.407209 
L 679.210004 186.534983 
L 682.764968 187.662545 
L 686.34491 188.789894 
L 689.950004 189.91703 
L 693.580427 191.043953 
L 697.236359 192.170664 
L 700.917977 193.297162 
L 704.625462 194.423447 
L 708.358996 195.54952 
L 712.118762 196.67538 
L 715.904945 197.801027 
L 719.71773 198.926462 
L 723.557303 200.051685 
L 727.423853 201.176695 
L 731.31757 202.301493 
L 735.238645 203.426078 
L 739.187269 204.550451 
L 743.163636 205.674612 
L 747.167942 206.798561 
L 751.200382 207.922297 
L 755.261154 209.045821 
L 759.350458 210.169134 
L 763.468493 211.292234 
L 767.615461 212.415122 
L 771.791567 213.537798 
L 775.997014 214.660263 
L 780.232008 215.782515 
L 784.496758 216.904555 
L 788.791473 218.026384 
L 793.116362 219.148001 
L 797.471638 220.269406 
L 801.857515 221.3906 
L 806.274206 222.511582 
L 810.72193 223.632352 
L 815.200904 224.75291 
L 819.711348 225.873258 
L 824.253481 226.993393 
L 828.827529 228.113317 
L 833.433713 229.23303 
L 838.072262 230.352531 
L 842.7434 231.471822 
L 847.447359 232.5909 
L 852.184367 233.709768 
L 856.954659 234.828424 
L 861.758466 235.946869 
L 866.596025 237.065103 
L 871.467574 238.183126 
L 876.37335 239.300938 
L 881.313594 240.418539 
L 886.288549 241.535928 
L 891.298458 242.653107 
L 896.343566 243.770075 
L 901.424122 244.886832 
L 906.540375 246.003379 
L 911.692574 247.119714 
L 916.880973 248.235839 
L 922.105826 249.351753 
L 927.36739 250.467457 
L 932.665921 251.582949 
L 938.00168 252.698232 
L 943.374928 253.813303 
L 948.785929 254.928165 
L 954.234948 256.042815 
L 959.722252 257.157256 
L 965.24811 258.271486 
" clip-path="url(#p364642b10a)" style="fill: none; stroke-dasharray: 7.4,3.2; stroke-dashoffset: 0; stroke: #7f8c8d; stroke-opacity: 0.5; stroke-width: 2"/>
   </g>
   <g id="patch_9">
    <path d="M 549.444516 332.034492 
L 549.444516 22.318125 
" style="fill: none; stroke: #000000; stroke-width: 0.8; stroke-linejoin: miter; stroke-linecap: square"/>
   </g>
   <g id="patch_10">
    <path d="M 985.048281 332.034492 
L 985.048281 22.318125 
" style="fill: none; stroke: #000000; stroke-width: 0.8; stroke-linejoin: miter; stroke-linecap: square"/>
   </g>
   <g id="patch_11">
    <path d="M 549.444516 332.034492 
L 985.048281 332.034492 
" style="fill: none; stroke: #000000; stroke-width: 0.8; stroke-linejoin: miter; stroke-linecap: square"/>
   </g>
   <g id="patch_12">
    <path d="M 549.444516 22.318125 
L 985.048281 22.318125 
" style="fill: none; stroke: #000000; stroke-width: 0.8; stroke-linejoin: miter; stroke-linecap: square"/>
   </g>
   <g id="text_31">
    <!-- Target_and_random Scaling -->
    <g transform="translate(674.040149 16.318125) scale(0.12 -0.12)">
     <defs>
      <path id="DejaVuSerif-Bold-52" d="M 2138 263 
Q 2488 263 2630 563 
Q 2772 863 2772 1663 
Q 2772 2463 2631 2761 
Q 2491 3059 2138 3059 
Q 1784 3059 1640 2757 
Q 1497 2456 1497 1663 
Q 1497 869 1640 566 
Q 1784 263 2138 263 
z
M 2138 -91 
Q 1259 -91 761 376 
Q 263 844 263 1663 
Q 263 2484 761 2948 
Q 1259 3413 2138 3413 
Q 3019 3413 3516 2948 
Q 4013 2484 4013 1663 
Q 4013 844 3514 376 
Q 3016 -91 2138 -91 
z
" transform="scale(0.015625)"/>
      <path id="DejaVuSerif-Bold-50" d="M 3884 2778 
Q 4116 3109 4384 3261 
Q 4653 3413 5013 3413 
Q 5584 3413 5867 3089 
Q 6150 2766 6150 2113 
L 6150 378 
L 6625 378 
L 6625 0 
L 4647 0 
L 4647 378 
L 5044 378 
L 5044 1947 
Q 5044 2569 4948 2731 
Q 4853 2894 4594 2894 
Q 4300 2894 4137 2667 
Q 3975 2441 3975 2022 
L 3975 378 
L 4372 378 
L 4372 0 
L 2472 0 
L 2472 378 
L 2869 378 
L 2869 1947 
Q 2869 2569 2772 2731 
Q 2675 2894 2419 2894 
Q 2122 2894 1959 2667 
Q 1797 2441 1797 2022 
L 1797 378 
L 2194 378 
L 2194 0 
L 219 0 
L 219 378 
L 691 378 
L 691 2944 
L 219 2944 
L 219 3322 
L 1797 3322 
L 1797 2853 
Q 1991 3144 2241 3278 
Q 2491 3413 2834 3413 
Q 3241 3413 3494 3258 
Q 3747 3103 3884 2778 
z
" transform="scale(0.015625)"/>
     </defs>
     <use xlink:href="#DejaVuSerif-Bold-37"/>
     <use xlink:href="#DejaVuSerif-Bold-44" transform="translate(64.859375 0)"/>
     <use xlink:href="#DejaVuSerif-Bold-55" transform="translate(129.65625 0)"/>
     <use xlink:href="#DejaVuSerif-Bold-4a" transform="translate(182.34375 0)"/>
     <use xlink:href="#DejaVuSerif-Bold-48" transform="translate(252.265625 0)"/>
     <use xlink:href="#DejaVuSerif-Bold-57" transform="translate(315.890625 0)"/>
     <use xlink:href="#DejaVuSerif-Bold-42" transform="translate(362.078125 0)"/>
     <use xlink:href="#DejaVuSerif-Bold-44" transform="translate(412.078125 0)"/>
     <use xlink:href="#DejaVuSerif-Bold-51" transform="translate(476.875 0)"/>
     <use xlink:href="#DejaVuSerif-Bold-47" transform="translate(549.578125 0)"/>
     <use xlink:href="#DejaVuSerif-Bold-42" transform="translate(619.5 0)"/>
     <use xlink:href="#DejaVuSerif-Bold-55" transform="translate(669.5 0)"/>
     <use xlink:href="#DejaVuSerif-Bold-44" transform="translate(722.1875 0)"/>
     <use xlink:href="#DejaVuSerif-Bold-51" transform="translate(786.984375 0)"/>
     <use xlink:href="#DejaVuSerif-Bold-47" transform="translate(859.6875 0)"/>
     <use xlink:href="#DejaVuSerif-Bold-52" transform="translate(929.609375 0)"/>
     <use xlink:href="#DejaVuSerif-Bold-50" transform="translate(996.3125 0)"/>
     <use xlink:href="#DejaVuSerif-Bold-3" transform="translate(1102.125 0)"/>
     <use xlink:href="#DejaVuSerif-Bold-36" transform="translate(1136.9375 0)"/>
     <use xlink:href="#DejaVuSerif-Bold-46" transform="translate(1209.15625 0)"/>
     <use xlink:href="#DejaVuSerif-Bold-44" transform="translate(1270.046875 0)"/>
     <use xlink:href="#DejaVuSerif-Bold-4f" transform="translate(1334.84375 0)"/>
     <use xlink:href="#DejaVuSerif-Bold-4c" transform="translate(1372.828125 0)"/>
     <use xlink:href="#DejaVuSerif-Bold-51" transform="translate(1410.8125 0)"/>
     <use xlink:href="#DejaVuSerif-Bold-4a" transform="translate(1483.515625 0)"/>
    </g>
   </g>
   <g id="legend_2">
    <g id="patch_13">
     <path d="M 902.951406 45.318906 
L 978.048281 45.318906 
Q 980.048281 45.318906 980.048281 43.318906 
L 980.048281 29.318125 
Q 980.048281 27.318125 978.048281 27.318125 
L 902.951406 27.318125 
Q 900.951406 27.318125 900.951406 29.318125 
L 900.951406 43.318906 
Q 900.951406 45.318906 902.951406 45.318906 
z
" style="fill: #ffffff; opacity: 0.8; stroke: #cccccc; stroke-linejoin: miter"/>
    </g>
    <g id="line2d_54">
     <path d="M 904.951406 35.416562 
L 914.951406 35.416562 
L 924.951406 35.416562 
" style="fill: none; stroke-dasharray: 7.4,3.2; stroke-dashoffset: 0; stroke: #7f8c8d; stroke-opacity: 0.5; stroke-width: 2"/>
    </g>
    <g id="text_32">
     <!-- Fit (exp) -->
     <g transform="translate(932.951406 38.916562) scale(0.1 -0.1)">
      <use xlink:href="#DejaVuSerif-29"/>
      <use xlink:href="#DejaVuSerif-4c" transform="translate(69.390625 0)"/>
      <use xlink:href="#DejaVuSerif-57" transform="translate(101.375 0)"/>
      <use xlink:href="#DejaVuSerif-3" transform="translate(141.5625 0)"/>
      <use xlink:href="#DejaVuSerif-b" transform="translate(173.34375 0)"/>
      <use xlink:href="#DejaVuSerif-48" transform="translate(212.359375 0)"/>
      <use xlink:href="#DejaVuSerif-5b" transform="translate(271.546875 0)"/>
      <use xlink:href="#DejaVuSerif-53" transform="translate(327.9375 0)"/>
      <use xlink:href="#DejaVuSerif-c" transform="translate(391.953125 0)"/>
     </g>
    </g>
   </g>
  </g>
  <g id="axes_3">
   <g id="patch_14">
    <path d="M 54.650859 688.515781 
L 490.254624 688.515781 
L 490.254624 378.799414 
L 54.650859 378.799414 
z
" style="fill: #ffffff"/>
   </g>
   <g id="matplotlib.axis_5">
    <g id="xtick_14">
     <g id="line2d_55">
      <g>
       <use xlink:href="#m67508d9fed" x="54.650859" y="688.515781" style="stroke: #000000; stroke-width: 0.8"/>
      </g>
     </g>
     <g id="text_33">
      <!-- 0.0 -->
      <g transform="translate(46.699297 703.113437) scale(0.1 -0.1)">
       <defs>
        <path id="DejaVuSerif-11" d="M 603 325 
Q 603 500 722 622 
Q 841 744 1019 744 
Q 1191 744 1312 622 
Q 1434 500 1434 325 
Q 1434 153 1312 31 
Q 1191 -91 1019 -91 
Q 841 -91 722 29 
Q 603 150 603 325 
z
" transform="scale(0.015625)"/>
       </defs>
       <use xlink:href="#DejaVuSerif-13"/>
       <use xlink:href="#DejaVuSerif-11" transform="translate(63.625 0)"/>
       <use xlink:href="#DejaVuSerif-13" transform="translate(95.40625 0)"/>
      </g>
     </g>
    </g>
    <g id="xtick_15">
     <g id="line2d_56">
      <g>
       <use xlink:href="#m67508d9fed" x="141.771612" y="688.515781" style="stroke: #000000; stroke-width: 0.8"/>
      </g>
     </g>
     <g id="text_34">
      <!-- 0.2 -->
      <g transform="translate(133.82005 703.113437) scale(0.1 -0.1)">
       <use xlink:href="#DejaVuSerif-13"/>
       <use xlink:href="#DejaVuSerif-11" transform="translate(63.625 0)"/>
       <use xlink:href="#DejaVuSerif-15" transform="translate(95.40625 0)"/>
      </g>
     </g>
    </g>
    <g id="xtick_16">
     <g id="line2d_57">
      <g>
       <use xlink:href="#m67508d9fed" x="228.892365" y="688.515781" style="stroke: #000000; stroke-width: 0.8"/>
      </g>
     </g>
     <g id="text_35">
      <!-- 0.4 -->
      <g transform="translate(220.940803 703.113437) scale(0.1 -0.1)">
       <use xlink:href="#DejaVuSerif-13"/>
       <use xlink:href="#DejaVuSerif-11" transform="translate(63.625 0)"/>
       <use xlink:href="#DejaVuSerif-17" transform="translate(95.40625 0)"/>
      </g>
     </g>
    </g>
    <g id="xtick_17">
     <g id="line2d_58">
      <g>
       <use xlink:href="#m67508d9fed" x="316.013118" y="688.515781" style="stroke: #000000; stroke-width: 0.8"/>
      </g>
     </g>
     <g id="text_36">
      <!-- 0.6 -->
      <g transform="translate(308.061556 703.113437) scale(0.1 -0.1)">
       <use xlink:href="#DejaVuSerif-13"/>
       <use xlink:href="#DejaVuSerif-11" transform="translate(63.625 0)"/>
       <use xlink:href="#DejaVuSerif-19" transform="translate(95.40625 0)"/>
      </g>
     </g>
    </g>
    <g id="xtick_18">
     <g id="line2d_59">
      <g>
       <use xlink:href="#m67508d9fed" x="403.133871" y="688.515781" style="stroke: #000000; stroke-width: 0.8"/>
      </g>
     </g>
     <g id="text_37">
      <!-- 0.8 -->
      <g transform="translate(395.182309 703.113437) scale(0.1 -0.1)">
       <defs>
        <path id="DejaVuSerif-1b" d="M 2981 1275 
Q 2981 1775 2732 2051 
Q 2484 2328 2034 2328 
Q 1584 2328 1336 2051 
Q 1088 1775 1088 1275 
Q 1088 772 1336 495 
Q 1584 219 2034 219 
Q 2484 219 2732 495 
Q 2981 772 2981 1275 
z
M 2853 3541 
Q 2853 3966 2637 4203 
Q 2422 4441 2034 4441 
Q 1650 4441 1433 4203 
Q 1216 3966 1216 3541 
Q 1216 3113 1433 2875 
Q 1650 2638 2034 2638 
Q 2422 2638 2637 2875 
Q 2853 3113 2853 3541 
z
M 2516 2484 
Q 3047 2413 3344 2092 
Q 3641 1772 3641 1275 
Q 3641 619 3225 264 
Q 2809 -91 2034 -91 
Q 1263 -91 845 264 
Q 428 619 428 1275 
Q 428 1772 725 2092 
Q 1022 2413 1556 2484 
Q 1084 2569 832 2842 
Q 581 3116 581 3541 
Q 581 4103 968 4426 
Q 1356 4750 2034 4750 
Q 2713 4750 3100 4426 
Q 3488 4103 3488 3541 
Q 3488 3116 3236 2842 
Q 2984 2569 2516 2484 
z
" transform="scale(0.015625)"/>
       </defs>
       <use xlink:href="#DejaVuSerif-13"/>
       <use xlink:href="#DejaVuSerif-11" transform="translate(63.625 0)"/>
       <use xlink:href="#DejaVuSerif-1b" transform="translate(95.40625 0)"/>
      </g>
     </g>
    </g>
    <g id="xtick_19">
     <g id="line2d_60">
      <g>
       <use xlink:href="#m67508d9fed" x="490.254624" y="688.515781" style="stroke: #000000; stroke-width: 0.8"/>
      </g>
     </g>
     <g id="text_38">
      <!-- 1.0 -->
      <g transform="translate(482.303062 703.113437) scale(0.1 -0.1)">
       <use xlink:href="#DejaVuSerif-14"/>
       <use xlink:href="#DejaVuSerif-11" transform="translate(63.625 0)"/>
       <use xlink:href="#DejaVuSerif-13" transform="translate(95.40625 0)"/>
      </g>
     </g>
    </g>
   </g>
   <g id="matplotlib.axis_6">
    <g id="ytick_12">
     <g id="line2d_61">
      <g>
       <use xlink:href="#mb5cf9b69ef" x="54.650859" y="688.515781" style="stroke: #000000; stroke-width: 0.8"/>
      </g>
     </g>
     <g id="text_39">
      <!-- 0.0 -->
      <g transform="translate(31.747734 692.314609) scale(0.1 -0.1)">
       <use xlink:href="#DejaVuSerif-13"/>
       <use xlink:href="#DejaVuSerif-11" transform="translate(63.625 0)"/>
       <use xlink:href="#DejaVuSerif-13" transform="translate(95.40625 0)"/>
      </g>
     </g>
    </g>
    <g id="ytick_13">
     <g id="line2d_62">
      <g>
       <use xlink:href="#mb5cf9b69ef" x="54.650859" y="626.572508" style="stroke: #000000; stroke-width: 0.8"/>
      </g>
     </g>
     <g id="text_40">
      <!-- 0.2 -->
      <g transform="translate(31.747734 630.371336) scale(0.1 -0.1)">
       <use xlink:href="#DejaVuSerif-13"/>
       <use xlink:href="#DejaVuSerif-11" transform="translate(63.625 0)"/>
       <use xlink:href="#DejaVuSerif-15" transform="translate(95.40625 0)"/>
      </g>
     </g>
    </g>
    <g id="ytick_14">
     <g id="line2d_63">
      <g>
       <use xlink:href="#mb5cf9b69ef" x="54.650859" y="564.629234" style="stroke: #000000; stroke-width: 0.8"/>
      </g>
     </g>
     <g id="text_41">
      <!-- 0.4 -->
      <g transform="translate(31.747734 568.428062) scale(0.1 -0.1)">
       <use xlink:href="#DejaVuSerif-13"/>
       <use xlink:href="#DejaVuSerif-11" transform="translate(63.625 0)"/>
       <use xlink:href="#DejaVuSerif-17" transform="translate(95.40625 0)"/>
      </g>
     </g>
    </g>
    <g id="ytick_15">
     <g id="line2d_64">
      <g>
       <use xlink:href="#mb5cf9b69ef" x="54.650859" y="502.685961" style="stroke: #000000; stroke-width: 0.8"/>
      </g>
     </g>
     <g id="text_42">
      <!-- 0.6 -->
      <g transform="translate(31.747734 506.484789) scale(0.1 -0.1)">
       <use xlink:href="#DejaVuSerif-13"/>
       <use xlink:href="#DejaVuSerif-11" transform="translate(63.625 0)"/>
       <use xlink:href="#DejaVuSerif-19" transform="translate(95.40625 0)"/>
      </g>
     </g>
    </g>
    <g id="ytick_16">
     <g id="line2d_65">
      <g>
       <use xlink:href="#mb5cf9b69ef" x="54.650859" y="440.742687" style="stroke: #000000; stroke-width: 0.8"/>
      </g>
     </g>
     <g id="text_43">
      <!-- 0.8 -->
      <g transform="translate(31.747734 444.541516) scale(0.1 -0.1)">
       <use xlink:href="#DejaVuSerif-13"/>
       <use xlink:href="#DejaVuSerif-11" transform="translate(63.625 0)"/>
       <use xlink:href="#DejaVuSerif-1b" transform="translate(95.40625 0)"/>
      </g>
     </g>
    </g>
    <g id="ytick_17">
     <g id="line2d_66">
      <g>
       <use xlink:href="#mb5cf9b69ef" x="54.650859" y="378.799414" style="stroke: #000000; stroke-width: 0.8"/>
      </g>
     </g>
     <g id="text_44">
      <!-- 1.0 -->
      <g transform="translate(31.747734 382.598242) scale(0.1 -0.1)">
       <use xlink:href="#DejaVuSerif-14"/>
       <use xlink:href="#DejaVuSerif-11" transform="translate(63.625 0)"/>
       <use xlink:href="#DejaVuSerif-13" transform="translate(95.40625 0)"/>
      </g>
     </g>
    </g>
   </g>
   <g id="patch_15">
    <path d="M 54.650859 688.515781 
L 54.650859 378.799414 
" style="fill: none; stroke: #000000; stroke-width: 0.8; stroke-linejoin: miter; stroke-linecap: square"/>
   </g>
   <g id="patch_16">
    <path d="M 490.254624 688.515781 
L 490.254624 378.799414 
" style="fill: none; stroke: #000000; stroke-width: 0.8; stroke-linejoin: miter; stroke-linecap: square"/>
   </g>
   <g id="patch_17">
    <path d="M 54.650859 688.515781 
L 490.254624 688.515781 
" style="fill: none; stroke: #000000; stroke-width: 0.8; stroke-linejoin: miter; stroke-linecap: square"/>
   </g>
   <g id="patch_18">
    <path d="M 54.650859 378.799414 
L 490.254624 378.799414 
" style="fill: none; stroke: #000000; stroke-width: 0.8; stroke-linejoin: miter; stroke-linecap: square"/>
   </g>
  </g>
  <g id="axes_4">
   <g id="patch_19">
    <path d="M 549.444516 688.515781 
L 985.048281 688.515781 
L 985.048281 378.799414 
L 549.444516 378.799414 
z
" style="fill: #ffffff"/>
   </g>
   <g id="matplotlib.axis_7">
    <g id="xtick_20">
     <g id="line2d_67">
      <g>
       <use xlink:href="#m67508d9fed" x="549.444516" y="688.515781" style="stroke: #000000; stroke-width: 0.8"/>
      </g>
     </g>
     <g id="text_45">
      <!-- 0.0 -->
      <g transform="translate(541.492954 703.113437) scale(0.1 -0.1)">
       <use xlink:href="#DejaVuSerif-13"/>
       <use xlink:href="#DejaVuSerif-11" transform="translate(63.625 0)"/>
       <use xlink:href="#DejaVuSerif-13" transform="translate(95.40625 0)"/>
      </g>
     </g>
    </g>
    <g id="xtick_21">
     <g id="line2d_68">
      <g>
       <use xlink:href="#m67508d9fed" x="636.565269" y="688.515781" style="stroke: #000000; stroke-width: 0.8"/>
      </g>
     </g>
     <g id="text_46">
      <!-- 0.2 -->
      <g transform="translate(628.613707 703.113437) scale(0.1 -0.1)">
       <use xlink:href="#DejaVuSerif-13"/>
       <use xlink:href="#DejaVuSerif-11" transform="translate(63.625 0)"/>
       <use xlink:href="#DejaVuSerif-15" transform="translate(95.40625 0)"/>
      </g>
     </g>
    </g>
    <g id="xtick_22">
     <g id="line2d_69">
      <g>
       <use xlink:href="#m67508d9fed" x="723.686022" y="688.515781" style="stroke: #000000; stroke-width: 0.8"/>
      </g>
     </g>
     <g id="text_47">
      <!-- 0.4 -->
      <g transform="translate(715.73446 703.113437) scale(0.1 -0.1)">
       <use xlink:href="#DejaVuSerif-13"/>
       <use xlink:href="#DejaVuSerif-11" transform="translate(63.625 0)"/>
       <use xlink:href="#DejaVuSerif-17" transform="translate(95.40625 0)"/>
      </g>
     </g>
    </g>
    <g id="xtick_23">
     <g id="line2d_70">
      <g>
       <use xlink:href="#m67508d9fed" x="810.806775" y="688.515781" style="stroke: #000000; stroke-width: 0.8"/>
      </g>
     </g>
     <g id="text_48">
      <!-- 0.6 -->
      <g transform="translate(802.855213 703.113437) scale(0.1 -0.1)">
       <use xlink:href="#DejaVuSerif-13"/>
       <use xlink:href="#DejaVuSerif-11" transform="translate(63.625 0)"/>
       <use xlink:href="#DejaVuSerif-19" transform="translate(95.40625 0)"/>
      </g>
     </g>
    </g>
    <g id="xtick_24">
     <g id="line2d_71">
      <g>
       <use xlink:href="#m67508d9fed" x="897.927528" y="688.515781" style="stroke: #000000; stroke-width: 0.8"/>
      </g>
     </g>
     <g id="text_49">
      <!-- 0.8 -->
      <g transform="translate(889.975966 703.113437) scale(0.1 -0.1)">
       <use xlink:href="#DejaVuSerif-13"/>
       <use xlink:href="#DejaVuSerif-11" transform="translate(63.625 0)"/>
       <use xlink:href="#DejaVuSerif-1b" transform="translate(95.40625 0)"/>
      </g>
     </g>
    </g>
    <g id="xtick_25">
     <g id="line2d_72">
      <g>
       <use xlink:href="#m67508d9fed" x="985.048281" y="688.515781" style="stroke: #000000; stroke-width: 0.8"/>
      </g>
     </g>
     <g id="text_50">
      <!-- 1.0 -->
      <g transform="translate(977.096719 703.113437) scale(0.1 -0.1)">
       <use xlink:href="#DejaVuSerif-14"/>
       <use xlink:href="#DejaVuSerif-11" transform="translate(63.625 0)"/>
       <use xlink:href="#DejaVuSerif-13" transform="translate(95.40625 0)"/>
      </g>
     </g>
    </g>
   </g>
   <g id="matplotlib.axis_8">
    <g id="ytick_18">
     <g id="line2d_73">
      <g>
       <use xlink:href="#mb5cf9b69ef" x="549.444516" y="688.515781" style="stroke: #000000; stroke-width: 0.8"/>
      </g>
     </g>
     <g id="text_51">
      <!-- 0.0 -->
      <g transform="translate(526.541391 692.314609) scale(0.1 -0.1)">
       <use xlink:href="#DejaVuSerif-13"/>
       <use xlink:href="#DejaVuSerif-11" transform="translate(63.625 0)"/>
       <use xlink:href="#DejaVuSerif-13" transform="translate(95.40625 0)"/>
      </g>
     </g>
    </g>
    <g id="ytick_19">
     <g id="line2d_74">
      <g>
       <use xlink:href="#mb5cf9b69ef" x="549.444516" y="626.572508" style="stroke: #000000; stroke-width: 0.8"/>
      </g>
     </g>
     <g id="text_52">
      <!-- 0.2 -->
      <g transform="translate(526.541391 630.371336) scale(0.1 -0.1)">
       <use xlink:href="#DejaVuSerif-13"/>
       <use xlink:href="#DejaVuSerif-11" transform="translate(63.625 0)"/>
       <use xlink:href="#DejaVuSerif-15" transform="translate(95.40625 0)"/>
      </g>
     </g>
    </g>
    <g id="ytick_20">
     <g id="line2d_75">
      <g>
       <use xlink:href="#mb5cf9b69ef" x="549.444516" y="564.629234" style="stroke: #000000; stroke-width: 0.8"/>
      </g>
     </g>
     <g id="text_53">
      <!-- 0.4 -->
      <g transform="translate(526.541391 568.428062) scale(0.1 -0.1)">
       <use xlink:href="#DejaVuSerif-13"/>
       <use xlink:href="#DejaVuSerif-11" transform="translate(63.625 0)"/>
       <use xlink:href="#DejaVuSerif-17" transform="translate(95.40625 0)"/>
      </g>
     </g>
    </g>
    <g id="ytick_21">
     <g id="line2d_76">
      <g>
       <use xlink:href="#mb5cf9b69ef" x="549.444516" y="502.685961" style="stroke: #000000; stroke-width: 0.8"/>
      </g>
     </g>
     <g id="text_54">
      <!-- 0.6 -->
      <g transform="translate(526.541391 506.484789) scale(0.1 -0.1)">
       <use xlink:href="#DejaVuSerif-13"/>
       <use xlink:href="#DejaVuSerif-11" transform="translate(63.625 0)"/>
       <use xlink:href="#DejaVuSerif-19" transform="translate(95.40625 0)"/>
      </g>
     </g>
    </g>
    <g id="ytick_22">
     <g id="line2d_77">
      <g>
       <use xlink:href="#mb5cf9b69ef" x="549.444516" y="440.742687" style="stroke: #000000; stroke-width: 0.8"/>
      </g>
     </g>
     <g id="text_55">
      <!-- 0.8 -->
      <g transform="translate(526.541391 444.541516) scale(0.1 -0.1)">
       <use xlink:href="#DejaVuSerif-13"/>
       <use xlink:href="#DejaVuSerif-11" transform="translate(63.625 0)"/>
       <use xlink:href="#DejaVuSerif-1b" transform="translate(95.40625 0)"/>
      </g>
     </g>
    </g>
    <g id="ytick_23">
     <g id="line2d_78">
      <g>
       <use xlink:href="#mb5cf9b69ef" x="549.444516" y="378.799414" style="stroke: #000000; stroke-width: 0.8"/>
      </g>
     </g>
     <g id="text_56">
      <!-- 1.0 -->
      <g transform="translate(526.541391 382.598242) scale(0.1 -0.1)">
       <use xlink:href="#DejaVuSerif-14"/>
       <use xlink:href="#DejaVuSerif-11" transform="translate(63.625 0)"/>
       <use xlink:href="#DejaVuSerif-13" transform="translate(95.40625 0)"/>
      </g>
     </g>
    </g>
   </g>
   <g id="patch_20">
    <path d="M 549.444516 688.515781 
L 549.444516 378.799414 
" style="fill: none; stroke: #000000; stroke-width: 0.8; stroke-linejoin: miter; stroke-linecap: square"/>
   </g>
   <g id="patch_21">
    <path d="M 985.048281 688.515781 
L 985.048281 378.799414 
" style="fill: none; stroke: #000000; stroke-width: 0.8; stroke-linejoin: miter; stroke-linecap: square"/>
   </g>
   <g id="patch_22">
    <path d="M 549.444516 688.515781 
L 985.048281 688.515781 
" style="fill: none; stroke: #000000; stroke-width: 0.8; stroke-linejoin: miter; stroke-linecap: square"/>
   </g>
   <g id="patch_23">
    <path d="M 549.444516 378.799414 
L 985.048281 378.799414 
" style="fill: none; stroke: #000000; stroke-width: 0.8; stroke-linejoin: miter; stroke-linecap: square"/>
   </g>
  </g>
 </g>
 <defs>
  <clipPath id="p50206f349e">
   <rect x="54.650859" y="22.318125" width="435.603765" height="309.716367"/>
  </clipPath>
  <clipPath id="p364642b10a">
   <rect x="549.444516" y="22.318125" width="435.603765" height="309.716367"/>
  </clipPath>
 </defs>
</svg>
